G04 #@! TF.GenerationSoftware,KiCad,Pcbnew,8.0.6*
G04 #@! TF.CreationDate,2024-11-03T16:49:19-03:00*
G04 #@! TF.ProjectId,555-gerador-PWM-r01,3535352d-6765-4726-9164-6f722d50574d,rev?*
G04 #@! TF.SameCoordinates,Original*
G04 #@! TF.FileFunction,Legend,Top*
G04 #@! TF.FilePolarity,Positive*
%FSLAX46Y46*%
G04 Gerber Fmt 4.6, Leading zero omitted, Abs format (unit mm)*
G04 Created by KiCad (PCBNEW 8.0.6) date 2024-11-03 16:49:19*
%MOMM*%
%LPD*%
G01*
G04 APERTURE LIST*
%ADD10C,0.300000*%
%ADD11C,0.150000*%
%ADD12C,0.120000*%
G04 APERTURE END LIST*
D10*
X124667047Y-126544400D02*
X124476571Y-126639638D01*
X124476571Y-126639638D02*
X124095618Y-126639638D01*
X124095618Y-126639638D02*
X123905142Y-126544400D01*
X123905142Y-126544400D02*
X123809904Y-126449161D01*
X123809904Y-126449161D02*
X123714666Y-126258685D01*
X123714666Y-126258685D02*
X123714666Y-125687257D01*
X123714666Y-125687257D02*
X123809904Y-125496780D01*
X123809904Y-125496780D02*
X123905142Y-125401542D01*
X123905142Y-125401542D02*
X124095618Y-125306304D01*
X124095618Y-125306304D02*
X124476571Y-125306304D01*
X124476571Y-125306304D02*
X124667047Y-125401542D01*
X125809904Y-126639638D02*
X125619428Y-126544400D01*
X125619428Y-126544400D02*
X125524190Y-126449161D01*
X125524190Y-126449161D02*
X125428952Y-126258685D01*
X125428952Y-126258685D02*
X125428952Y-125687257D01*
X125428952Y-125687257D02*
X125524190Y-125496780D01*
X125524190Y-125496780D02*
X125619428Y-125401542D01*
X125619428Y-125401542D02*
X125809904Y-125306304D01*
X125809904Y-125306304D02*
X126095619Y-125306304D01*
X126095619Y-125306304D02*
X126286095Y-125401542D01*
X126286095Y-125401542D02*
X126381333Y-125496780D01*
X126381333Y-125496780D02*
X126476571Y-125687257D01*
X126476571Y-125687257D02*
X126476571Y-126258685D01*
X126476571Y-126258685D02*
X126381333Y-126449161D01*
X126381333Y-126449161D02*
X126286095Y-126544400D01*
X126286095Y-126544400D02*
X126095619Y-126639638D01*
X126095619Y-126639638D02*
X125809904Y-126639638D01*
X127333714Y-126639638D02*
X127333714Y-125306304D01*
X127333714Y-125496780D02*
X127428952Y-125401542D01*
X127428952Y-125401542D02*
X127619428Y-125306304D01*
X127619428Y-125306304D02*
X127905143Y-125306304D01*
X127905143Y-125306304D02*
X128095619Y-125401542D01*
X128095619Y-125401542D02*
X128190857Y-125592019D01*
X128190857Y-125592019D02*
X128190857Y-126639638D01*
X128190857Y-125592019D02*
X128286095Y-125401542D01*
X128286095Y-125401542D02*
X128476571Y-125306304D01*
X128476571Y-125306304D02*
X128762285Y-125306304D01*
X128762285Y-125306304D02*
X128952762Y-125401542D01*
X128952762Y-125401542D02*
X129048000Y-125592019D01*
X129048000Y-125592019D02*
X129048000Y-126639638D01*
X132476572Y-124639638D02*
X131524191Y-124639638D01*
X131524191Y-124639638D02*
X131428953Y-125592019D01*
X131428953Y-125592019D02*
X131524191Y-125496780D01*
X131524191Y-125496780D02*
X131714667Y-125401542D01*
X131714667Y-125401542D02*
X132190858Y-125401542D01*
X132190858Y-125401542D02*
X132381334Y-125496780D01*
X132381334Y-125496780D02*
X132476572Y-125592019D01*
X132476572Y-125592019D02*
X132571810Y-125782495D01*
X132571810Y-125782495D02*
X132571810Y-126258685D01*
X132571810Y-126258685D02*
X132476572Y-126449161D01*
X132476572Y-126449161D02*
X132381334Y-126544400D01*
X132381334Y-126544400D02*
X132190858Y-126639638D01*
X132190858Y-126639638D02*
X131714667Y-126639638D01*
X131714667Y-126639638D02*
X131524191Y-126544400D01*
X131524191Y-126544400D02*
X131428953Y-126449161D01*
X134381334Y-124639638D02*
X133428953Y-124639638D01*
X133428953Y-124639638D02*
X133333715Y-125592019D01*
X133333715Y-125592019D02*
X133428953Y-125496780D01*
X133428953Y-125496780D02*
X133619429Y-125401542D01*
X133619429Y-125401542D02*
X134095620Y-125401542D01*
X134095620Y-125401542D02*
X134286096Y-125496780D01*
X134286096Y-125496780D02*
X134381334Y-125592019D01*
X134381334Y-125592019D02*
X134476572Y-125782495D01*
X134476572Y-125782495D02*
X134476572Y-126258685D01*
X134476572Y-126258685D02*
X134381334Y-126449161D01*
X134381334Y-126449161D02*
X134286096Y-126544400D01*
X134286096Y-126544400D02*
X134095620Y-126639638D01*
X134095620Y-126639638D02*
X133619429Y-126639638D01*
X133619429Y-126639638D02*
X133428953Y-126544400D01*
X133428953Y-126544400D02*
X133333715Y-126449161D01*
X136286096Y-124639638D02*
X135333715Y-124639638D01*
X135333715Y-124639638D02*
X135238477Y-125592019D01*
X135238477Y-125592019D02*
X135333715Y-125496780D01*
X135333715Y-125496780D02*
X135524191Y-125401542D01*
X135524191Y-125401542D02*
X136000382Y-125401542D01*
X136000382Y-125401542D02*
X136190858Y-125496780D01*
X136190858Y-125496780D02*
X136286096Y-125592019D01*
X136286096Y-125592019D02*
X136381334Y-125782495D01*
X136381334Y-125782495D02*
X136381334Y-126258685D01*
X136381334Y-126258685D02*
X136286096Y-126449161D01*
X136286096Y-126449161D02*
X136190858Y-126544400D01*
X136190858Y-126544400D02*
X136000382Y-126639638D01*
X136000382Y-126639638D02*
X135524191Y-126639638D01*
X135524191Y-126639638D02*
X135333715Y-126544400D01*
X135333715Y-126544400D02*
X135238477Y-126449161D01*
X121968666Y-122194876D02*
X121778190Y-122099638D01*
X121778190Y-122099638D02*
X121492476Y-122099638D01*
X121492476Y-122099638D02*
X121206761Y-122194876D01*
X121206761Y-122194876D02*
X121016285Y-122385352D01*
X121016285Y-122385352D02*
X120921047Y-122575828D01*
X120921047Y-122575828D02*
X120825809Y-122956780D01*
X120825809Y-122956780D02*
X120825809Y-123242495D01*
X120825809Y-123242495D02*
X120921047Y-123623447D01*
X120921047Y-123623447D02*
X121016285Y-123813923D01*
X121016285Y-123813923D02*
X121206761Y-124004400D01*
X121206761Y-124004400D02*
X121492476Y-124099638D01*
X121492476Y-124099638D02*
X121682952Y-124099638D01*
X121682952Y-124099638D02*
X121968666Y-124004400D01*
X121968666Y-124004400D02*
X122063904Y-123909161D01*
X122063904Y-123909161D02*
X122063904Y-123242495D01*
X122063904Y-123242495D02*
X121682952Y-123242495D01*
X123682952Y-124004400D02*
X123492476Y-124099638D01*
X123492476Y-124099638D02*
X123111523Y-124099638D01*
X123111523Y-124099638D02*
X122921047Y-124004400D01*
X122921047Y-124004400D02*
X122825809Y-123813923D01*
X122825809Y-123813923D02*
X122825809Y-123052019D01*
X122825809Y-123052019D02*
X122921047Y-122861542D01*
X122921047Y-122861542D02*
X123111523Y-122766304D01*
X123111523Y-122766304D02*
X123492476Y-122766304D01*
X123492476Y-122766304D02*
X123682952Y-122861542D01*
X123682952Y-122861542D02*
X123778190Y-123052019D01*
X123778190Y-123052019D02*
X123778190Y-123242495D01*
X123778190Y-123242495D02*
X122825809Y-123432971D01*
X124635333Y-124099638D02*
X124635333Y-122766304D01*
X124635333Y-123147257D02*
X124730571Y-122956780D01*
X124730571Y-122956780D02*
X124825809Y-122861542D01*
X124825809Y-122861542D02*
X125016285Y-122766304D01*
X125016285Y-122766304D02*
X125206762Y-122766304D01*
X126730571Y-124099638D02*
X126730571Y-123052019D01*
X126730571Y-123052019D02*
X126635333Y-122861542D01*
X126635333Y-122861542D02*
X126444857Y-122766304D01*
X126444857Y-122766304D02*
X126063904Y-122766304D01*
X126063904Y-122766304D02*
X125873428Y-122861542D01*
X126730571Y-124004400D02*
X126540095Y-124099638D01*
X126540095Y-124099638D02*
X126063904Y-124099638D01*
X126063904Y-124099638D02*
X125873428Y-124004400D01*
X125873428Y-124004400D02*
X125778190Y-123813923D01*
X125778190Y-123813923D02*
X125778190Y-123623447D01*
X125778190Y-123623447D02*
X125873428Y-123432971D01*
X125873428Y-123432971D02*
X126063904Y-123337733D01*
X126063904Y-123337733D02*
X126540095Y-123337733D01*
X126540095Y-123337733D02*
X126730571Y-123242495D01*
X128540095Y-124099638D02*
X128540095Y-122099638D01*
X128540095Y-124004400D02*
X128349619Y-124099638D01*
X128349619Y-124099638D02*
X127968666Y-124099638D01*
X127968666Y-124099638D02*
X127778190Y-124004400D01*
X127778190Y-124004400D02*
X127682952Y-123909161D01*
X127682952Y-123909161D02*
X127587714Y-123718685D01*
X127587714Y-123718685D02*
X127587714Y-123147257D01*
X127587714Y-123147257D02*
X127682952Y-122956780D01*
X127682952Y-122956780D02*
X127778190Y-122861542D01*
X127778190Y-122861542D02*
X127968666Y-122766304D01*
X127968666Y-122766304D02*
X128349619Y-122766304D01*
X128349619Y-122766304D02*
X128540095Y-122861542D01*
X129778190Y-124099638D02*
X129587714Y-124004400D01*
X129587714Y-124004400D02*
X129492476Y-123909161D01*
X129492476Y-123909161D02*
X129397238Y-123718685D01*
X129397238Y-123718685D02*
X129397238Y-123147257D01*
X129397238Y-123147257D02*
X129492476Y-122956780D01*
X129492476Y-122956780D02*
X129587714Y-122861542D01*
X129587714Y-122861542D02*
X129778190Y-122766304D01*
X129778190Y-122766304D02*
X130063905Y-122766304D01*
X130063905Y-122766304D02*
X130254381Y-122861542D01*
X130254381Y-122861542D02*
X130349619Y-122956780D01*
X130349619Y-122956780D02*
X130444857Y-123147257D01*
X130444857Y-123147257D02*
X130444857Y-123718685D01*
X130444857Y-123718685D02*
X130349619Y-123909161D01*
X130349619Y-123909161D02*
X130254381Y-124004400D01*
X130254381Y-124004400D02*
X130063905Y-124099638D01*
X130063905Y-124099638D02*
X129778190Y-124099638D01*
X131302000Y-124099638D02*
X131302000Y-122766304D01*
X131302000Y-123147257D02*
X131397238Y-122956780D01*
X131397238Y-122956780D02*
X131492476Y-122861542D01*
X131492476Y-122861542D02*
X131682952Y-122766304D01*
X131682952Y-122766304D02*
X131873429Y-122766304D01*
X134063905Y-124099638D02*
X134063905Y-122099638D01*
X134063905Y-122099638D02*
X134825810Y-122099638D01*
X134825810Y-122099638D02*
X135016286Y-122194876D01*
X135016286Y-122194876D02*
X135111524Y-122290114D01*
X135111524Y-122290114D02*
X135206762Y-122480590D01*
X135206762Y-122480590D02*
X135206762Y-122766304D01*
X135206762Y-122766304D02*
X135111524Y-122956780D01*
X135111524Y-122956780D02*
X135016286Y-123052019D01*
X135016286Y-123052019D02*
X134825810Y-123147257D01*
X134825810Y-123147257D02*
X134063905Y-123147257D01*
X135873429Y-122099638D02*
X136349619Y-124099638D01*
X136349619Y-124099638D02*
X136730572Y-122671066D01*
X136730572Y-122671066D02*
X137111524Y-124099638D01*
X137111524Y-124099638D02*
X137587715Y-122099638D01*
X138349619Y-124099638D02*
X138349619Y-122099638D01*
X138349619Y-122099638D02*
X139016286Y-123528209D01*
X139016286Y-123528209D02*
X139682952Y-122099638D01*
X139682952Y-122099638D02*
X139682952Y-124099638D01*
X132778571Y-108564900D02*
X133921429Y-108564900D01*
X133350000Y-109136328D02*
X133350000Y-107993471D01*
X139390572Y-100016328D02*
X138676286Y-100016328D01*
X138676286Y-100016328D02*
X138604858Y-100730614D01*
X138604858Y-100730614D02*
X138676286Y-100659185D01*
X138676286Y-100659185D02*
X138819144Y-100587757D01*
X138819144Y-100587757D02*
X139176286Y-100587757D01*
X139176286Y-100587757D02*
X139319144Y-100659185D01*
X139319144Y-100659185D02*
X139390572Y-100730614D01*
X139390572Y-100730614D02*
X139462001Y-100873471D01*
X139462001Y-100873471D02*
X139462001Y-101230614D01*
X139462001Y-101230614D02*
X139390572Y-101373471D01*
X139390572Y-101373471D02*
X139319144Y-101444900D01*
X139319144Y-101444900D02*
X139176286Y-101516328D01*
X139176286Y-101516328D02*
X138819144Y-101516328D01*
X138819144Y-101516328D02*
X138676286Y-101444900D01*
X138676286Y-101444900D02*
X138604858Y-101373471D01*
X140819143Y-100016328D02*
X140104857Y-100016328D01*
X140104857Y-100016328D02*
X140033429Y-100730614D01*
X140033429Y-100730614D02*
X140104857Y-100659185D01*
X140104857Y-100659185D02*
X140247715Y-100587757D01*
X140247715Y-100587757D02*
X140604857Y-100587757D01*
X140604857Y-100587757D02*
X140747715Y-100659185D01*
X140747715Y-100659185D02*
X140819143Y-100730614D01*
X140819143Y-100730614D02*
X140890572Y-100873471D01*
X140890572Y-100873471D02*
X140890572Y-101230614D01*
X140890572Y-101230614D02*
X140819143Y-101373471D01*
X140819143Y-101373471D02*
X140747715Y-101444900D01*
X140747715Y-101444900D02*
X140604857Y-101516328D01*
X140604857Y-101516328D02*
X140247715Y-101516328D01*
X140247715Y-101516328D02*
X140104857Y-101444900D01*
X140104857Y-101444900D02*
X140033429Y-101373471D01*
X142247714Y-100016328D02*
X141533428Y-100016328D01*
X141533428Y-100016328D02*
X141462000Y-100730614D01*
X141462000Y-100730614D02*
X141533428Y-100659185D01*
X141533428Y-100659185D02*
X141676286Y-100587757D01*
X141676286Y-100587757D02*
X142033428Y-100587757D01*
X142033428Y-100587757D02*
X142176286Y-100659185D01*
X142176286Y-100659185D02*
X142247714Y-100730614D01*
X142247714Y-100730614D02*
X142319143Y-100873471D01*
X142319143Y-100873471D02*
X142319143Y-101230614D01*
X142319143Y-101230614D02*
X142247714Y-101373471D01*
X142247714Y-101373471D02*
X142176286Y-101444900D01*
X142176286Y-101444900D02*
X142033428Y-101516328D01*
X142033428Y-101516328D02*
X141676286Y-101516328D01*
X141676286Y-101516328D02*
X141533428Y-101444900D01*
X141533428Y-101444900D02*
X141462000Y-101373471D01*
X122526900Y-97297142D02*
X122598328Y-97082857D01*
X122598328Y-97082857D02*
X122598328Y-96725714D01*
X122598328Y-96725714D02*
X122526900Y-96582857D01*
X122526900Y-96582857D02*
X122455471Y-96511428D01*
X122455471Y-96511428D02*
X122312614Y-96439999D01*
X122312614Y-96439999D02*
X122169757Y-96439999D01*
X122169757Y-96439999D02*
X122026900Y-96511428D01*
X122026900Y-96511428D02*
X121955471Y-96582857D01*
X121955471Y-96582857D02*
X121884042Y-96725714D01*
X121884042Y-96725714D02*
X121812614Y-97011428D01*
X121812614Y-97011428D02*
X121741185Y-97154285D01*
X121741185Y-97154285D02*
X121669757Y-97225714D01*
X121669757Y-97225714D02*
X121526900Y-97297142D01*
X121526900Y-97297142D02*
X121384042Y-97297142D01*
X121384042Y-97297142D02*
X121241185Y-97225714D01*
X121241185Y-97225714D02*
X121169757Y-97154285D01*
X121169757Y-97154285D02*
X121098328Y-97011428D01*
X121098328Y-97011428D02*
X121098328Y-96654285D01*
X121098328Y-96654285D02*
X121169757Y-96439999D01*
X122598328Y-95154286D02*
X121812614Y-95154286D01*
X121812614Y-95154286D02*
X121669757Y-95225714D01*
X121669757Y-95225714D02*
X121598328Y-95368571D01*
X121598328Y-95368571D02*
X121598328Y-95654286D01*
X121598328Y-95654286D02*
X121669757Y-95797143D01*
X122526900Y-95154286D02*
X122598328Y-95297143D01*
X122598328Y-95297143D02*
X122598328Y-95654286D01*
X122598328Y-95654286D02*
X122526900Y-95797143D01*
X122526900Y-95797143D02*
X122384042Y-95868571D01*
X122384042Y-95868571D02*
X122241185Y-95868571D01*
X122241185Y-95868571D02*
X122098328Y-95797143D01*
X122098328Y-95797143D02*
X122026900Y-95654286D01*
X122026900Y-95654286D02*
X122026900Y-95297143D01*
X122026900Y-95297143D02*
X121955471Y-95154286D01*
X122598328Y-94440000D02*
X121598328Y-94440000D01*
X121026900Y-94297143D02*
X121241185Y-94511428D01*
X122598328Y-93082857D02*
X121098328Y-93082857D01*
X122526900Y-93082857D02*
X122598328Y-93225714D01*
X122598328Y-93225714D02*
X122598328Y-93511428D01*
X122598328Y-93511428D02*
X122526900Y-93654285D01*
X122526900Y-93654285D02*
X122455471Y-93725714D01*
X122455471Y-93725714D02*
X122312614Y-93797142D01*
X122312614Y-93797142D02*
X121884042Y-93797142D01*
X121884042Y-93797142D02*
X121741185Y-93725714D01*
X121741185Y-93725714D02*
X121669757Y-93654285D01*
X121669757Y-93654285D02*
X121598328Y-93511428D01*
X121598328Y-93511428D02*
X121598328Y-93225714D01*
X121598328Y-93225714D02*
X121669757Y-93082857D01*
X122598328Y-91725714D02*
X121812614Y-91725714D01*
X121812614Y-91725714D02*
X121669757Y-91797142D01*
X121669757Y-91797142D02*
X121598328Y-91939999D01*
X121598328Y-91939999D02*
X121598328Y-92225714D01*
X121598328Y-92225714D02*
X121669757Y-92368571D01*
X122526900Y-91725714D02*
X122598328Y-91868571D01*
X122598328Y-91868571D02*
X122598328Y-92225714D01*
X122598328Y-92225714D02*
X122526900Y-92368571D01*
X122526900Y-92368571D02*
X122384042Y-92439999D01*
X122384042Y-92439999D02*
X122241185Y-92439999D01*
X122241185Y-92439999D02*
X122098328Y-92368571D01*
X122098328Y-92368571D02*
X122026900Y-92225714D01*
X122026900Y-92225714D02*
X122026900Y-91868571D01*
X122026900Y-91868571D02*
X121955471Y-91725714D01*
X122598328Y-89868571D02*
X121098328Y-89868571D01*
X121098328Y-89868571D02*
X121098328Y-89297142D01*
X121098328Y-89297142D02*
X121169757Y-89154285D01*
X121169757Y-89154285D02*
X121241185Y-89082856D01*
X121241185Y-89082856D02*
X121384042Y-89011428D01*
X121384042Y-89011428D02*
X121598328Y-89011428D01*
X121598328Y-89011428D02*
X121741185Y-89082856D01*
X121741185Y-89082856D02*
X121812614Y-89154285D01*
X121812614Y-89154285D02*
X121884042Y-89297142D01*
X121884042Y-89297142D02*
X121884042Y-89868571D01*
X121098328Y-88511428D02*
X122598328Y-88154285D01*
X122598328Y-88154285D02*
X121526900Y-87868571D01*
X121526900Y-87868571D02*
X122598328Y-87582856D01*
X122598328Y-87582856D02*
X121098328Y-87225714D01*
X122598328Y-86654285D02*
X121098328Y-86654285D01*
X121098328Y-86654285D02*
X122169757Y-86154285D01*
X122169757Y-86154285D02*
X121098328Y-85654285D01*
X121098328Y-85654285D02*
X122598328Y-85654285D01*
X159523757Y-91566856D02*
X159452328Y-91709714D01*
X159452328Y-91709714D02*
X159452328Y-91923999D01*
X159452328Y-91923999D02*
X159523757Y-92138285D01*
X159523757Y-92138285D02*
X159666614Y-92281142D01*
X159666614Y-92281142D02*
X159809471Y-92352571D01*
X159809471Y-92352571D02*
X160095185Y-92423999D01*
X160095185Y-92423999D02*
X160309471Y-92423999D01*
X160309471Y-92423999D02*
X160595185Y-92352571D01*
X160595185Y-92352571D02*
X160738042Y-92281142D01*
X160738042Y-92281142D02*
X160880900Y-92138285D01*
X160880900Y-92138285D02*
X160952328Y-91923999D01*
X160952328Y-91923999D02*
X160952328Y-91781142D01*
X160952328Y-91781142D02*
X160880900Y-91566856D01*
X160880900Y-91566856D02*
X160809471Y-91495428D01*
X160809471Y-91495428D02*
X160309471Y-91495428D01*
X160309471Y-91495428D02*
X160309471Y-91781142D01*
X160952328Y-90852571D02*
X159452328Y-90852571D01*
X159452328Y-90852571D02*
X160952328Y-89995428D01*
X160952328Y-89995428D02*
X159452328Y-89995428D01*
X160952328Y-89281142D02*
X159452328Y-89281142D01*
X159452328Y-89281142D02*
X159452328Y-88923999D01*
X159452328Y-88923999D02*
X159523757Y-88709713D01*
X159523757Y-88709713D02*
X159666614Y-88566856D01*
X159666614Y-88566856D02*
X159809471Y-88495427D01*
X159809471Y-88495427D02*
X160095185Y-88423999D01*
X160095185Y-88423999D02*
X160309471Y-88423999D01*
X160309471Y-88423999D02*
X160595185Y-88495427D01*
X160595185Y-88495427D02*
X160738042Y-88566856D01*
X160738042Y-88566856D02*
X160880900Y-88709713D01*
X160880900Y-88709713D02*
X160952328Y-88923999D01*
X160952328Y-88923999D02*
X160952328Y-89281142D01*
X134885757Y-90804856D02*
X134814328Y-90947714D01*
X134814328Y-90947714D02*
X134814328Y-91161999D01*
X134814328Y-91161999D02*
X134885757Y-91376285D01*
X134885757Y-91376285D02*
X135028614Y-91519142D01*
X135028614Y-91519142D02*
X135171471Y-91590571D01*
X135171471Y-91590571D02*
X135457185Y-91661999D01*
X135457185Y-91661999D02*
X135671471Y-91661999D01*
X135671471Y-91661999D02*
X135957185Y-91590571D01*
X135957185Y-91590571D02*
X136100042Y-91519142D01*
X136100042Y-91519142D02*
X136242900Y-91376285D01*
X136242900Y-91376285D02*
X136314328Y-91161999D01*
X136314328Y-91161999D02*
X136314328Y-91019142D01*
X136314328Y-91019142D02*
X136242900Y-90804856D01*
X136242900Y-90804856D02*
X136171471Y-90733428D01*
X136171471Y-90733428D02*
X135671471Y-90733428D01*
X135671471Y-90733428D02*
X135671471Y-91019142D01*
X136314328Y-90090571D02*
X134814328Y-90090571D01*
X134814328Y-90090571D02*
X136314328Y-89233428D01*
X136314328Y-89233428D02*
X134814328Y-89233428D01*
X136314328Y-88519142D02*
X134814328Y-88519142D01*
X134814328Y-88519142D02*
X134814328Y-88161999D01*
X134814328Y-88161999D02*
X134885757Y-87947713D01*
X134885757Y-87947713D02*
X135028614Y-87804856D01*
X135028614Y-87804856D02*
X135171471Y-87733427D01*
X135171471Y-87733427D02*
X135457185Y-87661999D01*
X135457185Y-87661999D02*
X135671471Y-87661999D01*
X135671471Y-87661999D02*
X135957185Y-87733427D01*
X135957185Y-87733427D02*
X136100042Y-87804856D01*
X136100042Y-87804856D02*
X136242900Y-87947713D01*
X136242900Y-87947713D02*
X136314328Y-88161999D01*
X136314328Y-88161999D02*
X136314328Y-88519142D01*
X141883143Y-92054900D02*
X143026001Y-92054900D01*
X142454572Y-92626328D02*
X142454572Y-91483471D01*
X144526001Y-92626328D02*
X143668858Y-92626328D01*
X144097429Y-92626328D02*
X144097429Y-91126328D01*
X144097429Y-91126328D02*
X143954572Y-91340614D01*
X143954572Y-91340614D02*
X143811715Y-91483471D01*
X143811715Y-91483471D02*
X143668858Y-91554900D01*
X145097429Y-91269185D02*
X145168857Y-91197757D01*
X145168857Y-91197757D02*
X145311715Y-91126328D01*
X145311715Y-91126328D02*
X145668857Y-91126328D01*
X145668857Y-91126328D02*
X145811715Y-91197757D01*
X145811715Y-91197757D02*
X145883143Y-91269185D01*
X145883143Y-91269185D02*
X145954572Y-91412042D01*
X145954572Y-91412042D02*
X145954572Y-91554900D01*
X145954572Y-91554900D02*
X145883143Y-91769185D01*
X145883143Y-91769185D02*
X145026000Y-92626328D01*
X145026000Y-92626328D02*
X145954572Y-92626328D01*
X146383143Y-91126328D02*
X146883143Y-92626328D01*
X146883143Y-92626328D02*
X147383143Y-91126328D01*
X144538000Y-90340328D02*
X144538000Y-89554614D01*
X144538000Y-89554614D02*
X144466571Y-89411757D01*
X144466571Y-89411757D02*
X144323714Y-89340328D01*
X144323714Y-89340328D02*
X144038000Y-89340328D01*
X144038000Y-89340328D02*
X143895142Y-89411757D01*
X144538000Y-90268900D02*
X144395142Y-90340328D01*
X144395142Y-90340328D02*
X144038000Y-90340328D01*
X144038000Y-90340328D02*
X143895142Y-90268900D01*
X143895142Y-90268900D02*
X143823714Y-90126042D01*
X143823714Y-90126042D02*
X143823714Y-89983185D01*
X143823714Y-89983185D02*
X143895142Y-89840328D01*
X143895142Y-89840328D02*
X144038000Y-89768900D01*
X144038000Y-89768900D02*
X144395142Y-89768900D01*
X144395142Y-89768900D02*
X144538000Y-89697471D01*
X145038000Y-89340328D02*
X145609428Y-89340328D01*
X145252285Y-88840328D02*
X145252285Y-90126042D01*
X145252285Y-90126042D02*
X145323714Y-90268900D01*
X145323714Y-90268900D02*
X145466571Y-90340328D01*
X145466571Y-90340328D02*
X145609428Y-90340328D01*
X146680857Y-90268900D02*
X146538000Y-90340328D01*
X146538000Y-90340328D02*
X146252286Y-90340328D01*
X146252286Y-90340328D02*
X146109428Y-90268900D01*
X146109428Y-90268900D02*
X146038000Y-90126042D01*
X146038000Y-90126042D02*
X146038000Y-89554614D01*
X146038000Y-89554614D02*
X146109428Y-89411757D01*
X146109428Y-89411757D02*
X146252286Y-89340328D01*
X146252286Y-89340328D02*
X146538000Y-89340328D01*
X146538000Y-89340328D02*
X146680857Y-89411757D01*
X146680857Y-89411757D02*
X146752286Y-89554614D01*
X146752286Y-89554614D02*
X146752286Y-89697471D01*
X146752286Y-89697471D02*
X146038000Y-89840328D01*
X146538000Y-88768900D02*
X146323714Y-88983185D01*
X143105428Y-87482900D02*
X144248286Y-87482900D01*
X143676857Y-88054328D02*
X143676857Y-86911471D01*
X145034000Y-88054328D02*
X145319714Y-88054328D01*
X145319714Y-88054328D02*
X145462571Y-87982900D01*
X145462571Y-87982900D02*
X145534000Y-87911471D01*
X145534000Y-87911471D02*
X145676857Y-87697185D01*
X145676857Y-87697185D02*
X145748286Y-87411471D01*
X145748286Y-87411471D02*
X145748286Y-86840042D01*
X145748286Y-86840042D02*
X145676857Y-86697185D01*
X145676857Y-86697185D02*
X145605429Y-86625757D01*
X145605429Y-86625757D02*
X145462571Y-86554328D01*
X145462571Y-86554328D02*
X145176857Y-86554328D01*
X145176857Y-86554328D02*
X145034000Y-86625757D01*
X145034000Y-86625757D02*
X144962571Y-86697185D01*
X144962571Y-86697185D02*
X144891143Y-86840042D01*
X144891143Y-86840042D02*
X144891143Y-87197185D01*
X144891143Y-87197185D02*
X144962571Y-87340042D01*
X144962571Y-87340042D02*
X145034000Y-87411471D01*
X145034000Y-87411471D02*
X145176857Y-87482900D01*
X145176857Y-87482900D02*
X145462571Y-87482900D01*
X145462571Y-87482900D02*
X145605429Y-87411471D01*
X145605429Y-87411471D02*
X145676857Y-87340042D01*
X145676857Y-87340042D02*
X145748286Y-87197185D01*
X146176857Y-86554328D02*
X146676857Y-88054328D01*
X146676857Y-88054328D02*
X147176857Y-86554328D01*
X123988856Y-130448614D02*
X123488856Y-130448614D01*
X123488856Y-131234328D02*
X123488856Y-129734328D01*
X123488856Y-129734328D02*
X124203142Y-129734328D01*
X124774570Y-131234328D02*
X124774570Y-130234328D01*
X124774570Y-130520042D02*
X124845999Y-130377185D01*
X124845999Y-130377185D02*
X124917428Y-130305757D01*
X124917428Y-130305757D02*
X125060285Y-130234328D01*
X125060285Y-130234328D02*
X125203142Y-130234328D01*
X125703141Y-131234328D02*
X125703141Y-130234328D01*
X125703141Y-129734328D02*
X125631713Y-129805757D01*
X125631713Y-129805757D02*
X125703141Y-129877185D01*
X125703141Y-129877185D02*
X125774570Y-129805757D01*
X125774570Y-129805757D02*
X125703141Y-129734328D01*
X125703141Y-129734328D02*
X125703141Y-129877185D01*
X126203142Y-130234328D02*
X126774570Y-130234328D01*
X126417427Y-129734328D02*
X126417427Y-131020042D01*
X126417427Y-131020042D02*
X126488856Y-131162900D01*
X126488856Y-131162900D02*
X126631713Y-131234328D01*
X126631713Y-131234328D02*
X126774570Y-131234328D01*
X127131713Y-130234328D02*
X127917428Y-130234328D01*
X127917428Y-130234328D02*
X127131713Y-131234328D01*
X127131713Y-131234328D02*
X127917428Y-131234328D01*
X129060285Y-131162900D02*
X128917428Y-131234328D01*
X128917428Y-131234328D02*
X128631714Y-131234328D01*
X128631714Y-131234328D02*
X128488856Y-131162900D01*
X128488856Y-131162900D02*
X128417428Y-131020042D01*
X128417428Y-131020042D02*
X128417428Y-130448614D01*
X128417428Y-130448614D02*
X128488856Y-130305757D01*
X128488856Y-130305757D02*
X128631714Y-130234328D01*
X128631714Y-130234328D02*
X128917428Y-130234328D01*
X128917428Y-130234328D02*
X129060285Y-130305757D01*
X129060285Y-130305757D02*
X129131714Y-130448614D01*
X129131714Y-130448614D02*
X129131714Y-130591471D01*
X129131714Y-130591471D02*
X128417428Y-130734328D01*
X129774570Y-130234328D02*
X129774570Y-131234328D01*
X129774570Y-130377185D02*
X129845999Y-130305757D01*
X129845999Y-130305757D02*
X129988856Y-130234328D01*
X129988856Y-130234328D02*
X130203142Y-130234328D01*
X130203142Y-130234328D02*
X130345999Y-130305757D01*
X130345999Y-130305757D02*
X130417428Y-130448614D01*
X130417428Y-130448614D02*
X130417428Y-131234328D01*
X131845999Y-131234328D02*
X131131713Y-131234328D01*
X131131713Y-131234328D02*
X131131713Y-129734328D01*
X132988857Y-131234328D02*
X132988857Y-130448614D01*
X132988857Y-130448614D02*
X132917428Y-130305757D01*
X132917428Y-130305757D02*
X132774571Y-130234328D01*
X132774571Y-130234328D02*
X132488857Y-130234328D01*
X132488857Y-130234328D02*
X132345999Y-130305757D01*
X132988857Y-131162900D02*
X132845999Y-131234328D01*
X132845999Y-131234328D02*
X132488857Y-131234328D01*
X132488857Y-131234328D02*
X132345999Y-131162900D01*
X132345999Y-131162900D02*
X132274571Y-131020042D01*
X132274571Y-131020042D02*
X132274571Y-130877185D01*
X132274571Y-130877185D02*
X132345999Y-130734328D01*
X132345999Y-130734328D02*
X132488857Y-130662900D01*
X132488857Y-130662900D02*
X132845999Y-130662900D01*
X132845999Y-130662900D02*
X132988857Y-130591471D01*
X133703142Y-131234328D02*
X133703142Y-129734328D01*
X133703142Y-130305757D02*
X133846000Y-130234328D01*
X133846000Y-130234328D02*
X134131714Y-130234328D01*
X134131714Y-130234328D02*
X134274571Y-130305757D01*
X134274571Y-130305757D02*
X134346000Y-130377185D01*
X134346000Y-130377185D02*
X134417428Y-130520042D01*
X134417428Y-130520042D02*
X134417428Y-130948614D01*
X134417428Y-130948614D02*
X134346000Y-131091471D01*
X134346000Y-131091471D02*
X134274571Y-131162900D01*
X134274571Y-131162900D02*
X134131714Y-131234328D01*
X134131714Y-131234328D02*
X133846000Y-131234328D01*
X133846000Y-131234328D02*
X133703142Y-131162900D01*
X135060285Y-131091471D02*
X135131714Y-131162900D01*
X135131714Y-131162900D02*
X135060285Y-131234328D01*
X135060285Y-131234328D02*
X134988857Y-131162900D01*
X134988857Y-131162900D02*
X135060285Y-131091471D01*
X135060285Y-131091471D02*
X135060285Y-131234328D01*
X136417429Y-131162900D02*
X136274571Y-131234328D01*
X136274571Y-131234328D02*
X135988857Y-131234328D01*
X135988857Y-131234328D02*
X135846000Y-131162900D01*
X135846000Y-131162900D02*
X135774571Y-131091471D01*
X135774571Y-131091471D02*
X135703143Y-130948614D01*
X135703143Y-130948614D02*
X135703143Y-130520042D01*
X135703143Y-130520042D02*
X135774571Y-130377185D01*
X135774571Y-130377185D02*
X135846000Y-130305757D01*
X135846000Y-130305757D02*
X135988857Y-130234328D01*
X135988857Y-130234328D02*
X136274571Y-130234328D01*
X136274571Y-130234328D02*
X136417429Y-130305757D01*
X137274571Y-131234328D02*
X137131714Y-131162900D01*
X137131714Y-131162900D02*
X137060285Y-131091471D01*
X137060285Y-131091471D02*
X136988857Y-130948614D01*
X136988857Y-130948614D02*
X136988857Y-130520042D01*
X136988857Y-130520042D02*
X137060285Y-130377185D01*
X137060285Y-130377185D02*
X137131714Y-130305757D01*
X137131714Y-130305757D02*
X137274571Y-130234328D01*
X137274571Y-130234328D02*
X137488857Y-130234328D01*
X137488857Y-130234328D02*
X137631714Y-130305757D01*
X137631714Y-130305757D02*
X137703143Y-130377185D01*
X137703143Y-130377185D02*
X137774571Y-130520042D01*
X137774571Y-130520042D02*
X137774571Y-130948614D01*
X137774571Y-130948614D02*
X137703143Y-131091471D01*
X137703143Y-131091471D02*
X137631714Y-131162900D01*
X137631714Y-131162900D02*
X137488857Y-131234328D01*
X137488857Y-131234328D02*
X137274571Y-131234328D01*
X138417428Y-131234328D02*
X138417428Y-130234328D01*
X138417428Y-130377185D02*
X138488857Y-130305757D01*
X138488857Y-130305757D02*
X138631714Y-130234328D01*
X138631714Y-130234328D02*
X138846000Y-130234328D01*
X138846000Y-130234328D02*
X138988857Y-130305757D01*
X138988857Y-130305757D02*
X139060286Y-130448614D01*
X139060286Y-130448614D02*
X139060286Y-131234328D01*
X139060286Y-130448614D02*
X139131714Y-130305757D01*
X139131714Y-130305757D02*
X139274571Y-130234328D01*
X139274571Y-130234328D02*
X139488857Y-130234328D01*
X139488857Y-130234328D02*
X139631714Y-130305757D01*
X139631714Y-130305757D02*
X139703143Y-130448614D01*
X139703143Y-130448614D02*
X139703143Y-131234328D01*
X140417428Y-131091471D02*
X140488857Y-131162900D01*
X140488857Y-131162900D02*
X140417428Y-131234328D01*
X140417428Y-131234328D02*
X140346000Y-131162900D01*
X140346000Y-131162900D02*
X140417428Y-131091471D01*
X140417428Y-131091471D02*
X140417428Y-131234328D01*
X141131714Y-131234328D02*
X141131714Y-129734328D01*
X141131714Y-130305757D02*
X141274572Y-130234328D01*
X141274572Y-130234328D02*
X141560286Y-130234328D01*
X141560286Y-130234328D02*
X141703143Y-130305757D01*
X141703143Y-130305757D02*
X141774572Y-130377185D01*
X141774572Y-130377185D02*
X141846000Y-130520042D01*
X141846000Y-130520042D02*
X141846000Y-130948614D01*
X141846000Y-130948614D02*
X141774572Y-131091471D01*
X141774572Y-131091471D02*
X141703143Y-131162900D01*
X141703143Y-131162900D02*
X141560286Y-131234328D01*
X141560286Y-131234328D02*
X141274572Y-131234328D01*
X141274572Y-131234328D02*
X141131714Y-131162900D01*
X142488857Y-131234328D02*
X142488857Y-130234328D01*
X142488857Y-130520042D02*
X142560286Y-130377185D01*
X142560286Y-130377185D02*
X142631715Y-130305757D01*
X142631715Y-130305757D02*
X142774572Y-130234328D01*
X142774572Y-130234328D02*
X142917429Y-130234328D01*
D11*
X164454819Y-126395238D02*
X163978628Y-126728571D01*
X164454819Y-126966666D02*
X163454819Y-126966666D01*
X163454819Y-126966666D02*
X163454819Y-126585714D01*
X163454819Y-126585714D02*
X163502438Y-126490476D01*
X163502438Y-126490476D02*
X163550057Y-126442857D01*
X163550057Y-126442857D02*
X163645295Y-126395238D01*
X163645295Y-126395238D02*
X163788152Y-126395238D01*
X163788152Y-126395238D02*
X163883390Y-126442857D01*
X163883390Y-126442857D02*
X163931009Y-126490476D01*
X163931009Y-126490476D02*
X163978628Y-126585714D01*
X163978628Y-126585714D02*
X163978628Y-126966666D01*
X163454819Y-126109523D02*
X164454819Y-125776190D01*
X164454819Y-125776190D02*
X163454819Y-125442857D01*
X164454819Y-124585714D02*
X164454819Y-125157142D01*
X164454819Y-124871428D02*
X163454819Y-124871428D01*
X163454819Y-124871428D02*
X163597676Y-124966666D01*
X163597676Y-124966666D02*
X163692914Y-125061904D01*
X163692914Y-125061904D02*
X163740533Y-125157142D01*
X146986666Y-94196819D02*
X146986666Y-94911104D01*
X146986666Y-94911104D02*
X146939047Y-95053961D01*
X146939047Y-95053961D02*
X146843809Y-95149200D01*
X146843809Y-95149200D02*
X146700952Y-95196819D01*
X146700952Y-95196819D02*
X146605714Y-95196819D01*
X147415238Y-94292057D02*
X147462857Y-94244438D01*
X147462857Y-94244438D02*
X147558095Y-94196819D01*
X147558095Y-94196819D02*
X147796190Y-94196819D01*
X147796190Y-94196819D02*
X147891428Y-94244438D01*
X147891428Y-94244438D02*
X147939047Y-94292057D01*
X147939047Y-94292057D02*
X147986666Y-94387295D01*
X147986666Y-94387295D02*
X147986666Y-94482533D01*
X147986666Y-94482533D02*
X147939047Y-94625390D01*
X147939047Y-94625390D02*
X147367619Y-95196819D01*
X147367619Y-95196819D02*
X147986666Y-95196819D01*
X133016666Y-93942819D02*
X133016666Y-94657104D01*
X133016666Y-94657104D02*
X132969047Y-94799961D01*
X132969047Y-94799961D02*
X132873809Y-94895200D01*
X132873809Y-94895200D02*
X132730952Y-94942819D01*
X132730952Y-94942819D02*
X132635714Y-94942819D01*
X134016666Y-94942819D02*
X133445238Y-94942819D01*
X133730952Y-94942819D02*
X133730952Y-93942819D01*
X133730952Y-93942819D02*
X133635714Y-94085676D01*
X133635714Y-94085676D02*
X133540476Y-94180914D01*
X133540476Y-94180914D02*
X133445238Y-94228533D01*
X140823333Y-118941580D02*
X140775714Y-118989200D01*
X140775714Y-118989200D02*
X140632857Y-119036819D01*
X140632857Y-119036819D02*
X140537619Y-119036819D01*
X140537619Y-119036819D02*
X140394762Y-118989200D01*
X140394762Y-118989200D02*
X140299524Y-118893961D01*
X140299524Y-118893961D02*
X140251905Y-118798723D01*
X140251905Y-118798723D02*
X140204286Y-118608247D01*
X140204286Y-118608247D02*
X140204286Y-118465390D01*
X140204286Y-118465390D02*
X140251905Y-118274914D01*
X140251905Y-118274914D02*
X140299524Y-118179676D01*
X140299524Y-118179676D02*
X140394762Y-118084438D01*
X140394762Y-118084438D02*
X140537619Y-118036819D01*
X140537619Y-118036819D02*
X140632857Y-118036819D01*
X140632857Y-118036819D02*
X140775714Y-118084438D01*
X140775714Y-118084438D02*
X140823333Y-118132057D01*
X141204286Y-118132057D02*
X141251905Y-118084438D01*
X141251905Y-118084438D02*
X141347143Y-118036819D01*
X141347143Y-118036819D02*
X141585238Y-118036819D01*
X141585238Y-118036819D02*
X141680476Y-118084438D01*
X141680476Y-118084438D02*
X141728095Y-118132057D01*
X141728095Y-118132057D02*
X141775714Y-118227295D01*
X141775714Y-118227295D02*
X141775714Y-118322533D01*
X141775714Y-118322533D02*
X141728095Y-118465390D01*
X141728095Y-118465390D02*
X141156667Y-119036819D01*
X141156667Y-119036819D02*
X141775714Y-119036819D01*
X133183333Y-102721580D02*
X133135714Y-102769200D01*
X133135714Y-102769200D02*
X132992857Y-102816819D01*
X132992857Y-102816819D02*
X132897619Y-102816819D01*
X132897619Y-102816819D02*
X132754762Y-102769200D01*
X132754762Y-102769200D02*
X132659524Y-102673961D01*
X132659524Y-102673961D02*
X132611905Y-102578723D01*
X132611905Y-102578723D02*
X132564286Y-102388247D01*
X132564286Y-102388247D02*
X132564286Y-102245390D01*
X132564286Y-102245390D02*
X132611905Y-102054914D01*
X132611905Y-102054914D02*
X132659524Y-101959676D01*
X132659524Y-101959676D02*
X132754762Y-101864438D01*
X132754762Y-101864438D02*
X132897619Y-101816819D01*
X132897619Y-101816819D02*
X132992857Y-101816819D01*
X132992857Y-101816819D02*
X133135714Y-101864438D01*
X133135714Y-101864438D02*
X133183333Y-101912057D01*
X134135714Y-102816819D02*
X133564286Y-102816819D01*
X133850000Y-102816819D02*
X133850000Y-101816819D01*
X133850000Y-101816819D02*
X133754762Y-101959676D01*
X133754762Y-101959676D02*
X133659524Y-102054914D01*
X133659524Y-102054914D02*
X133564286Y-102102533D01*
X155217905Y-105426819D02*
X155217905Y-104426819D01*
X155217905Y-104426819D02*
X155456000Y-104426819D01*
X155456000Y-104426819D02*
X155598857Y-104474438D01*
X155598857Y-104474438D02*
X155694095Y-104569676D01*
X155694095Y-104569676D02*
X155741714Y-104664914D01*
X155741714Y-104664914D02*
X155789333Y-104855390D01*
X155789333Y-104855390D02*
X155789333Y-104998247D01*
X155789333Y-104998247D02*
X155741714Y-105188723D01*
X155741714Y-105188723D02*
X155694095Y-105283961D01*
X155694095Y-105283961D02*
X155598857Y-105379200D01*
X155598857Y-105379200D02*
X155456000Y-105426819D01*
X155456000Y-105426819D02*
X155217905Y-105426819D01*
X156170286Y-104522057D02*
X156217905Y-104474438D01*
X156217905Y-104474438D02*
X156313143Y-104426819D01*
X156313143Y-104426819D02*
X156551238Y-104426819D01*
X156551238Y-104426819D02*
X156646476Y-104474438D01*
X156646476Y-104474438D02*
X156694095Y-104522057D01*
X156694095Y-104522057D02*
X156741714Y-104617295D01*
X156741714Y-104617295D02*
X156741714Y-104712533D01*
X156741714Y-104712533D02*
X156694095Y-104855390D01*
X156694095Y-104855390D02*
X156122667Y-105426819D01*
X156122667Y-105426819D02*
X156741714Y-105426819D01*
X150614095Y-105796819D02*
X150614095Y-104796819D01*
X151185523Y-105796819D02*
X150756952Y-105225390D01*
X151185523Y-104796819D02*
X150614095Y-105368247D01*
X162583905Y-110690819D02*
X162583905Y-109690819D01*
X162583905Y-109690819D02*
X162822000Y-109690819D01*
X162822000Y-109690819D02*
X162964857Y-109738438D01*
X162964857Y-109738438D02*
X163060095Y-109833676D01*
X163060095Y-109833676D02*
X163107714Y-109928914D01*
X163107714Y-109928914D02*
X163155333Y-110119390D01*
X163155333Y-110119390D02*
X163155333Y-110262247D01*
X163155333Y-110262247D02*
X163107714Y-110452723D01*
X163107714Y-110452723D02*
X163060095Y-110547961D01*
X163060095Y-110547961D02*
X162964857Y-110643200D01*
X162964857Y-110643200D02*
X162822000Y-110690819D01*
X162822000Y-110690819D02*
X162583905Y-110690819D01*
X164107714Y-110690819D02*
X163536286Y-110690819D01*
X163822000Y-110690819D02*
X163822000Y-109690819D01*
X163822000Y-109690819D02*
X163726762Y-109833676D01*
X163726762Y-109833676D02*
X163631524Y-109928914D01*
X163631524Y-109928914D02*
X163536286Y-109976533D01*
X160774095Y-113552819D02*
X160774095Y-112552819D01*
X161345523Y-113552819D02*
X160916952Y-112981390D01*
X161345523Y-112552819D02*
X160774095Y-113124247D01*
X125753905Y-105356819D02*
X125753905Y-104356819D01*
X125753905Y-104356819D02*
X125992000Y-104356819D01*
X125992000Y-104356819D02*
X126134857Y-104404438D01*
X126134857Y-104404438D02*
X126230095Y-104499676D01*
X126230095Y-104499676D02*
X126277714Y-104594914D01*
X126277714Y-104594914D02*
X126325333Y-104785390D01*
X126325333Y-104785390D02*
X126325333Y-104928247D01*
X126325333Y-104928247D02*
X126277714Y-105118723D01*
X126277714Y-105118723D02*
X126230095Y-105213961D01*
X126230095Y-105213961D02*
X126134857Y-105309200D01*
X126134857Y-105309200D02*
X125992000Y-105356819D01*
X125992000Y-105356819D02*
X125753905Y-105356819D01*
X126658667Y-104356819D02*
X127277714Y-104356819D01*
X127277714Y-104356819D02*
X126944381Y-104737771D01*
X126944381Y-104737771D02*
X127087238Y-104737771D01*
X127087238Y-104737771D02*
X127182476Y-104785390D01*
X127182476Y-104785390D02*
X127230095Y-104833009D01*
X127230095Y-104833009D02*
X127277714Y-104928247D01*
X127277714Y-104928247D02*
X127277714Y-105166342D01*
X127277714Y-105166342D02*
X127230095Y-105261580D01*
X127230095Y-105261580D02*
X127182476Y-105309200D01*
X127182476Y-105309200D02*
X127087238Y-105356819D01*
X127087238Y-105356819D02*
X126801524Y-105356819D01*
X126801524Y-105356819D02*
X126706286Y-105309200D01*
X126706286Y-105309200D02*
X126658667Y-105261580D01*
X135890095Y-102070819D02*
X135890095Y-102880342D01*
X135890095Y-102880342D02*
X135937714Y-102975580D01*
X135937714Y-102975580D02*
X135985333Y-103023200D01*
X135985333Y-103023200D02*
X136080571Y-103070819D01*
X136080571Y-103070819D02*
X136271047Y-103070819D01*
X136271047Y-103070819D02*
X136366285Y-103023200D01*
X136366285Y-103023200D02*
X136413904Y-102975580D01*
X136413904Y-102975580D02*
X136461523Y-102880342D01*
X136461523Y-102880342D02*
X136461523Y-102070819D01*
X137461523Y-103070819D02*
X136890095Y-103070819D01*
X137175809Y-103070819D02*
X137175809Y-102070819D01*
X137175809Y-102070819D02*
X137080571Y-102213676D01*
X137080571Y-102213676D02*
X136985333Y-102308914D01*
X136985333Y-102308914D02*
X136890095Y-102356533D01*
X121499333Y-118310819D02*
X121166000Y-117834628D01*
X120927905Y-118310819D02*
X120927905Y-117310819D01*
X120927905Y-117310819D02*
X121308857Y-117310819D01*
X121308857Y-117310819D02*
X121404095Y-117358438D01*
X121404095Y-117358438D02*
X121451714Y-117406057D01*
X121451714Y-117406057D02*
X121499333Y-117501295D01*
X121499333Y-117501295D02*
X121499333Y-117644152D01*
X121499333Y-117644152D02*
X121451714Y-117739390D01*
X121451714Y-117739390D02*
X121404095Y-117787009D01*
X121404095Y-117787009D02*
X121308857Y-117834628D01*
X121308857Y-117834628D02*
X120927905Y-117834628D01*
X121832667Y-117310819D02*
X122451714Y-117310819D01*
X122451714Y-117310819D02*
X122118381Y-117691771D01*
X122118381Y-117691771D02*
X122261238Y-117691771D01*
X122261238Y-117691771D02*
X122356476Y-117739390D01*
X122356476Y-117739390D02*
X122404095Y-117787009D01*
X122404095Y-117787009D02*
X122451714Y-117882247D01*
X122451714Y-117882247D02*
X122451714Y-118120342D01*
X122451714Y-118120342D02*
X122404095Y-118215580D01*
X122404095Y-118215580D02*
X122356476Y-118263200D01*
X122356476Y-118263200D02*
X122261238Y-118310819D01*
X122261238Y-118310819D02*
X121975524Y-118310819D01*
X121975524Y-118310819D02*
X121880286Y-118263200D01*
X121880286Y-118263200D02*
X121832667Y-118215580D01*
X121499333Y-114754819D02*
X121166000Y-114278628D01*
X120927905Y-114754819D02*
X120927905Y-113754819D01*
X120927905Y-113754819D02*
X121308857Y-113754819D01*
X121308857Y-113754819D02*
X121404095Y-113802438D01*
X121404095Y-113802438D02*
X121451714Y-113850057D01*
X121451714Y-113850057D02*
X121499333Y-113945295D01*
X121499333Y-113945295D02*
X121499333Y-114088152D01*
X121499333Y-114088152D02*
X121451714Y-114183390D01*
X121451714Y-114183390D02*
X121404095Y-114231009D01*
X121404095Y-114231009D02*
X121308857Y-114278628D01*
X121308857Y-114278628D02*
X120927905Y-114278628D01*
X121880286Y-113850057D02*
X121927905Y-113802438D01*
X121927905Y-113802438D02*
X122023143Y-113754819D01*
X122023143Y-113754819D02*
X122261238Y-113754819D01*
X122261238Y-113754819D02*
X122356476Y-113802438D01*
X122356476Y-113802438D02*
X122404095Y-113850057D01*
X122404095Y-113850057D02*
X122451714Y-113945295D01*
X122451714Y-113945295D02*
X122451714Y-114040533D01*
X122451714Y-114040533D02*
X122404095Y-114183390D01*
X122404095Y-114183390D02*
X121832667Y-114754819D01*
X121832667Y-114754819D02*
X122451714Y-114754819D01*
X155789333Y-117378819D02*
X155456000Y-116902628D01*
X155217905Y-117378819D02*
X155217905Y-116378819D01*
X155217905Y-116378819D02*
X155598857Y-116378819D01*
X155598857Y-116378819D02*
X155694095Y-116426438D01*
X155694095Y-116426438D02*
X155741714Y-116474057D01*
X155741714Y-116474057D02*
X155789333Y-116569295D01*
X155789333Y-116569295D02*
X155789333Y-116712152D01*
X155789333Y-116712152D02*
X155741714Y-116807390D01*
X155741714Y-116807390D02*
X155694095Y-116855009D01*
X155694095Y-116855009D02*
X155598857Y-116902628D01*
X155598857Y-116902628D02*
X155217905Y-116902628D01*
X156741714Y-117378819D02*
X156170286Y-117378819D01*
X156456000Y-117378819D02*
X156456000Y-116378819D01*
X156456000Y-116378819D02*
X156360762Y-116521676D01*
X156360762Y-116521676D02*
X156265524Y-116616914D01*
X156265524Y-116616914D02*
X156170286Y-116664533D01*
D12*
X156920000Y-144720000D02*
X150680000Y-144720000D01*
X150680000Y-134720000D02*
X150680000Y-144720000D01*
X156920000Y-134720000D02*
X156920000Y-144720000D01*
X157420000Y-134720000D02*
X150180000Y-134720000D01*
X150180000Y-129720000D02*
X150180000Y-134720000D01*
X157420000Y-129720000D02*
X157420000Y-134720000D01*
X162870000Y-129720000D02*
X144730000Y-129720000D01*
X144730000Y-118980000D02*
X144730000Y-129720000D01*
X162870000Y-118980000D02*
X162870000Y-129720000D01*
X162870000Y-118980000D02*
X144730000Y-118980000D01*
X147836000Y-85574000D02*
X149836000Y-85574000D01*
X147836000Y-86824000D02*
X147836000Y-85574000D01*
X157456000Y-92574000D02*
X156706000Y-92574000D01*
X157456000Y-88274000D02*
X157456000Y-92574000D01*
X156706000Y-88274000D02*
X157456000Y-88274000D01*
X156706000Y-87924000D02*
X156706000Y-88274000D01*
X157206000Y-87924000D02*
X156706000Y-87924000D01*
X157456000Y-86924000D02*
X157206000Y-87924000D01*
X154456000Y-86924000D02*
X157456000Y-86924000D01*
X154706000Y-87924000D02*
X154456000Y-86924000D01*
X155206000Y-87924000D02*
X154706000Y-87924000D01*
X155206000Y-88274000D02*
X155206000Y-87924000D01*
X154456000Y-88274000D02*
X155206000Y-88274000D01*
X154456000Y-92574000D02*
X154456000Y-88274000D01*
X155206000Y-92574000D02*
X154456000Y-92574000D01*
X152376000Y-92574000D02*
X151626000Y-92574000D01*
X152376000Y-88274000D02*
X152376000Y-92574000D01*
X151626000Y-88274000D02*
X152376000Y-88274000D01*
X151626000Y-87924000D02*
X151626000Y-88274000D01*
X152126000Y-87924000D02*
X151626000Y-87924000D01*
X152376000Y-86924000D02*
X152126000Y-87924000D01*
X149376000Y-86924000D02*
X152376000Y-86924000D01*
X149626000Y-87924000D02*
X149376000Y-86924000D01*
X150126000Y-87924000D02*
X149626000Y-87924000D01*
X150126000Y-88274000D02*
X150126000Y-87924000D01*
X149376000Y-88274000D02*
X150126000Y-88274000D01*
X149376000Y-92574000D02*
X149376000Y-88274000D01*
X150126000Y-92574000D02*
X149376000Y-92574000D01*
X158606000Y-85964000D02*
X148226000Y-85964000D01*
X158606000Y-93434000D02*
X158606000Y-85964000D01*
X148226000Y-93434000D02*
X158606000Y-93434000D01*
X148226000Y-85964000D02*
X148226000Y-93434000D01*
X155206000Y-92574000D02*
G75*
G02*
X156705647Y-92573844I750000J-1700000D01*
G01*
X150126000Y-92574000D02*
G75*
G02*
X151625647Y-92573844I750000J-1700000D01*
G01*
X125234000Y-92574000D02*
G75*
G02*
X126733647Y-92573844I750000J-1700000D01*
G01*
X130314000Y-92574000D02*
G75*
G02*
X131813647Y-92573844I750000J-1700000D01*
G01*
X123334000Y-85964000D02*
X123334000Y-93434000D01*
X123334000Y-93434000D02*
X133714000Y-93434000D01*
X133714000Y-93434000D02*
X133714000Y-85964000D01*
X133714000Y-85964000D02*
X123334000Y-85964000D01*
X125234000Y-92574000D02*
X124484000Y-92574000D01*
X124484000Y-92574000D02*
X124484000Y-88274000D01*
X124484000Y-88274000D02*
X125234000Y-88274000D01*
X125234000Y-88274000D02*
X125234000Y-87924000D01*
X125234000Y-87924000D02*
X124734000Y-87924000D01*
X124734000Y-87924000D02*
X124484000Y-86924000D01*
X124484000Y-86924000D02*
X127484000Y-86924000D01*
X127484000Y-86924000D02*
X127234000Y-87924000D01*
X127234000Y-87924000D02*
X126734000Y-87924000D01*
X126734000Y-87924000D02*
X126734000Y-88274000D01*
X126734000Y-88274000D02*
X127484000Y-88274000D01*
X127484000Y-88274000D02*
X127484000Y-92574000D01*
X127484000Y-92574000D02*
X126734000Y-92574000D01*
X130314000Y-92574000D02*
X129564000Y-92574000D01*
X129564000Y-92574000D02*
X129564000Y-88274000D01*
X129564000Y-88274000D02*
X130314000Y-88274000D01*
X130314000Y-88274000D02*
X130314000Y-87924000D01*
X130314000Y-87924000D02*
X129814000Y-87924000D01*
X129814000Y-87924000D02*
X129564000Y-86924000D01*
X129564000Y-86924000D02*
X132564000Y-86924000D01*
X132564000Y-86924000D02*
X132314000Y-87924000D01*
X132314000Y-87924000D02*
X131814000Y-87924000D01*
X131814000Y-87924000D02*
X131814000Y-88274000D01*
X131814000Y-88274000D02*
X132564000Y-88274000D01*
X132564000Y-88274000D02*
X132564000Y-92574000D01*
X132564000Y-92574000D02*
X131814000Y-92574000D01*
X122944000Y-86824000D02*
X122944000Y-85574000D01*
X122944000Y-85574000D02*
X124944000Y-85574000D01*
X139370000Y-115277000D02*
X139370000Y-115212000D01*
X139370000Y-117452000D02*
X139370000Y-117387000D01*
X142610000Y-115277000D02*
X142610000Y-115212000D01*
X142610000Y-117452000D02*
X142610000Y-117387000D01*
X142610000Y-115212000D02*
X139370000Y-115212000D01*
X142610000Y-117452000D02*
X139370000Y-117452000D01*
X132230000Y-107050000D02*
X132230000Y-103810000D01*
X134470000Y-107050000D02*
X134470000Y-103810000D01*
X132230000Y-107050000D02*
X132295000Y-107050000D01*
X134405000Y-107050000D02*
X134470000Y-107050000D01*
X132230000Y-103810000D02*
X132295000Y-103810000D01*
X134405000Y-103810000D02*
X134470000Y-103810000D01*
X154016000Y-105972000D02*
X154016000Y-108912000D01*
X154256000Y-105972000D02*
X154256000Y-108912000D01*
X154136000Y-105972000D02*
X154136000Y-108912000D01*
X159696000Y-107442000D02*
X158676000Y-107442000D01*
X152216000Y-107442000D02*
X153236000Y-107442000D01*
X158676000Y-105972000D02*
X153236000Y-105972000D01*
X158676000Y-108912000D02*
X158676000Y-105972000D01*
X153236000Y-108912000D02*
X158676000Y-108912000D01*
X153236000Y-105972000D02*
X153236000Y-108912000D01*
X158676000Y-112468000D02*
X158676000Y-109528000D01*
X158676000Y-109528000D02*
X153236000Y-109528000D01*
X153236000Y-109528000D02*
X153236000Y-112468000D01*
X153236000Y-112468000D02*
X158676000Y-112468000D01*
X159696000Y-110998000D02*
X158676000Y-110998000D01*
X152216000Y-110998000D02*
X153236000Y-110998000D01*
X157776000Y-112468000D02*
X157776000Y-109528000D01*
X157656000Y-112468000D02*
X157656000Y-109528000D01*
X157896000Y-112468000D02*
X157896000Y-109528000D01*
X129053000Y-106152000D02*
X125963000Y-106152000D01*
X130008000Y-108712000D02*
G75*
G02*
X125008000Y-108712000I-2500000J0D01*
G01*
X125008000Y-108712000D02*
G75*
G02*
X130008000Y-108712000I2500000J0D01*
G01*
X129052830Y-106152000D02*
G75*
G02*
X127507538Y-111702000I-1544830J-2560000D01*
G01*
X127508462Y-111702000D02*
G75*
G02*
X125963170Y-106152000I-462J2990000D01*
G01*
X141970000Y-103572000D02*
G75*
G02*
X139970000Y-103572000I-1000000J0D01*
G01*
X139970000Y-103572000D02*
X138720000Y-103572000D01*
X138720000Y-103572000D02*
X138720000Y-113852000D01*
X138720000Y-113852000D02*
X143220000Y-113852000D01*
X143220000Y-113852000D02*
X143220000Y-103572000D01*
X143220000Y-103572000D02*
X141970000Y-103572000D01*
X135720000Y-103512000D02*
X135720000Y-113912000D01*
X135720000Y-113912000D02*
X146220000Y-113912000D01*
X146220000Y-113912000D02*
X146220000Y-103512000D01*
X146220000Y-103512000D02*
X135720000Y-103512000D01*
X132818000Y-118110000D02*
X132048000Y-118110000D01*
X124738000Y-118110000D02*
X125508000Y-118110000D01*
X132048000Y-116740000D02*
X125508000Y-116740000D01*
X132048000Y-119480000D02*
X132048000Y-116740000D01*
X125508000Y-119480000D02*
X132048000Y-119480000D01*
X125508000Y-116740000D02*
X125508000Y-119480000D01*
X132818000Y-114808000D02*
X132048000Y-114808000D01*
X124738000Y-114808000D02*
X125508000Y-114808000D01*
X132048000Y-113438000D02*
X125508000Y-113438000D01*
X132048000Y-116178000D02*
X132048000Y-113438000D01*
X125508000Y-116178000D02*
X132048000Y-116178000D01*
X125508000Y-113438000D02*
X125508000Y-116178000D01*
X159226000Y-115924000D02*
X159226000Y-113184000D01*
X159226000Y-113184000D02*
X152686000Y-113184000D01*
X152686000Y-113184000D02*
X152686000Y-115924000D01*
X152686000Y-115924000D02*
X159226000Y-115924000D01*
X159996000Y-114554000D02*
X159226000Y-114554000D01*
X151916000Y-114554000D02*
X152686000Y-114554000D01*
M02*
