G04 #@! TF.GenerationSoftware,KiCad,Pcbnew,8.0.6*
G04 #@! TF.CreationDate,2024-11-03T16:49:19-03:00*
G04 #@! TF.ProjectId,555-gerador-PWM-r01,3535352d-6765-4726-9164-6f722d50574d,rev?*
G04 #@! TF.SameCoordinates,Original*
G04 #@! TF.FileFunction,Soldermask,Bot*
G04 #@! TF.FilePolarity,Negative*
%FSLAX46Y46*%
G04 Gerber Fmt 4.6, Leading zero omitted, Abs format (unit mm)*
G04 Created by KiCad (PCBNEW 8.0.6) date 2024-11-03 16:49:19*
%MOMM*%
%LPD*%
G01*
G04 APERTURE LIST*
G04 APERTURE END LIST*
G36*
X153860940Y-124249000D02*
G01*
X153916231Y-124249000D01*
X153976647Y-124258106D01*
X154043380Y-124263358D01*
X154097167Y-124276271D01*
X154146096Y-124283646D01*
X154210039Y-124303369D01*
X154280767Y-124320350D01*
X154326493Y-124339290D01*
X154368235Y-124352166D01*
X154433768Y-124383725D01*
X154506317Y-124413776D01*
X154543559Y-124436597D01*
X154577672Y-124453026D01*
X154642561Y-124497267D01*
X154714474Y-124541335D01*
X154743267Y-124565927D01*
X154769745Y-124583979D01*
X154831570Y-124641344D01*
X154900114Y-124699886D01*
X154920927Y-124724255D01*
X154940155Y-124742096D01*
X154996367Y-124812585D01*
X155058665Y-124885526D01*
X155072367Y-124907886D01*
X155085090Y-124923840D01*
X155133066Y-125006937D01*
X155186224Y-125093683D01*
X155194032Y-125112535D01*
X155201320Y-125125157D01*
X155238486Y-125219855D01*
X155279650Y-125319233D01*
X155283054Y-125333412D01*
X155286248Y-125341550D01*
X155310168Y-125446351D01*
X155336642Y-125556620D01*
X155337328Y-125565345D01*
X155337978Y-125568190D01*
X155346448Y-125681230D01*
X155355796Y-125800000D01*
X155346448Y-125918779D01*
X155337978Y-126031809D01*
X155337328Y-126034653D01*
X155336642Y-126043380D01*
X155310163Y-126153668D01*
X155286248Y-126258449D01*
X155283054Y-126266585D01*
X155279650Y-126280767D01*
X155238478Y-126380162D01*
X155201320Y-126474842D01*
X155194034Y-126487461D01*
X155186224Y-126506317D01*
X155133056Y-126593078D01*
X155085090Y-126676159D01*
X155072370Y-126692109D01*
X155058665Y-126714474D01*
X154996355Y-126787429D01*
X154940155Y-126857903D01*
X154920931Y-126875739D01*
X154900114Y-126900114D01*
X154831556Y-126958667D01*
X154769745Y-127016020D01*
X154743273Y-127034067D01*
X154714474Y-127058665D01*
X154642547Y-127102741D01*
X154577672Y-127146973D01*
X154543566Y-127163397D01*
X154506317Y-127186224D01*
X154433753Y-127216280D01*
X154368235Y-127247833D01*
X154326503Y-127260705D01*
X154280767Y-127279650D01*
X154210024Y-127296633D01*
X154146096Y-127316353D01*
X154097176Y-127323726D01*
X154043380Y-127336642D01*
X153976643Y-127341894D01*
X153916231Y-127351000D01*
X153860940Y-127351000D01*
X153800000Y-127355796D01*
X153739060Y-127351000D01*
X153683769Y-127351000D01*
X153623355Y-127341894D01*
X153556620Y-127336642D01*
X153502824Y-127323726D01*
X153453903Y-127316353D01*
X153389970Y-127296632D01*
X153319233Y-127279650D01*
X153273499Y-127260706D01*
X153231764Y-127247833D01*
X153166239Y-127216278D01*
X153093683Y-127186224D01*
X153056436Y-127163399D01*
X153022325Y-127146972D01*
X152957439Y-127102733D01*
X152885526Y-127058665D01*
X152856730Y-127034071D01*
X152830257Y-127016022D01*
X152768437Y-126958662D01*
X152699886Y-126900114D01*
X152679071Y-126875743D01*
X152659844Y-126857903D01*
X152603629Y-126787411D01*
X152541335Y-126714474D01*
X152527633Y-126692114D01*
X152514909Y-126676159D01*
X152466926Y-126593050D01*
X152413776Y-126506317D01*
X152405968Y-126487467D01*
X152398679Y-126474842D01*
X152361502Y-126380116D01*
X152320350Y-126280767D01*
X152316946Y-126266591D01*
X152313751Y-126258449D01*
X152289815Y-126153583D01*
X152263358Y-126043380D01*
X152262671Y-126034660D01*
X152262021Y-126031809D01*
X152253531Y-125918513D01*
X152244204Y-125800000D01*
X152253530Y-125681496D01*
X152262021Y-125568190D01*
X152262671Y-125565338D01*
X152263358Y-125556620D01*
X152289811Y-125446435D01*
X152313751Y-125341550D01*
X152316947Y-125333405D01*
X152320350Y-125319233D01*
X152361494Y-125219901D01*
X152398679Y-125125157D01*
X152405969Y-125112529D01*
X152413776Y-125093683D01*
X152466916Y-125006965D01*
X152514909Y-124923840D01*
X152527635Y-124907880D01*
X152541335Y-124885526D01*
X152603617Y-124812602D01*
X152659844Y-124742096D01*
X152679076Y-124724251D01*
X152699886Y-124699886D01*
X152768424Y-124641349D01*
X152830257Y-124583977D01*
X152856736Y-124565923D01*
X152885526Y-124541335D01*
X152957424Y-124497275D01*
X153022325Y-124453027D01*
X153056444Y-124436595D01*
X153093683Y-124413776D01*
X153166224Y-124383728D01*
X153231764Y-124352166D01*
X153273509Y-124339289D01*
X153319233Y-124320350D01*
X153389956Y-124303370D01*
X153453903Y-124283646D01*
X153502833Y-124276271D01*
X153556620Y-124263358D01*
X153623352Y-124258106D01*
X153683769Y-124249000D01*
X153739060Y-124249000D01*
X153800000Y-124244204D01*
X153860940Y-124249000D01*
G37*
G36*
X158860940Y-124249000D02*
G01*
X158916231Y-124249000D01*
X158976647Y-124258106D01*
X159043380Y-124263358D01*
X159097167Y-124276271D01*
X159146096Y-124283646D01*
X159210039Y-124303369D01*
X159280767Y-124320350D01*
X159326493Y-124339290D01*
X159368235Y-124352166D01*
X159433768Y-124383725D01*
X159506317Y-124413776D01*
X159543559Y-124436597D01*
X159577672Y-124453026D01*
X159642561Y-124497267D01*
X159714474Y-124541335D01*
X159743267Y-124565927D01*
X159769745Y-124583979D01*
X159831570Y-124641344D01*
X159900114Y-124699886D01*
X159920927Y-124724255D01*
X159940155Y-124742096D01*
X159996367Y-124812585D01*
X160058665Y-124885526D01*
X160072367Y-124907886D01*
X160085090Y-124923840D01*
X160133066Y-125006937D01*
X160186224Y-125093683D01*
X160194032Y-125112535D01*
X160201320Y-125125157D01*
X160238486Y-125219855D01*
X160279650Y-125319233D01*
X160283054Y-125333412D01*
X160286248Y-125341550D01*
X160310168Y-125446351D01*
X160336642Y-125556620D01*
X160337328Y-125565345D01*
X160337978Y-125568190D01*
X160346448Y-125681230D01*
X160355796Y-125800000D01*
X160346448Y-125918779D01*
X160337978Y-126031809D01*
X160337328Y-126034653D01*
X160336642Y-126043380D01*
X160310163Y-126153668D01*
X160286248Y-126258449D01*
X160283054Y-126266585D01*
X160279650Y-126280767D01*
X160238478Y-126380162D01*
X160201320Y-126474842D01*
X160194034Y-126487461D01*
X160186224Y-126506317D01*
X160133056Y-126593078D01*
X160085090Y-126676159D01*
X160072370Y-126692109D01*
X160058665Y-126714474D01*
X159996355Y-126787429D01*
X159940155Y-126857903D01*
X159920931Y-126875739D01*
X159900114Y-126900114D01*
X159831556Y-126958667D01*
X159769745Y-127016020D01*
X159743273Y-127034067D01*
X159714474Y-127058665D01*
X159642547Y-127102741D01*
X159577672Y-127146973D01*
X159543566Y-127163397D01*
X159506317Y-127186224D01*
X159433753Y-127216280D01*
X159368235Y-127247833D01*
X159326503Y-127260705D01*
X159280767Y-127279650D01*
X159210024Y-127296633D01*
X159146096Y-127316353D01*
X159097176Y-127323726D01*
X159043380Y-127336642D01*
X158976643Y-127341894D01*
X158916231Y-127351000D01*
X158860940Y-127351000D01*
X158800000Y-127355796D01*
X158739060Y-127351000D01*
X158683769Y-127351000D01*
X158623355Y-127341894D01*
X158556620Y-127336642D01*
X158502824Y-127323726D01*
X158453903Y-127316353D01*
X158389970Y-127296632D01*
X158319233Y-127279650D01*
X158273499Y-127260706D01*
X158231764Y-127247833D01*
X158166239Y-127216278D01*
X158093683Y-127186224D01*
X158056436Y-127163399D01*
X158022325Y-127146972D01*
X157957439Y-127102733D01*
X157885526Y-127058665D01*
X157856730Y-127034071D01*
X157830257Y-127016022D01*
X157768437Y-126958662D01*
X157699886Y-126900114D01*
X157679071Y-126875743D01*
X157659844Y-126857903D01*
X157603629Y-126787411D01*
X157541335Y-126714474D01*
X157527633Y-126692114D01*
X157514909Y-126676159D01*
X157466926Y-126593050D01*
X157413776Y-126506317D01*
X157405968Y-126487467D01*
X157398679Y-126474842D01*
X157361502Y-126380116D01*
X157320350Y-126280767D01*
X157316946Y-126266591D01*
X157313751Y-126258449D01*
X157289815Y-126153583D01*
X157263358Y-126043380D01*
X157262671Y-126034660D01*
X157262021Y-126031809D01*
X157253531Y-125918513D01*
X157244204Y-125800000D01*
X157253530Y-125681496D01*
X157262021Y-125568190D01*
X157262671Y-125565338D01*
X157263358Y-125556620D01*
X157289811Y-125446435D01*
X157313751Y-125341550D01*
X157316947Y-125333405D01*
X157320350Y-125319233D01*
X157361494Y-125219901D01*
X157398679Y-125125157D01*
X157405969Y-125112529D01*
X157413776Y-125093683D01*
X157466916Y-125006965D01*
X157514909Y-124923840D01*
X157527635Y-124907880D01*
X157541335Y-124885526D01*
X157603617Y-124812602D01*
X157659844Y-124742096D01*
X157679076Y-124724251D01*
X157699886Y-124699886D01*
X157768424Y-124641349D01*
X157830257Y-124583977D01*
X157856736Y-124565923D01*
X157885526Y-124541335D01*
X157957424Y-124497275D01*
X158022325Y-124453027D01*
X158056444Y-124436595D01*
X158093683Y-124413776D01*
X158166224Y-124383728D01*
X158231764Y-124352166D01*
X158273509Y-124339289D01*
X158319233Y-124320350D01*
X158389956Y-124303370D01*
X158453903Y-124283646D01*
X158502833Y-124276271D01*
X158556620Y-124263358D01*
X158623352Y-124258106D01*
X158683769Y-124249000D01*
X158739060Y-124249000D01*
X158800000Y-124244204D01*
X158860940Y-124249000D01*
G37*
G36*
X150319899Y-124251959D02*
G01*
X150336769Y-124263231D01*
X150348041Y-124280101D01*
X150350999Y-124294978D01*
X150351000Y-127305023D01*
X150348041Y-127319899D01*
X150336769Y-127336769D01*
X150319899Y-127348041D01*
X150305022Y-127350999D01*
X147294977Y-127351000D01*
X147280101Y-127348041D01*
X147263231Y-127336769D01*
X147251959Y-127319899D01*
X147249001Y-127305023D01*
X147249000Y-127305020D01*
X147249000Y-124294977D01*
X147251959Y-124280100D01*
X147263231Y-124263231D01*
X147280098Y-124251960D01*
X147280100Y-124251959D01*
X147280101Y-124251959D01*
X147285082Y-124250968D01*
X147294979Y-124249000D01*
X150305022Y-124249000D01*
X150305023Y-124249000D01*
X150319899Y-124251959D01*
G37*
G36*
X123739199Y-117263662D02*
G01*
X123786954Y-117263662D01*
X123828194Y-117272427D01*
X123863901Y-117275945D01*
X123908759Y-117289552D01*
X123960973Y-117300651D01*
X123994384Y-117315526D01*
X124023435Y-117324339D01*
X124069602Y-117349015D01*
X124123500Y-117373012D01*
X124148554Y-117391215D01*
X124170453Y-117402920D01*
X124215128Y-117439584D01*
X124267430Y-117477584D01*
X124284411Y-117496443D01*
X124299320Y-117508679D01*
X124339387Y-117557501D01*
X124386473Y-117609795D01*
X124396364Y-117626927D01*
X124405079Y-117637546D01*
X124437306Y-117697840D01*
X124475427Y-117763867D01*
X124479813Y-117777368D01*
X124483660Y-117784564D01*
X124504861Y-117854455D01*
X124530404Y-117933067D01*
X124531303Y-117941623D01*
X124532054Y-117944098D01*
X124539371Y-118018389D01*
X124549000Y-118110000D01*
X124539370Y-118201619D01*
X124532054Y-118275901D01*
X124531303Y-118278375D01*
X124530404Y-118286933D01*
X124504856Y-118365558D01*
X124483660Y-118435435D01*
X124479814Y-118442629D01*
X124475427Y-118456133D01*
X124437299Y-118522172D01*
X124405079Y-118582453D01*
X124396366Y-118593069D01*
X124386473Y-118610205D01*
X124339378Y-118662509D01*
X124299320Y-118711320D01*
X124284414Y-118723552D01*
X124267430Y-118742416D01*
X124215118Y-118780423D01*
X124170453Y-118817079D01*
X124148559Y-118828780D01*
X124123500Y-118846988D01*
X124069591Y-118870989D01*
X124023435Y-118895660D01*
X123994391Y-118904470D01*
X123960973Y-118919349D01*
X123908748Y-118930449D01*
X123863901Y-118944054D01*
X123828203Y-118947570D01*
X123786954Y-118956338D01*
X123739188Y-118956338D01*
X123698000Y-118960395D01*
X123656811Y-118956338D01*
X123609046Y-118956338D01*
X123567797Y-118947570D01*
X123532098Y-118944054D01*
X123487248Y-118930448D01*
X123435027Y-118919349D01*
X123401610Y-118904471D01*
X123372564Y-118895660D01*
X123326402Y-118870986D01*
X123272500Y-118846988D01*
X123247443Y-118828783D01*
X123225546Y-118817079D01*
X123180873Y-118780416D01*
X123128570Y-118742416D01*
X123111588Y-118723555D01*
X123096679Y-118711320D01*
X123056610Y-118662496D01*
X123009527Y-118610205D01*
X122999636Y-118593073D01*
X122990920Y-118582453D01*
X122958687Y-118522148D01*
X122920573Y-118456133D01*
X122916186Y-118442634D01*
X122912339Y-118435435D01*
X122891128Y-118365512D01*
X122865596Y-118286933D01*
X122864697Y-118278380D01*
X122863945Y-118275901D01*
X122856613Y-118201467D01*
X122847000Y-118110000D01*
X122856612Y-118018540D01*
X122863945Y-117944098D01*
X122864697Y-117941618D01*
X122865596Y-117933067D01*
X122891123Y-117854502D01*
X122912339Y-117784564D01*
X122916187Y-117777363D01*
X122920573Y-117763867D01*
X122958680Y-117697863D01*
X122990920Y-117637546D01*
X122999638Y-117626923D01*
X123009527Y-117609795D01*
X123056601Y-117557513D01*
X123096679Y-117508679D01*
X123111591Y-117496440D01*
X123128570Y-117477584D01*
X123180862Y-117439591D01*
X123225546Y-117402920D01*
X123247448Y-117391213D01*
X123272500Y-117373012D01*
X123326391Y-117349018D01*
X123372564Y-117324339D01*
X123401617Y-117315525D01*
X123435027Y-117300651D01*
X123487237Y-117289553D01*
X123532098Y-117275945D01*
X123567806Y-117272427D01*
X123609046Y-117263662D01*
X123656801Y-117263662D01*
X123698000Y-117259604D01*
X123739199Y-117263662D01*
G37*
G36*
X133899199Y-117263662D02*
G01*
X133946954Y-117263662D01*
X133988194Y-117272427D01*
X134023901Y-117275945D01*
X134068759Y-117289552D01*
X134120973Y-117300651D01*
X134154384Y-117315526D01*
X134183435Y-117324339D01*
X134229602Y-117349015D01*
X134283500Y-117373012D01*
X134308554Y-117391215D01*
X134330453Y-117402920D01*
X134375128Y-117439584D01*
X134427430Y-117477584D01*
X134444411Y-117496443D01*
X134459320Y-117508679D01*
X134499387Y-117557501D01*
X134546473Y-117609795D01*
X134556364Y-117626927D01*
X134565079Y-117637546D01*
X134597306Y-117697840D01*
X134635427Y-117763867D01*
X134639813Y-117777368D01*
X134643660Y-117784564D01*
X134664861Y-117854455D01*
X134690404Y-117933067D01*
X134691303Y-117941623D01*
X134692054Y-117944098D01*
X134699371Y-118018389D01*
X134709000Y-118110000D01*
X134699370Y-118201619D01*
X134692054Y-118275901D01*
X134691303Y-118278375D01*
X134690404Y-118286933D01*
X134664856Y-118365558D01*
X134643660Y-118435435D01*
X134639814Y-118442629D01*
X134635427Y-118456133D01*
X134597299Y-118522172D01*
X134565079Y-118582453D01*
X134556366Y-118593069D01*
X134546473Y-118610205D01*
X134499378Y-118662509D01*
X134459320Y-118711320D01*
X134444414Y-118723552D01*
X134427430Y-118742416D01*
X134375118Y-118780423D01*
X134330453Y-118817079D01*
X134308559Y-118828780D01*
X134283500Y-118846988D01*
X134229591Y-118870989D01*
X134183435Y-118895660D01*
X134154391Y-118904470D01*
X134120973Y-118919349D01*
X134068748Y-118930449D01*
X134023901Y-118944054D01*
X133988203Y-118947570D01*
X133946954Y-118956338D01*
X133899188Y-118956338D01*
X133858000Y-118960395D01*
X133816811Y-118956338D01*
X133769046Y-118956338D01*
X133727797Y-118947570D01*
X133692098Y-118944054D01*
X133647248Y-118930448D01*
X133595027Y-118919349D01*
X133561610Y-118904471D01*
X133532564Y-118895660D01*
X133486402Y-118870986D01*
X133432500Y-118846988D01*
X133407443Y-118828783D01*
X133385546Y-118817079D01*
X133340873Y-118780416D01*
X133288570Y-118742416D01*
X133271588Y-118723555D01*
X133256679Y-118711320D01*
X133216610Y-118662496D01*
X133169527Y-118610205D01*
X133159636Y-118593073D01*
X133150920Y-118582453D01*
X133118687Y-118522148D01*
X133080573Y-118456133D01*
X133076186Y-118442634D01*
X133072339Y-118435435D01*
X133051128Y-118365512D01*
X133025596Y-118286933D01*
X133024697Y-118278380D01*
X133023945Y-118275901D01*
X133016613Y-118201467D01*
X133007000Y-118110000D01*
X133016612Y-118018540D01*
X133023945Y-117944098D01*
X133024697Y-117941618D01*
X133025596Y-117933067D01*
X133051123Y-117854502D01*
X133072339Y-117784564D01*
X133076187Y-117777363D01*
X133080573Y-117763867D01*
X133118680Y-117697863D01*
X133150920Y-117637546D01*
X133159638Y-117626923D01*
X133169527Y-117609795D01*
X133216601Y-117557513D01*
X133256679Y-117508679D01*
X133271591Y-117496440D01*
X133288570Y-117477584D01*
X133340862Y-117439591D01*
X133385546Y-117402920D01*
X133407448Y-117391213D01*
X133432500Y-117373012D01*
X133486391Y-117349018D01*
X133532564Y-117324339D01*
X133561617Y-117315525D01*
X133595027Y-117300651D01*
X133647237Y-117289553D01*
X133692098Y-117275945D01*
X133727806Y-117272427D01*
X133769046Y-117263662D01*
X133816801Y-117263662D01*
X133858000Y-117259604D01*
X133899199Y-117263662D01*
G37*
G36*
X139781199Y-115485662D02*
G01*
X139828954Y-115485662D01*
X139870194Y-115494427D01*
X139905901Y-115497945D01*
X139950759Y-115511552D01*
X140002973Y-115522651D01*
X140036384Y-115537526D01*
X140065435Y-115546339D01*
X140111602Y-115571015D01*
X140165500Y-115595012D01*
X140190554Y-115613215D01*
X140212453Y-115624920D01*
X140257128Y-115661584D01*
X140309430Y-115699584D01*
X140326411Y-115718443D01*
X140341320Y-115730679D01*
X140381387Y-115779501D01*
X140428473Y-115831795D01*
X140438364Y-115848927D01*
X140447079Y-115859546D01*
X140479306Y-115919840D01*
X140517427Y-115985867D01*
X140521813Y-115999368D01*
X140525660Y-116006564D01*
X140546861Y-116076455D01*
X140572404Y-116155067D01*
X140573303Y-116163623D01*
X140574054Y-116166098D01*
X140581371Y-116240389D01*
X140591000Y-116332000D01*
X140581370Y-116423619D01*
X140574054Y-116497901D01*
X140573303Y-116500375D01*
X140572404Y-116508933D01*
X140546856Y-116587558D01*
X140525660Y-116657435D01*
X140521814Y-116664629D01*
X140517427Y-116678133D01*
X140479299Y-116744172D01*
X140447079Y-116804453D01*
X140438366Y-116815069D01*
X140428473Y-116832205D01*
X140381378Y-116884509D01*
X140341320Y-116933320D01*
X140326414Y-116945552D01*
X140309430Y-116964416D01*
X140257118Y-117002423D01*
X140212453Y-117039079D01*
X140190559Y-117050780D01*
X140165500Y-117068988D01*
X140111591Y-117092989D01*
X140065435Y-117117660D01*
X140036391Y-117126470D01*
X140002973Y-117141349D01*
X139950748Y-117152449D01*
X139905901Y-117166054D01*
X139870203Y-117169570D01*
X139828954Y-117178338D01*
X139781188Y-117178338D01*
X139740000Y-117182395D01*
X139698811Y-117178338D01*
X139651046Y-117178338D01*
X139609797Y-117169570D01*
X139574098Y-117166054D01*
X139529248Y-117152448D01*
X139477027Y-117141349D01*
X139443610Y-117126471D01*
X139414564Y-117117660D01*
X139368402Y-117092986D01*
X139314500Y-117068988D01*
X139289443Y-117050783D01*
X139267546Y-117039079D01*
X139222873Y-117002416D01*
X139170570Y-116964416D01*
X139153588Y-116945555D01*
X139138679Y-116933320D01*
X139098610Y-116884496D01*
X139051527Y-116832205D01*
X139041636Y-116815073D01*
X139032920Y-116804453D01*
X139000687Y-116744148D01*
X138962573Y-116678133D01*
X138958186Y-116664634D01*
X138954339Y-116657435D01*
X138933128Y-116587512D01*
X138907596Y-116508933D01*
X138906697Y-116500380D01*
X138905945Y-116497901D01*
X138898613Y-116423467D01*
X138889000Y-116332000D01*
X138898612Y-116240540D01*
X138905945Y-116166098D01*
X138906697Y-116163618D01*
X138907596Y-116155067D01*
X138933123Y-116076502D01*
X138954339Y-116006564D01*
X138958187Y-115999363D01*
X138962573Y-115985867D01*
X139000680Y-115919863D01*
X139032920Y-115859546D01*
X139041638Y-115848923D01*
X139051527Y-115831795D01*
X139098601Y-115779513D01*
X139138679Y-115730679D01*
X139153591Y-115718440D01*
X139170570Y-115699584D01*
X139222862Y-115661591D01*
X139267546Y-115624920D01*
X139289448Y-115613213D01*
X139314500Y-115595012D01*
X139368391Y-115571018D01*
X139414564Y-115546339D01*
X139443617Y-115537525D01*
X139477027Y-115522651D01*
X139529237Y-115511553D01*
X139574098Y-115497945D01*
X139609806Y-115494427D01*
X139651046Y-115485662D01*
X139698801Y-115485662D01*
X139740000Y-115481604D01*
X139781199Y-115485662D01*
G37*
G36*
X142281199Y-115485662D02*
G01*
X142328954Y-115485662D01*
X142370194Y-115494427D01*
X142405901Y-115497945D01*
X142450759Y-115511552D01*
X142502973Y-115522651D01*
X142536384Y-115537526D01*
X142565435Y-115546339D01*
X142611602Y-115571015D01*
X142665500Y-115595012D01*
X142690554Y-115613215D01*
X142712453Y-115624920D01*
X142757128Y-115661584D01*
X142809430Y-115699584D01*
X142826411Y-115718443D01*
X142841320Y-115730679D01*
X142881387Y-115779501D01*
X142928473Y-115831795D01*
X142938364Y-115848927D01*
X142947079Y-115859546D01*
X142979306Y-115919840D01*
X143017427Y-115985867D01*
X143021813Y-115999368D01*
X143025660Y-116006564D01*
X143046861Y-116076455D01*
X143072404Y-116155067D01*
X143073303Y-116163623D01*
X143074054Y-116166098D01*
X143081371Y-116240389D01*
X143091000Y-116332000D01*
X143081370Y-116423619D01*
X143074054Y-116497901D01*
X143073303Y-116500375D01*
X143072404Y-116508933D01*
X143046856Y-116587558D01*
X143025660Y-116657435D01*
X143021814Y-116664629D01*
X143017427Y-116678133D01*
X142979299Y-116744172D01*
X142947079Y-116804453D01*
X142938366Y-116815069D01*
X142928473Y-116832205D01*
X142881378Y-116884509D01*
X142841320Y-116933320D01*
X142826414Y-116945552D01*
X142809430Y-116964416D01*
X142757118Y-117002423D01*
X142712453Y-117039079D01*
X142690559Y-117050780D01*
X142665500Y-117068988D01*
X142611591Y-117092989D01*
X142565435Y-117117660D01*
X142536391Y-117126470D01*
X142502973Y-117141349D01*
X142450748Y-117152449D01*
X142405901Y-117166054D01*
X142370203Y-117169570D01*
X142328954Y-117178338D01*
X142281188Y-117178338D01*
X142240000Y-117182395D01*
X142198811Y-117178338D01*
X142151046Y-117178338D01*
X142109797Y-117169570D01*
X142074098Y-117166054D01*
X142029248Y-117152448D01*
X141977027Y-117141349D01*
X141943610Y-117126471D01*
X141914564Y-117117660D01*
X141868402Y-117092986D01*
X141814500Y-117068988D01*
X141789443Y-117050783D01*
X141767546Y-117039079D01*
X141722873Y-117002416D01*
X141670570Y-116964416D01*
X141653588Y-116945555D01*
X141638679Y-116933320D01*
X141598610Y-116884496D01*
X141551527Y-116832205D01*
X141541636Y-116815073D01*
X141532920Y-116804453D01*
X141500687Y-116744148D01*
X141462573Y-116678133D01*
X141458186Y-116664634D01*
X141454339Y-116657435D01*
X141433128Y-116587512D01*
X141407596Y-116508933D01*
X141406697Y-116500380D01*
X141405945Y-116497901D01*
X141398613Y-116423467D01*
X141389000Y-116332000D01*
X141398612Y-116240540D01*
X141405945Y-116166098D01*
X141406697Y-116163618D01*
X141407596Y-116155067D01*
X141433123Y-116076502D01*
X141454339Y-116006564D01*
X141458187Y-115999363D01*
X141462573Y-115985867D01*
X141500680Y-115919863D01*
X141532920Y-115859546D01*
X141541638Y-115848923D01*
X141551527Y-115831795D01*
X141598601Y-115779513D01*
X141638679Y-115730679D01*
X141653591Y-115718440D01*
X141670570Y-115699584D01*
X141722862Y-115661591D01*
X141767546Y-115624920D01*
X141789448Y-115613213D01*
X141814500Y-115595012D01*
X141868391Y-115571018D01*
X141914564Y-115546339D01*
X141943617Y-115537525D01*
X141977027Y-115522651D01*
X142029237Y-115511553D01*
X142074098Y-115497945D01*
X142109806Y-115494427D01*
X142151046Y-115485662D01*
X142198801Y-115485662D01*
X142240000Y-115481604D01*
X142281199Y-115485662D01*
G37*
G36*
X123739199Y-113961662D02*
G01*
X123786954Y-113961662D01*
X123828194Y-113970427D01*
X123863901Y-113973945D01*
X123908759Y-113987552D01*
X123960973Y-113998651D01*
X123994384Y-114013526D01*
X124023435Y-114022339D01*
X124069602Y-114047015D01*
X124123500Y-114071012D01*
X124148554Y-114089215D01*
X124170453Y-114100920D01*
X124215128Y-114137584D01*
X124267430Y-114175584D01*
X124284411Y-114194443D01*
X124299320Y-114206679D01*
X124339387Y-114255501D01*
X124386473Y-114307795D01*
X124396364Y-114324927D01*
X124405079Y-114335546D01*
X124437306Y-114395840D01*
X124475427Y-114461867D01*
X124479813Y-114475368D01*
X124483660Y-114482564D01*
X124504861Y-114552455D01*
X124530404Y-114631067D01*
X124531303Y-114639623D01*
X124532054Y-114642098D01*
X124539371Y-114716389D01*
X124549000Y-114808000D01*
X124539370Y-114899619D01*
X124532054Y-114973901D01*
X124531303Y-114976375D01*
X124530404Y-114984933D01*
X124504856Y-115063558D01*
X124483660Y-115133435D01*
X124479814Y-115140629D01*
X124475427Y-115154133D01*
X124437299Y-115220172D01*
X124405079Y-115280453D01*
X124396366Y-115291069D01*
X124386473Y-115308205D01*
X124339378Y-115360509D01*
X124299320Y-115409320D01*
X124284414Y-115421552D01*
X124267430Y-115440416D01*
X124215118Y-115478423D01*
X124170453Y-115515079D01*
X124148559Y-115526780D01*
X124123500Y-115544988D01*
X124069591Y-115568989D01*
X124023435Y-115593660D01*
X123994391Y-115602470D01*
X123960973Y-115617349D01*
X123908748Y-115628449D01*
X123863901Y-115642054D01*
X123828203Y-115645570D01*
X123786954Y-115654338D01*
X123739188Y-115654338D01*
X123698000Y-115658395D01*
X123656811Y-115654338D01*
X123609046Y-115654338D01*
X123567797Y-115645570D01*
X123532098Y-115642054D01*
X123487248Y-115628448D01*
X123435027Y-115617349D01*
X123401610Y-115602471D01*
X123372564Y-115593660D01*
X123326402Y-115568986D01*
X123272500Y-115544988D01*
X123247443Y-115526783D01*
X123225546Y-115515079D01*
X123180873Y-115478416D01*
X123128570Y-115440416D01*
X123111588Y-115421555D01*
X123096679Y-115409320D01*
X123056610Y-115360496D01*
X123009527Y-115308205D01*
X122999636Y-115291073D01*
X122990920Y-115280453D01*
X122958687Y-115220148D01*
X122920573Y-115154133D01*
X122916186Y-115140634D01*
X122912339Y-115133435D01*
X122891128Y-115063512D01*
X122865596Y-114984933D01*
X122864697Y-114976380D01*
X122863945Y-114973901D01*
X122856613Y-114899467D01*
X122847000Y-114808000D01*
X122856612Y-114716540D01*
X122863945Y-114642098D01*
X122864697Y-114639618D01*
X122865596Y-114631067D01*
X122891123Y-114552502D01*
X122912339Y-114482564D01*
X122916187Y-114475363D01*
X122920573Y-114461867D01*
X122958680Y-114395863D01*
X122990920Y-114335546D01*
X122999638Y-114324923D01*
X123009527Y-114307795D01*
X123056601Y-114255513D01*
X123096679Y-114206679D01*
X123111591Y-114194440D01*
X123128570Y-114175584D01*
X123180862Y-114137591D01*
X123225546Y-114100920D01*
X123247448Y-114089213D01*
X123272500Y-114071012D01*
X123326391Y-114047018D01*
X123372564Y-114022339D01*
X123401617Y-114013525D01*
X123435027Y-113998651D01*
X123487237Y-113987553D01*
X123532098Y-113973945D01*
X123567806Y-113970427D01*
X123609046Y-113961662D01*
X123656801Y-113961662D01*
X123698000Y-113957604D01*
X123739199Y-113961662D01*
G37*
G36*
X133899199Y-113961662D02*
G01*
X133946954Y-113961662D01*
X133988194Y-113970427D01*
X134023901Y-113973945D01*
X134068759Y-113987552D01*
X134120973Y-113998651D01*
X134154384Y-114013526D01*
X134183435Y-114022339D01*
X134229602Y-114047015D01*
X134283500Y-114071012D01*
X134308554Y-114089215D01*
X134330453Y-114100920D01*
X134375128Y-114137584D01*
X134427430Y-114175584D01*
X134444411Y-114194443D01*
X134459320Y-114206679D01*
X134499387Y-114255501D01*
X134546473Y-114307795D01*
X134556364Y-114324927D01*
X134565079Y-114335546D01*
X134597306Y-114395840D01*
X134635427Y-114461867D01*
X134639813Y-114475368D01*
X134643660Y-114482564D01*
X134664861Y-114552455D01*
X134690404Y-114631067D01*
X134691303Y-114639623D01*
X134692054Y-114642098D01*
X134699371Y-114716389D01*
X134709000Y-114808000D01*
X134699370Y-114899619D01*
X134692054Y-114973901D01*
X134691303Y-114976375D01*
X134690404Y-114984933D01*
X134664856Y-115063558D01*
X134643660Y-115133435D01*
X134639814Y-115140629D01*
X134635427Y-115154133D01*
X134597299Y-115220172D01*
X134565079Y-115280453D01*
X134556366Y-115291069D01*
X134546473Y-115308205D01*
X134499378Y-115360509D01*
X134459320Y-115409320D01*
X134444414Y-115421552D01*
X134427430Y-115440416D01*
X134375118Y-115478423D01*
X134330453Y-115515079D01*
X134308559Y-115526780D01*
X134283500Y-115544988D01*
X134229591Y-115568989D01*
X134183435Y-115593660D01*
X134154391Y-115602470D01*
X134120973Y-115617349D01*
X134068748Y-115628449D01*
X134023901Y-115642054D01*
X133988203Y-115645570D01*
X133946954Y-115654338D01*
X133899188Y-115654338D01*
X133858000Y-115658395D01*
X133816811Y-115654338D01*
X133769046Y-115654338D01*
X133727797Y-115645570D01*
X133692098Y-115642054D01*
X133647248Y-115628448D01*
X133595027Y-115617349D01*
X133561610Y-115602471D01*
X133532564Y-115593660D01*
X133486402Y-115568986D01*
X133432500Y-115544988D01*
X133407443Y-115526783D01*
X133385546Y-115515079D01*
X133340873Y-115478416D01*
X133288570Y-115440416D01*
X133271588Y-115421555D01*
X133256679Y-115409320D01*
X133216610Y-115360496D01*
X133169527Y-115308205D01*
X133159636Y-115291073D01*
X133150920Y-115280453D01*
X133118687Y-115220148D01*
X133080573Y-115154133D01*
X133076186Y-115140634D01*
X133072339Y-115133435D01*
X133051128Y-115063512D01*
X133025596Y-114984933D01*
X133024697Y-114976380D01*
X133023945Y-114973901D01*
X133016613Y-114899467D01*
X133007000Y-114808000D01*
X133016612Y-114716540D01*
X133023945Y-114642098D01*
X133024697Y-114639618D01*
X133025596Y-114631067D01*
X133051123Y-114552502D01*
X133072339Y-114482564D01*
X133076187Y-114475363D01*
X133080573Y-114461867D01*
X133118680Y-114395863D01*
X133150920Y-114335546D01*
X133159638Y-114324923D01*
X133169527Y-114307795D01*
X133216601Y-114255513D01*
X133256679Y-114206679D01*
X133271591Y-114194440D01*
X133288570Y-114175584D01*
X133340862Y-114137591D01*
X133385546Y-114100920D01*
X133407448Y-114089213D01*
X133432500Y-114071012D01*
X133486391Y-114047018D01*
X133532564Y-114022339D01*
X133561617Y-114013525D01*
X133595027Y-113998651D01*
X133647237Y-113987553D01*
X133692098Y-113973945D01*
X133727806Y-113970427D01*
X133769046Y-113961662D01*
X133816801Y-113961662D01*
X133858000Y-113957604D01*
X133899199Y-113961662D01*
G37*
G36*
X150917199Y-113707662D02*
G01*
X150964954Y-113707662D01*
X151006194Y-113716427D01*
X151041901Y-113719945D01*
X151086759Y-113733552D01*
X151138973Y-113744651D01*
X151172384Y-113759526D01*
X151201435Y-113768339D01*
X151247602Y-113793015D01*
X151301500Y-113817012D01*
X151326554Y-113835215D01*
X151348453Y-113846920D01*
X151393128Y-113883584D01*
X151445430Y-113921584D01*
X151462411Y-113940443D01*
X151477320Y-113952679D01*
X151517387Y-114001501D01*
X151564473Y-114053795D01*
X151574364Y-114070927D01*
X151583079Y-114081546D01*
X151615306Y-114141840D01*
X151653427Y-114207867D01*
X151657813Y-114221368D01*
X151661660Y-114228564D01*
X151682861Y-114298455D01*
X151708404Y-114377067D01*
X151709303Y-114385623D01*
X151710054Y-114388098D01*
X151717371Y-114462389D01*
X151727000Y-114554000D01*
X151717370Y-114645619D01*
X151710054Y-114719901D01*
X151709303Y-114722375D01*
X151708404Y-114730933D01*
X151682856Y-114809558D01*
X151661660Y-114879435D01*
X151657814Y-114886629D01*
X151653427Y-114900133D01*
X151615299Y-114966172D01*
X151583079Y-115026453D01*
X151574366Y-115037069D01*
X151564473Y-115054205D01*
X151517378Y-115106509D01*
X151477320Y-115155320D01*
X151462414Y-115167552D01*
X151445430Y-115186416D01*
X151393118Y-115224423D01*
X151348453Y-115261079D01*
X151326559Y-115272780D01*
X151301500Y-115290988D01*
X151247591Y-115314989D01*
X151201435Y-115339660D01*
X151172391Y-115348470D01*
X151138973Y-115363349D01*
X151086748Y-115374449D01*
X151041901Y-115388054D01*
X151006203Y-115391570D01*
X150964954Y-115400338D01*
X150917188Y-115400338D01*
X150876000Y-115404395D01*
X150834811Y-115400338D01*
X150787046Y-115400338D01*
X150745797Y-115391570D01*
X150710098Y-115388054D01*
X150665248Y-115374448D01*
X150613027Y-115363349D01*
X150579610Y-115348471D01*
X150550564Y-115339660D01*
X150504402Y-115314986D01*
X150450500Y-115290988D01*
X150425443Y-115272783D01*
X150403546Y-115261079D01*
X150358873Y-115224416D01*
X150306570Y-115186416D01*
X150289588Y-115167555D01*
X150274679Y-115155320D01*
X150234610Y-115106496D01*
X150187527Y-115054205D01*
X150177636Y-115037073D01*
X150168920Y-115026453D01*
X150136687Y-114966148D01*
X150098573Y-114900133D01*
X150094186Y-114886634D01*
X150090339Y-114879435D01*
X150069128Y-114809512D01*
X150043596Y-114730933D01*
X150042697Y-114722380D01*
X150041945Y-114719901D01*
X150034613Y-114645467D01*
X150025000Y-114554000D01*
X150034612Y-114462540D01*
X150041945Y-114388098D01*
X150042697Y-114385618D01*
X150043596Y-114377067D01*
X150069123Y-114298502D01*
X150090339Y-114228564D01*
X150094187Y-114221363D01*
X150098573Y-114207867D01*
X150136680Y-114141863D01*
X150168920Y-114081546D01*
X150177638Y-114070923D01*
X150187527Y-114053795D01*
X150234601Y-114001513D01*
X150274679Y-113952679D01*
X150289591Y-113940440D01*
X150306570Y-113921584D01*
X150358862Y-113883591D01*
X150403546Y-113846920D01*
X150425448Y-113835213D01*
X150450500Y-113817012D01*
X150504391Y-113793018D01*
X150550564Y-113768339D01*
X150579617Y-113759525D01*
X150613027Y-113744651D01*
X150665237Y-113733553D01*
X150710098Y-113719945D01*
X150745806Y-113716427D01*
X150787046Y-113707662D01*
X150834801Y-113707662D01*
X150876000Y-113703604D01*
X150917199Y-113707662D01*
G37*
G36*
X161077199Y-113707662D02*
G01*
X161124954Y-113707662D01*
X161166194Y-113716427D01*
X161201901Y-113719945D01*
X161246759Y-113733552D01*
X161298973Y-113744651D01*
X161332384Y-113759526D01*
X161361435Y-113768339D01*
X161407602Y-113793015D01*
X161461500Y-113817012D01*
X161486554Y-113835215D01*
X161508453Y-113846920D01*
X161553128Y-113883584D01*
X161605430Y-113921584D01*
X161622411Y-113940443D01*
X161637320Y-113952679D01*
X161677387Y-114001501D01*
X161724473Y-114053795D01*
X161734364Y-114070927D01*
X161743079Y-114081546D01*
X161775306Y-114141840D01*
X161813427Y-114207867D01*
X161817813Y-114221368D01*
X161821660Y-114228564D01*
X161842861Y-114298455D01*
X161868404Y-114377067D01*
X161869303Y-114385623D01*
X161870054Y-114388098D01*
X161877371Y-114462389D01*
X161887000Y-114554000D01*
X161877370Y-114645619D01*
X161870054Y-114719901D01*
X161869303Y-114722375D01*
X161868404Y-114730933D01*
X161842856Y-114809558D01*
X161821660Y-114879435D01*
X161817814Y-114886629D01*
X161813427Y-114900133D01*
X161775299Y-114966172D01*
X161743079Y-115026453D01*
X161734366Y-115037069D01*
X161724473Y-115054205D01*
X161677378Y-115106509D01*
X161637320Y-115155320D01*
X161622414Y-115167552D01*
X161605430Y-115186416D01*
X161553118Y-115224423D01*
X161508453Y-115261079D01*
X161486559Y-115272780D01*
X161461500Y-115290988D01*
X161407591Y-115314989D01*
X161361435Y-115339660D01*
X161332391Y-115348470D01*
X161298973Y-115363349D01*
X161246748Y-115374449D01*
X161201901Y-115388054D01*
X161166203Y-115391570D01*
X161124954Y-115400338D01*
X161077188Y-115400338D01*
X161036000Y-115404395D01*
X160994811Y-115400338D01*
X160947046Y-115400338D01*
X160905797Y-115391570D01*
X160870098Y-115388054D01*
X160825248Y-115374448D01*
X160773027Y-115363349D01*
X160739610Y-115348471D01*
X160710564Y-115339660D01*
X160664402Y-115314986D01*
X160610500Y-115290988D01*
X160585443Y-115272783D01*
X160563546Y-115261079D01*
X160518873Y-115224416D01*
X160466570Y-115186416D01*
X160449588Y-115167555D01*
X160434679Y-115155320D01*
X160394610Y-115106496D01*
X160347527Y-115054205D01*
X160337636Y-115037073D01*
X160328920Y-115026453D01*
X160296687Y-114966148D01*
X160258573Y-114900133D01*
X160254186Y-114886634D01*
X160250339Y-114879435D01*
X160229128Y-114809512D01*
X160203596Y-114730933D01*
X160202697Y-114722380D01*
X160201945Y-114719901D01*
X160194613Y-114645467D01*
X160185000Y-114554000D01*
X160194612Y-114462540D01*
X160201945Y-114388098D01*
X160202697Y-114385618D01*
X160203596Y-114377067D01*
X160229123Y-114298502D01*
X160250339Y-114228564D01*
X160254187Y-114221363D01*
X160258573Y-114207867D01*
X160296680Y-114141863D01*
X160328920Y-114081546D01*
X160337638Y-114070923D01*
X160347527Y-114053795D01*
X160394601Y-114001513D01*
X160434679Y-113952679D01*
X160449591Y-113940440D01*
X160466570Y-113921584D01*
X160518862Y-113883591D01*
X160563546Y-113846920D01*
X160585448Y-113835213D01*
X160610500Y-113817012D01*
X160664391Y-113793018D01*
X160710564Y-113768339D01*
X160739617Y-113759525D01*
X160773027Y-113744651D01*
X160825237Y-113733553D01*
X160870098Y-113719945D01*
X160905806Y-113716427D01*
X160947046Y-113707662D01*
X160994801Y-113707662D01*
X161036000Y-113703604D01*
X161077199Y-113707662D01*
G37*
G36*
X137643413Y-111675098D02*
G01*
X137807032Y-111707644D01*
X137961159Y-111771485D01*
X138099869Y-111864168D01*
X138217832Y-111982131D01*
X138310515Y-112120841D01*
X138374356Y-112274968D01*
X138406902Y-112438587D01*
X138406902Y-112605413D01*
X138374356Y-112769032D01*
X138310515Y-112923159D01*
X138217832Y-113061869D01*
X138099869Y-113179832D01*
X137961159Y-113272515D01*
X137807032Y-113336356D01*
X137643413Y-113368902D01*
X137560000Y-113373000D01*
X137556939Y-113373000D01*
X136763061Y-113373000D01*
X136760000Y-113373000D01*
X136676587Y-113368902D01*
X136512968Y-113336356D01*
X136358841Y-113272515D01*
X136220131Y-113179832D01*
X136102168Y-113061869D01*
X136009485Y-112923159D01*
X135945644Y-112769032D01*
X135913098Y-112605413D01*
X135913098Y-112438587D01*
X135945644Y-112274968D01*
X136009485Y-112120841D01*
X136102168Y-111982131D01*
X136220131Y-111864168D01*
X136358841Y-111771485D01*
X136512968Y-111707644D01*
X136676587Y-111675098D01*
X136760000Y-111671000D01*
X137560000Y-111671000D01*
X137643413Y-111675098D01*
G37*
G36*
X145263413Y-111675098D02*
G01*
X145427032Y-111707644D01*
X145581159Y-111771485D01*
X145719869Y-111864168D01*
X145837832Y-111982131D01*
X145930515Y-112120841D01*
X145994356Y-112274968D01*
X146026902Y-112438587D01*
X146026902Y-112605413D01*
X145994356Y-112769032D01*
X145930515Y-112923159D01*
X145837832Y-113061869D01*
X145719869Y-113179832D01*
X145581159Y-113272515D01*
X145427032Y-113336356D01*
X145263413Y-113368902D01*
X145180000Y-113373000D01*
X145176939Y-113373000D01*
X144383061Y-113373000D01*
X144380000Y-113373000D01*
X144296587Y-113368902D01*
X144132968Y-113336356D01*
X143978841Y-113272515D01*
X143840131Y-113179832D01*
X143722168Y-113061869D01*
X143629485Y-112923159D01*
X143565644Y-112769032D01*
X143533098Y-112605413D01*
X143533098Y-112438587D01*
X143565644Y-112274968D01*
X143629485Y-112120841D01*
X143722168Y-111982131D01*
X143840131Y-111864168D01*
X143978841Y-111771485D01*
X144132968Y-111707644D01*
X144296587Y-111675098D01*
X144380000Y-111671000D01*
X145180000Y-111671000D01*
X145263413Y-111675098D01*
G37*
G36*
X162155517Y-109850882D02*
G01*
X162172062Y-109861938D01*
X162183118Y-109878483D01*
X162187000Y-109898000D01*
X162187000Y-112098000D01*
X162183118Y-112117517D01*
X162172062Y-112134062D01*
X162155517Y-112145118D01*
X162136000Y-112149000D01*
X159936000Y-112149000D01*
X159916483Y-112145118D01*
X159899938Y-112134062D01*
X159888882Y-112117517D01*
X159885000Y-112098000D01*
X159885000Y-109898000D01*
X159888882Y-109878483D01*
X159899938Y-109861938D01*
X159916483Y-109850882D01*
X159936000Y-109847000D01*
X162136000Y-109847000D01*
X162155517Y-109850882D01*
G37*
G36*
X150926672Y-109851910D02*
G01*
X150982201Y-109851910D01*
X151031050Y-109861041D01*
X151075783Y-109864955D01*
X151130691Y-109879667D01*
X151190986Y-109890939D01*
X151231882Y-109906782D01*
X151269500Y-109916862D01*
X151326449Y-109943417D01*
X151389045Y-109967667D01*
X151421350Y-109987669D01*
X151451263Y-110001618D01*
X151507688Y-110041127D01*
X151569632Y-110079482D01*
X151593378Y-110101130D01*
X151615539Y-110116647D01*
X151668543Y-110169651D01*
X151726599Y-110222576D01*
X151742424Y-110243532D01*
X151757352Y-110258460D01*
X151803922Y-110324969D01*
X151854600Y-110392077D01*
X151863677Y-110410307D01*
X151872381Y-110422737D01*
X151909430Y-110502191D01*
X151949276Y-110582211D01*
X151953239Y-110596139D01*
X151957137Y-110604499D01*
X151981709Y-110696204D01*
X152007402Y-110786504D01*
X152008192Y-110795039D01*
X152009044Y-110798216D01*
X152018447Y-110905707D01*
X152027000Y-110998000D01*
X152018447Y-111090299D01*
X152009044Y-111197783D01*
X152008193Y-111200958D01*
X152007402Y-111209496D01*
X151981705Y-111299811D01*
X151957137Y-111391500D01*
X151953239Y-111399857D01*
X151949276Y-111413789D01*
X151909427Y-111493815D01*
X151872381Y-111573263D01*
X151863678Y-111585691D01*
X151854600Y-111603923D01*
X151803917Y-111671037D01*
X151757352Y-111737539D01*
X151742427Y-111752463D01*
X151726599Y-111773424D01*
X151668532Y-111826358D01*
X151615539Y-111879352D01*
X151593383Y-111894865D01*
X151569632Y-111916518D01*
X151507675Y-111954879D01*
X151451263Y-111994381D01*
X151421357Y-112008325D01*
X151389045Y-112028333D01*
X151326436Y-112052587D01*
X151269500Y-112079137D01*
X151231890Y-112089214D01*
X151190986Y-112105061D01*
X151130679Y-112116334D01*
X151075783Y-112131044D01*
X151031060Y-112134956D01*
X150982201Y-112144090D01*
X150926660Y-112144090D01*
X150876000Y-112148522D01*
X150825340Y-112144090D01*
X150769799Y-112144090D01*
X150720940Y-112134956D01*
X150676216Y-112131044D01*
X150621317Y-112116333D01*
X150561014Y-112105061D01*
X150520111Y-112089215D01*
X150482499Y-112079137D01*
X150425557Y-112052585D01*
X150362955Y-112028333D01*
X150330645Y-112008327D01*
X150300736Y-111994381D01*
X150244315Y-111954874D01*
X150182368Y-111916518D01*
X150158619Y-111894868D01*
X150136460Y-111879352D01*
X150083456Y-111826348D01*
X150025401Y-111773424D01*
X150009575Y-111752467D01*
X149994647Y-111737539D01*
X149948069Y-111671019D01*
X149897400Y-111603923D01*
X149888324Y-111585696D01*
X149879618Y-111573263D01*
X149842556Y-111493783D01*
X149802724Y-111413789D01*
X149798761Y-111399863D01*
X149794862Y-111391500D01*
X149770277Y-111299751D01*
X149744598Y-111209496D01*
X149743807Y-111200964D01*
X149742955Y-111197783D01*
X149733534Y-111090106D01*
X149725000Y-110998000D01*
X149733534Y-110905900D01*
X149742955Y-110798216D01*
X149743807Y-110795034D01*
X149744598Y-110786504D01*
X149770273Y-110696264D01*
X149794862Y-110604499D01*
X149798762Y-110596134D01*
X149802724Y-110582211D01*
X149842553Y-110502222D01*
X149879618Y-110422737D01*
X149888324Y-110410302D01*
X149897400Y-110392077D01*
X149948063Y-110324987D01*
X149994647Y-110258460D01*
X150009578Y-110243528D01*
X150025401Y-110222576D01*
X150083444Y-110169662D01*
X150136460Y-110116647D01*
X150158624Y-110101127D01*
X150182368Y-110079482D01*
X150244308Y-110041129D01*
X150300737Y-110001618D01*
X150330649Y-109987669D01*
X150362955Y-109967667D01*
X150425546Y-109943419D01*
X150482499Y-109916862D01*
X150520119Y-109906781D01*
X150561014Y-109890939D01*
X150621304Y-109879668D01*
X150676216Y-109864955D01*
X150720950Y-109861041D01*
X150769799Y-109851910D01*
X150825328Y-109851910D01*
X150876000Y-109847477D01*
X150926672Y-109851910D01*
G37*
G36*
X127554604Y-109035590D02*
G01*
X127595696Y-109035590D01*
X127641456Y-109044144D01*
X127693531Y-109049273D01*
X127733091Y-109061273D01*
X127768111Y-109067820D01*
X127816617Y-109086611D01*
X127871932Y-109103391D01*
X127903534Y-109120282D01*
X127931656Y-109131177D01*
X127980513Y-109161428D01*
X128036347Y-109191272D01*
X128059809Y-109210526D01*
X128080784Y-109223514D01*
X128127256Y-109265879D01*
X128180459Y-109309541D01*
X128196224Y-109328751D01*
X128210400Y-109341674D01*
X128251557Y-109396174D01*
X128298728Y-109453653D01*
X128307848Y-109470717D01*
X128316099Y-109481642D01*
X128348925Y-109547566D01*
X128386609Y-109618068D01*
X128390628Y-109631316D01*
X128394282Y-109638655D01*
X128415864Y-109714507D01*
X128440727Y-109796469D01*
X128441543Y-109804762D01*
X128442280Y-109807350D01*
X128449937Y-109889982D01*
X128459000Y-109982000D01*
X128449936Y-110074026D01*
X128442280Y-110156649D01*
X128441544Y-110159235D01*
X128440727Y-110167531D01*
X128415859Y-110249507D01*
X128394282Y-110325344D01*
X128390628Y-110332680D01*
X128386609Y-110345932D01*
X128348917Y-110416447D01*
X128316099Y-110482357D01*
X128307850Y-110493279D01*
X128298728Y-110510347D01*
X128251547Y-110567836D01*
X128210400Y-110622325D01*
X128196227Y-110635244D01*
X128180459Y-110654459D01*
X128127245Y-110698129D01*
X128080784Y-110740485D01*
X128059814Y-110753469D01*
X128036347Y-110772728D01*
X127980502Y-110802577D01*
X127931656Y-110832822D01*
X127903541Y-110843713D01*
X127871932Y-110860609D01*
X127816605Y-110877392D01*
X127768111Y-110896179D01*
X127733098Y-110902724D01*
X127693531Y-110914727D01*
X127641453Y-110919856D01*
X127595696Y-110928410D01*
X127554604Y-110928410D01*
X127508000Y-110933000D01*
X127461396Y-110928410D01*
X127420304Y-110928410D01*
X127374545Y-110919856D01*
X127322469Y-110914727D01*
X127282902Y-110902724D01*
X127247888Y-110896179D01*
X127199389Y-110877390D01*
X127144068Y-110860609D01*
X127112461Y-110843714D01*
X127084343Y-110832822D01*
X127035490Y-110802573D01*
X126979653Y-110772728D01*
X126956188Y-110753471D01*
X126935215Y-110740485D01*
X126888744Y-110698121D01*
X126835541Y-110654459D01*
X126819775Y-110635248D01*
X126805599Y-110622325D01*
X126764439Y-110567821D01*
X126717272Y-110510347D01*
X126708151Y-110493284D01*
X126699900Y-110482357D01*
X126667067Y-110416420D01*
X126629391Y-110345932D01*
X126625372Y-110332685D01*
X126621717Y-110325344D01*
X126600124Y-110249454D01*
X126575273Y-110167531D01*
X126574456Y-110159241D01*
X126573719Y-110156649D01*
X126566046Y-110073854D01*
X126557000Y-109982000D01*
X126566045Y-109890153D01*
X126573719Y-109807350D01*
X126574456Y-109804757D01*
X126575273Y-109796469D01*
X126600119Y-109714560D01*
X126621717Y-109638655D01*
X126625373Y-109631311D01*
X126629391Y-109618068D01*
X126667060Y-109547593D01*
X126699900Y-109481642D01*
X126708153Y-109470712D01*
X126717272Y-109453653D01*
X126764430Y-109396190D01*
X126805599Y-109341674D01*
X126819778Y-109328747D01*
X126835541Y-109309541D01*
X126888733Y-109265887D01*
X126935215Y-109223514D01*
X126956193Y-109210524D01*
X126979653Y-109191272D01*
X127035478Y-109161432D01*
X127084343Y-109131177D01*
X127112467Y-109120281D01*
X127144068Y-109103391D01*
X127199377Y-109086612D01*
X127247888Y-109067820D01*
X127282909Y-109061273D01*
X127322469Y-109049273D01*
X127374542Y-109044144D01*
X127420304Y-109035590D01*
X127461396Y-109035590D01*
X127508000Y-109031000D01*
X127554604Y-109035590D01*
G37*
G36*
X137643413Y-109135098D02*
G01*
X137807032Y-109167644D01*
X137961159Y-109231485D01*
X138099869Y-109324168D01*
X138217832Y-109442131D01*
X138310515Y-109580841D01*
X138374356Y-109734968D01*
X138406902Y-109898587D01*
X138406902Y-110065413D01*
X138374356Y-110229032D01*
X138310515Y-110383159D01*
X138217832Y-110521869D01*
X138099869Y-110639832D01*
X137961159Y-110732515D01*
X137807032Y-110796356D01*
X137643413Y-110828902D01*
X137560000Y-110833000D01*
X137556939Y-110833000D01*
X136763061Y-110833000D01*
X136760000Y-110833000D01*
X136676587Y-110828902D01*
X136512968Y-110796356D01*
X136358841Y-110732515D01*
X136220131Y-110639832D01*
X136102168Y-110521869D01*
X136009485Y-110383159D01*
X135945644Y-110229032D01*
X135913098Y-110065413D01*
X135913098Y-109898587D01*
X135945644Y-109734968D01*
X136009485Y-109580841D01*
X136102168Y-109442131D01*
X136220131Y-109324168D01*
X136358841Y-109231485D01*
X136512968Y-109167644D01*
X136676587Y-109135098D01*
X136760000Y-109131000D01*
X137560000Y-109131000D01*
X137643413Y-109135098D01*
G37*
G36*
X145263413Y-109135098D02*
G01*
X145427032Y-109167644D01*
X145581159Y-109231485D01*
X145719869Y-109324168D01*
X145837832Y-109442131D01*
X145930515Y-109580841D01*
X145994356Y-109734968D01*
X146026902Y-109898587D01*
X146026902Y-110065413D01*
X145994356Y-110229032D01*
X145930515Y-110383159D01*
X145837832Y-110521869D01*
X145719869Y-110639832D01*
X145581159Y-110732515D01*
X145427032Y-110796356D01*
X145263413Y-110828902D01*
X145180000Y-110833000D01*
X145176939Y-110833000D01*
X144383061Y-110833000D01*
X144380000Y-110833000D01*
X144296587Y-110828902D01*
X144132968Y-110796356D01*
X143978841Y-110732515D01*
X143840131Y-110639832D01*
X143722168Y-110521869D01*
X143629485Y-110383159D01*
X143565644Y-110229032D01*
X143533098Y-110065413D01*
X143533098Y-109898587D01*
X143565644Y-109734968D01*
X143629485Y-109580841D01*
X143722168Y-109442131D01*
X143840131Y-109324168D01*
X143978841Y-109231485D01*
X144132968Y-109167644D01*
X144296587Y-109135098D01*
X144380000Y-109131000D01*
X145180000Y-109131000D01*
X145263413Y-109135098D01*
G37*
G36*
X151995517Y-106294882D02*
G01*
X152012062Y-106305938D01*
X152023118Y-106322483D01*
X152027000Y-106342000D01*
X152027000Y-108542000D01*
X152023118Y-108561517D01*
X152012062Y-108578062D01*
X151995517Y-108589118D01*
X151976000Y-108593000D01*
X149776000Y-108593000D01*
X149756483Y-108589118D01*
X149739938Y-108578062D01*
X149728882Y-108561517D01*
X149725000Y-108542000D01*
X149725000Y-106342000D01*
X149728882Y-106322483D01*
X149739938Y-106305938D01*
X149756483Y-106294882D01*
X149776000Y-106291000D01*
X151976000Y-106291000D01*
X151995517Y-106294882D01*
G37*
G36*
X161086672Y-106295910D02*
G01*
X161142201Y-106295910D01*
X161191050Y-106305041D01*
X161235783Y-106308955D01*
X161290691Y-106323667D01*
X161350986Y-106334939D01*
X161391882Y-106350782D01*
X161429500Y-106360862D01*
X161486449Y-106387417D01*
X161549045Y-106411667D01*
X161581350Y-106431669D01*
X161611263Y-106445618D01*
X161667688Y-106485127D01*
X161729632Y-106523482D01*
X161753378Y-106545130D01*
X161775539Y-106560647D01*
X161828543Y-106613651D01*
X161886599Y-106666576D01*
X161902424Y-106687532D01*
X161917352Y-106702460D01*
X161963922Y-106768969D01*
X162014600Y-106836077D01*
X162023677Y-106854307D01*
X162032381Y-106866737D01*
X162069430Y-106946191D01*
X162109276Y-107026211D01*
X162113239Y-107040139D01*
X162117137Y-107048499D01*
X162141709Y-107140204D01*
X162167402Y-107230504D01*
X162168192Y-107239039D01*
X162169044Y-107242216D01*
X162178447Y-107349707D01*
X162187000Y-107442000D01*
X162178447Y-107534299D01*
X162169044Y-107641783D01*
X162168193Y-107644958D01*
X162167402Y-107653496D01*
X162141705Y-107743811D01*
X162117137Y-107835500D01*
X162113239Y-107843857D01*
X162109276Y-107857789D01*
X162069427Y-107937815D01*
X162032381Y-108017263D01*
X162023678Y-108029691D01*
X162014600Y-108047923D01*
X161963917Y-108115037D01*
X161917352Y-108181539D01*
X161902427Y-108196463D01*
X161886599Y-108217424D01*
X161828532Y-108270358D01*
X161775539Y-108323352D01*
X161753383Y-108338865D01*
X161729632Y-108360518D01*
X161667675Y-108398879D01*
X161611263Y-108438381D01*
X161581357Y-108452325D01*
X161549045Y-108472333D01*
X161486436Y-108496587D01*
X161429500Y-108523137D01*
X161391890Y-108533214D01*
X161350986Y-108549061D01*
X161290679Y-108560334D01*
X161235783Y-108575044D01*
X161191060Y-108578956D01*
X161142201Y-108588090D01*
X161086660Y-108588090D01*
X161036000Y-108592522D01*
X160985340Y-108588090D01*
X160929799Y-108588090D01*
X160880940Y-108578956D01*
X160836216Y-108575044D01*
X160781317Y-108560333D01*
X160721014Y-108549061D01*
X160680111Y-108533215D01*
X160642499Y-108523137D01*
X160585557Y-108496585D01*
X160522955Y-108472333D01*
X160490645Y-108452327D01*
X160460736Y-108438381D01*
X160404315Y-108398874D01*
X160342368Y-108360518D01*
X160318619Y-108338868D01*
X160296460Y-108323352D01*
X160243456Y-108270348D01*
X160185401Y-108217424D01*
X160169575Y-108196467D01*
X160154647Y-108181539D01*
X160108069Y-108115019D01*
X160057400Y-108047923D01*
X160048324Y-108029696D01*
X160039618Y-108017263D01*
X160002556Y-107937783D01*
X159962724Y-107857789D01*
X159958761Y-107843863D01*
X159954862Y-107835500D01*
X159930277Y-107743751D01*
X159904598Y-107653496D01*
X159903807Y-107644964D01*
X159902955Y-107641783D01*
X159893534Y-107534106D01*
X159885000Y-107442000D01*
X159893534Y-107349900D01*
X159902955Y-107242216D01*
X159903807Y-107239034D01*
X159904598Y-107230504D01*
X159930273Y-107140264D01*
X159954862Y-107048499D01*
X159958762Y-107040134D01*
X159962724Y-107026211D01*
X160002553Y-106946222D01*
X160039618Y-106866737D01*
X160048324Y-106854302D01*
X160057400Y-106836077D01*
X160108063Y-106768987D01*
X160154647Y-106702460D01*
X160169578Y-106687528D01*
X160185401Y-106666576D01*
X160243444Y-106613662D01*
X160296460Y-106560647D01*
X160318624Y-106545127D01*
X160342368Y-106523482D01*
X160404308Y-106485129D01*
X160460737Y-106445618D01*
X160490649Y-106431669D01*
X160522955Y-106411667D01*
X160585546Y-106387419D01*
X160642499Y-106360862D01*
X160680119Y-106350781D01*
X160721014Y-106334939D01*
X160781304Y-106323668D01*
X160836216Y-106308955D01*
X160880950Y-106305041D01*
X160929799Y-106295910D01*
X160985328Y-106295910D01*
X161036000Y-106291477D01*
X161086672Y-106295910D01*
G37*
G36*
X128427517Y-106494882D02*
G01*
X128444062Y-106505938D01*
X128455118Y-106522483D01*
X128459000Y-106542000D01*
X128459000Y-108342000D01*
X128455118Y-108361517D01*
X128444062Y-108378062D01*
X128427517Y-108389118D01*
X128408000Y-108393000D01*
X126608000Y-108393000D01*
X126588483Y-108389118D01*
X126571938Y-108378062D01*
X126560882Y-108361517D01*
X126557000Y-108342000D01*
X126557000Y-106542000D01*
X126560882Y-106522483D01*
X126571938Y-106505938D01*
X126588483Y-106494882D01*
X126608000Y-106491000D01*
X128408000Y-106491000D01*
X128427517Y-106494882D01*
G37*
G36*
X137643413Y-106595098D02*
G01*
X137807032Y-106627644D01*
X137961159Y-106691485D01*
X138099869Y-106784168D01*
X138217832Y-106902131D01*
X138310515Y-107040841D01*
X138374356Y-107194968D01*
X138406902Y-107358587D01*
X138406902Y-107525413D01*
X138374356Y-107689032D01*
X138310515Y-107843159D01*
X138217832Y-107981869D01*
X138099869Y-108099832D01*
X137961159Y-108192515D01*
X137807032Y-108256356D01*
X137643413Y-108288902D01*
X137560000Y-108293000D01*
X137556939Y-108293000D01*
X136763061Y-108293000D01*
X136760000Y-108293000D01*
X136676587Y-108288902D01*
X136512968Y-108256356D01*
X136358841Y-108192515D01*
X136220131Y-108099832D01*
X136102168Y-107981869D01*
X136009485Y-107843159D01*
X135945644Y-107689032D01*
X135913098Y-107525413D01*
X135913098Y-107358587D01*
X135945644Y-107194968D01*
X136009485Y-107040841D01*
X136102168Y-106902131D01*
X136220131Y-106784168D01*
X136358841Y-106691485D01*
X136512968Y-106627644D01*
X136676587Y-106595098D01*
X136760000Y-106591000D01*
X137560000Y-106591000D01*
X137643413Y-106595098D01*
G37*
G36*
X145263413Y-106595098D02*
G01*
X145427032Y-106627644D01*
X145581159Y-106691485D01*
X145719869Y-106784168D01*
X145837832Y-106902131D01*
X145930515Y-107040841D01*
X145994356Y-107194968D01*
X146026902Y-107358587D01*
X146026902Y-107525413D01*
X145994356Y-107689032D01*
X145930515Y-107843159D01*
X145837832Y-107981869D01*
X145719869Y-108099832D01*
X145581159Y-108192515D01*
X145427032Y-108256356D01*
X145263413Y-108288902D01*
X145180000Y-108293000D01*
X145176939Y-108293000D01*
X144383061Y-108293000D01*
X144380000Y-108293000D01*
X144296587Y-108288902D01*
X144132968Y-108256356D01*
X143978841Y-108192515D01*
X143840131Y-108099832D01*
X143722168Y-107981869D01*
X143629485Y-107843159D01*
X143565644Y-107689032D01*
X143533098Y-107525413D01*
X143533098Y-107358587D01*
X143565644Y-107194968D01*
X143629485Y-107040841D01*
X143722168Y-106902131D01*
X143840131Y-106784168D01*
X143978841Y-106691485D01*
X144132968Y-106627644D01*
X144296587Y-106595098D01*
X144380000Y-106591000D01*
X145180000Y-106591000D01*
X145263413Y-106595098D01*
G37*
G36*
X133391199Y-105833662D02*
G01*
X133438954Y-105833662D01*
X133480194Y-105842427D01*
X133515901Y-105845945D01*
X133560759Y-105859552D01*
X133612973Y-105870651D01*
X133646384Y-105885526D01*
X133675435Y-105894339D01*
X133721602Y-105919015D01*
X133775500Y-105943012D01*
X133800554Y-105961215D01*
X133822453Y-105972920D01*
X133867128Y-106009584D01*
X133919430Y-106047584D01*
X133936411Y-106066443D01*
X133951320Y-106078679D01*
X133991387Y-106127501D01*
X134038473Y-106179795D01*
X134048364Y-106196927D01*
X134057079Y-106207546D01*
X134089306Y-106267840D01*
X134127427Y-106333867D01*
X134131813Y-106347368D01*
X134135660Y-106354564D01*
X134156861Y-106424455D01*
X134182404Y-106503067D01*
X134183303Y-106511623D01*
X134184054Y-106514098D01*
X134191371Y-106588389D01*
X134201000Y-106680000D01*
X134191370Y-106771619D01*
X134184054Y-106845901D01*
X134183303Y-106848375D01*
X134182404Y-106856933D01*
X134156856Y-106935558D01*
X134135660Y-107005435D01*
X134131814Y-107012629D01*
X134127427Y-107026133D01*
X134089299Y-107092172D01*
X134057079Y-107152453D01*
X134048366Y-107163069D01*
X134038473Y-107180205D01*
X133991378Y-107232509D01*
X133951320Y-107281320D01*
X133936414Y-107293552D01*
X133919430Y-107312416D01*
X133867118Y-107350423D01*
X133822453Y-107387079D01*
X133800559Y-107398780D01*
X133775500Y-107416988D01*
X133721591Y-107440989D01*
X133675435Y-107465660D01*
X133646391Y-107474470D01*
X133612973Y-107489349D01*
X133560748Y-107500449D01*
X133515901Y-107514054D01*
X133480203Y-107517570D01*
X133438954Y-107526338D01*
X133391188Y-107526338D01*
X133350000Y-107530395D01*
X133308811Y-107526338D01*
X133261046Y-107526338D01*
X133219797Y-107517570D01*
X133184098Y-107514054D01*
X133139248Y-107500448D01*
X133087027Y-107489349D01*
X133053610Y-107474471D01*
X133024564Y-107465660D01*
X132978402Y-107440986D01*
X132924500Y-107416988D01*
X132899443Y-107398783D01*
X132877546Y-107387079D01*
X132832873Y-107350416D01*
X132780570Y-107312416D01*
X132763588Y-107293555D01*
X132748679Y-107281320D01*
X132708610Y-107232496D01*
X132661527Y-107180205D01*
X132651636Y-107163073D01*
X132642920Y-107152453D01*
X132610687Y-107092148D01*
X132572573Y-107026133D01*
X132568186Y-107012634D01*
X132564339Y-107005435D01*
X132543128Y-106935512D01*
X132517596Y-106856933D01*
X132516697Y-106848380D01*
X132515945Y-106845901D01*
X132508613Y-106771467D01*
X132499000Y-106680000D01*
X132508612Y-106588540D01*
X132515945Y-106514098D01*
X132516697Y-106511618D01*
X132517596Y-106503067D01*
X132543123Y-106424502D01*
X132564339Y-106354564D01*
X132568187Y-106347363D01*
X132572573Y-106333867D01*
X132610680Y-106267863D01*
X132642920Y-106207546D01*
X132651638Y-106196923D01*
X132661527Y-106179795D01*
X132708601Y-106127513D01*
X132748679Y-106078679D01*
X132763591Y-106066440D01*
X132780570Y-106047584D01*
X132832862Y-106009591D01*
X132877546Y-105972920D01*
X132899448Y-105961213D01*
X132924500Y-105943012D01*
X132978391Y-105919018D01*
X133024564Y-105894339D01*
X133053617Y-105885525D01*
X133087027Y-105870651D01*
X133139237Y-105859553D01*
X133184098Y-105845945D01*
X133219806Y-105842427D01*
X133261046Y-105833662D01*
X133308801Y-105833662D01*
X133350000Y-105829604D01*
X133391199Y-105833662D01*
G37*
G36*
X138379517Y-104054882D02*
G01*
X138396062Y-104065938D01*
X138407118Y-104082483D01*
X138411000Y-104102000D01*
X138411000Y-105702000D01*
X138407118Y-105721517D01*
X138396062Y-105738062D01*
X138379517Y-105749118D01*
X138360000Y-105753000D01*
X135960000Y-105753000D01*
X135940483Y-105749118D01*
X135923938Y-105738062D01*
X135912882Y-105721517D01*
X135909000Y-105702000D01*
X135909000Y-104102000D01*
X135912882Y-104082483D01*
X135923938Y-104065938D01*
X135940483Y-104054882D01*
X135960000Y-104051000D01*
X138360000Y-104051000D01*
X138379517Y-104054882D01*
G37*
G36*
X145263413Y-104055098D02*
G01*
X145427032Y-104087644D01*
X145581159Y-104151485D01*
X145719869Y-104244168D01*
X145837832Y-104362131D01*
X145930515Y-104500841D01*
X145994356Y-104654968D01*
X146026902Y-104818587D01*
X146026902Y-104985413D01*
X145994356Y-105149032D01*
X145930515Y-105303159D01*
X145837832Y-105441869D01*
X145719869Y-105559832D01*
X145581159Y-105652515D01*
X145427032Y-105716356D01*
X145263413Y-105748902D01*
X145180000Y-105753000D01*
X145176939Y-105753000D01*
X144383061Y-105753000D01*
X144380000Y-105753000D01*
X144296587Y-105748902D01*
X144132968Y-105716356D01*
X143978841Y-105652515D01*
X143840131Y-105559832D01*
X143722168Y-105441869D01*
X143629485Y-105303159D01*
X143565644Y-105149032D01*
X143533098Y-104985413D01*
X143533098Y-104818587D01*
X143565644Y-104654968D01*
X143629485Y-104500841D01*
X143722168Y-104362131D01*
X143840131Y-104244168D01*
X143978841Y-104151485D01*
X144132968Y-104087644D01*
X144296587Y-104055098D01*
X144380000Y-104051000D01*
X145180000Y-104051000D01*
X145263413Y-104055098D01*
G37*
G36*
X133391199Y-103333662D02*
G01*
X133438954Y-103333662D01*
X133480194Y-103342427D01*
X133515901Y-103345945D01*
X133560759Y-103359552D01*
X133612973Y-103370651D01*
X133646384Y-103385526D01*
X133675435Y-103394339D01*
X133721602Y-103419015D01*
X133775500Y-103443012D01*
X133800554Y-103461215D01*
X133822453Y-103472920D01*
X133867128Y-103509584D01*
X133919430Y-103547584D01*
X133936411Y-103566443D01*
X133951320Y-103578679D01*
X133991387Y-103627501D01*
X134038473Y-103679795D01*
X134048364Y-103696927D01*
X134057079Y-103707546D01*
X134089306Y-103767840D01*
X134127427Y-103833867D01*
X134131813Y-103847368D01*
X134135660Y-103854564D01*
X134156861Y-103924455D01*
X134182404Y-104003067D01*
X134183303Y-104011623D01*
X134184054Y-104014098D01*
X134191371Y-104088389D01*
X134201000Y-104180000D01*
X134191370Y-104271619D01*
X134184054Y-104345901D01*
X134183303Y-104348375D01*
X134182404Y-104356933D01*
X134156856Y-104435558D01*
X134135660Y-104505435D01*
X134131814Y-104512629D01*
X134127427Y-104526133D01*
X134089299Y-104592172D01*
X134057079Y-104652453D01*
X134048366Y-104663069D01*
X134038473Y-104680205D01*
X133991378Y-104732509D01*
X133951320Y-104781320D01*
X133936414Y-104793552D01*
X133919430Y-104812416D01*
X133867118Y-104850423D01*
X133822453Y-104887079D01*
X133800559Y-104898780D01*
X133775500Y-104916988D01*
X133721591Y-104940989D01*
X133675435Y-104965660D01*
X133646391Y-104974470D01*
X133612973Y-104989349D01*
X133560748Y-105000449D01*
X133515901Y-105014054D01*
X133480203Y-105017570D01*
X133438954Y-105026338D01*
X133391188Y-105026338D01*
X133350000Y-105030395D01*
X133308811Y-105026338D01*
X133261046Y-105026338D01*
X133219797Y-105017570D01*
X133184098Y-105014054D01*
X133139248Y-105000448D01*
X133087027Y-104989349D01*
X133053610Y-104974471D01*
X133024564Y-104965660D01*
X132978402Y-104940986D01*
X132924500Y-104916988D01*
X132899443Y-104898783D01*
X132877546Y-104887079D01*
X132832873Y-104850416D01*
X132780570Y-104812416D01*
X132763588Y-104793555D01*
X132748679Y-104781320D01*
X132708610Y-104732496D01*
X132661527Y-104680205D01*
X132651636Y-104663073D01*
X132642920Y-104652453D01*
X132610687Y-104592148D01*
X132572573Y-104526133D01*
X132568186Y-104512634D01*
X132564339Y-104505435D01*
X132543128Y-104435512D01*
X132517596Y-104356933D01*
X132516697Y-104348380D01*
X132515945Y-104345901D01*
X132508613Y-104271467D01*
X132499000Y-104180000D01*
X132508612Y-104088540D01*
X132515945Y-104014098D01*
X132516697Y-104011618D01*
X132517596Y-104003067D01*
X132543123Y-103924502D01*
X132564339Y-103854564D01*
X132568187Y-103847363D01*
X132572573Y-103833867D01*
X132610680Y-103767863D01*
X132642920Y-103707546D01*
X132651638Y-103696923D01*
X132661527Y-103679795D01*
X132708601Y-103627513D01*
X132748679Y-103578679D01*
X132763591Y-103566440D01*
X132780570Y-103547584D01*
X132832862Y-103509591D01*
X132877546Y-103472920D01*
X132899448Y-103461213D01*
X132924500Y-103443012D01*
X132978391Y-103419018D01*
X133024564Y-103394339D01*
X133053617Y-103385525D01*
X133087027Y-103370651D01*
X133139237Y-103359553D01*
X133184098Y-103345945D01*
X133219806Y-103342427D01*
X133261046Y-103333662D01*
X133308801Y-103333662D01*
X133350000Y-103329604D01*
X133391199Y-103333662D01*
G37*
G36*
X126702914Y-88580995D02*
G01*
X126718726Y-88587976D01*
X126726531Y-88589213D01*
X126759039Y-88605776D01*
X126804106Y-88625676D01*
X126882324Y-88703894D01*
X126902226Y-88748967D01*
X126918786Y-88781468D01*
X126920021Y-88789270D01*
X126927005Y-88805086D01*
X126935000Y-88874000D01*
X126935000Y-91974000D01*
X126927005Y-92042914D01*
X126920021Y-92058729D01*
X126918786Y-92066531D01*
X126902229Y-92099024D01*
X126882324Y-92144106D01*
X126804106Y-92222324D01*
X126759024Y-92242229D01*
X126726531Y-92258786D01*
X126718729Y-92260021D01*
X126702914Y-92267005D01*
X126634000Y-92275000D01*
X125334000Y-92275000D01*
X125265086Y-92267005D01*
X125249270Y-92260021D01*
X125241468Y-92258786D01*
X125208967Y-92242226D01*
X125163894Y-92222324D01*
X125085676Y-92144106D01*
X125065776Y-92099039D01*
X125049213Y-92066531D01*
X125047976Y-92058726D01*
X125040995Y-92042914D01*
X125033000Y-91974000D01*
X125033000Y-88874000D01*
X125040995Y-88805086D01*
X125047976Y-88789274D01*
X125049213Y-88781468D01*
X125065780Y-88748953D01*
X125085676Y-88703894D01*
X125163894Y-88625676D01*
X125208953Y-88605780D01*
X125241468Y-88589213D01*
X125249274Y-88587976D01*
X125265086Y-88580995D01*
X125334000Y-88573000D01*
X126634000Y-88573000D01*
X126702914Y-88580995D01*
G37*
G36*
X151594914Y-88580995D02*
G01*
X151610726Y-88587976D01*
X151618531Y-88589213D01*
X151651039Y-88605776D01*
X151696106Y-88625676D01*
X151774324Y-88703894D01*
X151794226Y-88748967D01*
X151810786Y-88781468D01*
X151812021Y-88789270D01*
X151819005Y-88805086D01*
X151827000Y-88874000D01*
X151827000Y-91974000D01*
X151819005Y-92042914D01*
X151812021Y-92058729D01*
X151810786Y-92066531D01*
X151794229Y-92099024D01*
X151774324Y-92144106D01*
X151696106Y-92222324D01*
X151651024Y-92242229D01*
X151618531Y-92258786D01*
X151610729Y-92260021D01*
X151594914Y-92267005D01*
X151526000Y-92275000D01*
X150226000Y-92275000D01*
X150157086Y-92267005D01*
X150141270Y-92260021D01*
X150133468Y-92258786D01*
X150100967Y-92242226D01*
X150055894Y-92222324D01*
X149977676Y-92144106D01*
X149957776Y-92099039D01*
X149941213Y-92066531D01*
X149939976Y-92058726D01*
X149932995Y-92042914D01*
X149925000Y-91974000D01*
X149925000Y-88874000D01*
X149932995Y-88805086D01*
X149939976Y-88789274D01*
X149941213Y-88781468D01*
X149957780Y-88748953D01*
X149977676Y-88703894D01*
X150055894Y-88625676D01*
X150100953Y-88605780D01*
X150133468Y-88589213D01*
X150141274Y-88587976D01*
X150157086Y-88580995D01*
X150226000Y-88573000D01*
X151526000Y-88573000D01*
X151594914Y-88580995D01*
G37*
G36*
X131146553Y-88577579D02*
G01*
X131157214Y-88577579D01*
X131198865Y-88585864D01*
X131285916Y-88599651D01*
X131313918Y-88608749D01*
X131340061Y-88613950D01*
X131376956Y-88629232D01*
X131427784Y-88645748D01*
X131475399Y-88670009D01*
X131512298Y-88685293D01*
X131534463Y-88700103D01*
X131560693Y-88713468D01*
X131631990Y-88765268D01*
X131667308Y-88788867D01*
X131674846Y-88796405D01*
X131681370Y-88801145D01*
X131786854Y-88906629D01*
X131791593Y-88913152D01*
X131799133Y-88920692D01*
X131822734Y-88956014D01*
X131874531Y-89027306D01*
X131887894Y-89053533D01*
X131902707Y-89075702D01*
X131917993Y-89112605D01*
X131942251Y-89160215D01*
X131958764Y-89211035D01*
X131974050Y-89247939D01*
X131979251Y-89274086D01*
X131988348Y-89302083D01*
X132002133Y-89389123D01*
X132010421Y-89430786D01*
X132011180Y-89446241D01*
X132012068Y-89451847D01*
X132014516Y-89514150D01*
X132015000Y-89524000D01*
X132015000Y-91324000D01*
X132014515Y-91333853D01*
X132012068Y-91396152D01*
X132011180Y-91401756D01*
X132010421Y-91417214D01*
X132002132Y-91458880D01*
X131988348Y-91545916D01*
X131979251Y-91573910D01*
X131974050Y-91600061D01*
X131958762Y-91636968D01*
X131942251Y-91687784D01*
X131917995Y-91735388D01*
X131902707Y-91772298D01*
X131887892Y-91794470D01*
X131874531Y-91820693D01*
X131822742Y-91891973D01*
X131799133Y-91927308D01*
X131791591Y-91934849D01*
X131786854Y-91941370D01*
X131681370Y-92046854D01*
X131674849Y-92051591D01*
X131667308Y-92059133D01*
X131631973Y-92082742D01*
X131560693Y-92134531D01*
X131534470Y-92147892D01*
X131512298Y-92162707D01*
X131475388Y-92177995D01*
X131427784Y-92202251D01*
X131376968Y-92218762D01*
X131340061Y-92234050D01*
X131313910Y-92239251D01*
X131285916Y-92248348D01*
X131198875Y-92262133D01*
X131157214Y-92270421D01*
X131146553Y-92270421D01*
X131138585Y-92271683D01*
X130989415Y-92271683D01*
X130981447Y-92270421D01*
X130970786Y-92270421D01*
X130929125Y-92262134D01*
X130842083Y-92248348D01*
X130814086Y-92239251D01*
X130787939Y-92234050D01*
X130751035Y-92218764D01*
X130700215Y-92202251D01*
X130652605Y-92177993D01*
X130615702Y-92162707D01*
X130593533Y-92147894D01*
X130567306Y-92134531D01*
X130496014Y-92082734D01*
X130460692Y-92059133D01*
X130453152Y-92051593D01*
X130446629Y-92046854D01*
X130341145Y-91941370D01*
X130336405Y-91934846D01*
X130328867Y-91927308D01*
X130305268Y-91891990D01*
X130253468Y-91820693D01*
X130240103Y-91794463D01*
X130225293Y-91772298D01*
X130210009Y-91735399D01*
X130185748Y-91687784D01*
X130169232Y-91636956D01*
X130153950Y-91600061D01*
X130148749Y-91573918D01*
X130139651Y-91545916D01*
X130125862Y-91458856D01*
X130117579Y-91417214D01*
X130116820Y-91401765D01*
X130115931Y-91396152D01*
X130113483Y-91333837D01*
X130113000Y-91324000D01*
X130113000Y-89524000D01*
X130113483Y-89514166D01*
X130115931Y-89451847D01*
X130116820Y-89446232D01*
X130117579Y-89430786D01*
X130125861Y-89389147D01*
X130139651Y-89302083D01*
X130148750Y-89274078D01*
X130153950Y-89247939D01*
X130169231Y-89211046D01*
X130185748Y-89160215D01*
X130210011Y-89112595D01*
X130225293Y-89075702D01*
X130240101Y-89053539D01*
X130253468Y-89027306D01*
X130305277Y-88955996D01*
X130328867Y-88920692D01*
X130336402Y-88913156D01*
X130341145Y-88906629D01*
X130446629Y-88801145D01*
X130453156Y-88796402D01*
X130460692Y-88788867D01*
X130495996Y-88765277D01*
X130567306Y-88713468D01*
X130593539Y-88700101D01*
X130615702Y-88685293D01*
X130652595Y-88670011D01*
X130700215Y-88645748D01*
X130751046Y-88629231D01*
X130787939Y-88613950D01*
X130814078Y-88608750D01*
X130842083Y-88599651D01*
X130929136Y-88585863D01*
X130970786Y-88577579D01*
X130981447Y-88577579D01*
X130989415Y-88576317D01*
X131138585Y-88576317D01*
X131146553Y-88577579D01*
G37*
G36*
X156038553Y-88577579D02*
G01*
X156049214Y-88577579D01*
X156090865Y-88585864D01*
X156177916Y-88599651D01*
X156205918Y-88608749D01*
X156232061Y-88613950D01*
X156268956Y-88629232D01*
X156319784Y-88645748D01*
X156367399Y-88670009D01*
X156404298Y-88685293D01*
X156426463Y-88700103D01*
X156452693Y-88713468D01*
X156523990Y-88765268D01*
X156559308Y-88788867D01*
X156566846Y-88796405D01*
X156573370Y-88801145D01*
X156678854Y-88906629D01*
X156683593Y-88913152D01*
X156691133Y-88920692D01*
X156714734Y-88956014D01*
X156766531Y-89027306D01*
X156779894Y-89053533D01*
X156794707Y-89075702D01*
X156809993Y-89112605D01*
X156834251Y-89160215D01*
X156850764Y-89211035D01*
X156866050Y-89247939D01*
X156871251Y-89274086D01*
X156880348Y-89302083D01*
X156894133Y-89389123D01*
X156902421Y-89430786D01*
X156903180Y-89446241D01*
X156904068Y-89451847D01*
X156906516Y-89514150D01*
X156907000Y-89524000D01*
X156907000Y-91324000D01*
X156906515Y-91333853D01*
X156904068Y-91396152D01*
X156903180Y-91401756D01*
X156902421Y-91417214D01*
X156894132Y-91458880D01*
X156880348Y-91545916D01*
X156871251Y-91573910D01*
X156866050Y-91600061D01*
X156850762Y-91636968D01*
X156834251Y-91687784D01*
X156809995Y-91735388D01*
X156794707Y-91772298D01*
X156779892Y-91794470D01*
X156766531Y-91820693D01*
X156714742Y-91891973D01*
X156691133Y-91927308D01*
X156683591Y-91934849D01*
X156678854Y-91941370D01*
X156573370Y-92046854D01*
X156566849Y-92051591D01*
X156559308Y-92059133D01*
X156523973Y-92082742D01*
X156452693Y-92134531D01*
X156426470Y-92147892D01*
X156404298Y-92162707D01*
X156367388Y-92177995D01*
X156319784Y-92202251D01*
X156268968Y-92218762D01*
X156232061Y-92234050D01*
X156205910Y-92239251D01*
X156177916Y-92248348D01*
X156090875Y-92262133D01*
X156049214Y-92270421D01*
X156038553Y-92270421D01*
X156030585Y-92271683D01*
X155881415Y-92271683D01*
X155873447Y-92270421D01*
X155862786Y-92270421D01*
X155821125Y-92262134D01*
X155734083Y-92248348D01*
X155706086Y-92239251D01*
X155679939Y-92234050D01*
X155643035Y-92218764D01*
X155592215Y-92202251D01*
X155544605Y-92177993D01*
X155507702Y-92162707D01*
X155485533Y-92147894D01*
X155459306Y-92134531D01*
X155388014Y-92082734D01*
X155352692Y-92059133D01*
X155345152Y-92051593D01*
X155338629Y-92046854D01*
X155233145Y-91941370D01*
X155228405Y-91934846D01*
X155220867Y-91927308D01*
X155197268Y-91891990D01*
X155145468Y-91820693D01*
X155132103Y-91794463D01*
X155117293Y-91772298D01*
X155102009Y-91735399D01*
X155077748Y-91687784D01*
X155061232Y-91636956D01*
X155045950Y-91600061D01*
X155040749Y-91573918D01*
X155031651Y-91545916D01*
X155017862Y-91458856D01*
X155009579Y-91417214D01*
X155008820Y-91401765D01*
X155007931Y-91396152D01*
X155005483Y-91333837D01*
X155005000Y-91324000D01*
X155005000Y-89524000D01*
X155005483Y-89514166D01*
X155007931Y-89451847D01*
X155008820Y-89446232D01*
X155009579Y-89430786D01*
X155017861Y-89389147D01*
X155031651Y-89302083D01*
X155040750Y-89274078D01*
X155045950Y-89247939D01*
X155061231Y-89211046D01*
X155077748Y-89160215D01*
X155102011Y-89112595D01*
X155117293Y-89075702D01*
X155132101Y-89053539D01*
X155145468Y-89027306D01*
X155197277Y-88955996D01*
X155220867Y-88920692D01*
X155228402Y-88913156D01*
X155233145Y-88906629D01*
X155338629Y-88801145D01*
X155345156Y-88796402D01*
X155352692Y-88788867D01*
X155387996Y-88765277D01*
X155459306Y-88713468D01*
X155485539Y-88700101D01*
X155507702Y-88685293D01*
X155544595Y-88670011D01*
X155592215Y-88645748D01*
X155643046Y-88629231D01*
X155679939Y-88613950D01*
X155706078Y-88608750D01*
X155734083Y-88599651D01*
X155821136Y-88585863D01*
X155862786Y-88577579D01*
X155873447Y-88577579D01*
X155881415Y-88576317D01*
X156030585Y-88576317D01*
X156038553Y-88577579D01*
G37*
M02*
