G04 #@! TF.GenerationSoftware,KiCad,Pcbnew,5.0.2-bee76a0~70~ubuntu18.04.1*
G04 #@! TF.CreationDate,2019-02-10T17:06:00-02:00*
G04 #@! TF.ProjectId,555-gerador-PWM-r01,3535352d-6765-4726-9164-6f722d50574d,rev?*
G04 #@! TF.SameCoordinates,Original*
G04 #@! TF.FileFunction,Legend,Top*
G04 #@! TF.FilePolarity,Positive*
%FSLAX46Y46*%
G04 Gerber Fmt 4.6, Leading zero omitted, Abs format (unit mm)*
G04 Created by KiCad (PCBNEW 5.0.2-bee76a0~70~ubuntu18.04.1) date dom 10 fev 2019 17:06:00 -02*
%MOMM*%
%LPD*%
G01*
G04 APERTURE LIST*
%ADD10C,0.300000*%
%ADD11C,0.120000*%
%ADD12C,0.150000*%
G04 APERTURE END LIST*
D10*
X124667047Y-126539523D02*
X124476571Y-126634761D01*
X124095619Y-126634761D01*
X123905142Y-126539523D01*
X123809904Y-126444285D01*
X123714666Y-126253809D01*
X123714666Y-125682380D01*
X123809904Y-125491904D01*
X123905142Y-125396666D01*
X124095619Y-125301428D01*
X124476571Y-125301428D01*
X124667047Y-125396666D01*
X125809904Y-126634761D02*
X125619428Y-126539523D01*
X125524190Y-126444285D01*
X125428952Y-126253809D01*
X125428952Y-125682380D01*
X125524190Y-125491904D01*
X125619428Y-125396666D01*
X125809904Y-125301428D01*
X126095619Y-125301428D01*
X126286095Y-125396666D01*
X126381333Y-125491904D01*
X126476571Y-125682380D01*
X126476571Y-126253809D01*
X126381333Y-126444285D01*
X126286095Y-126539523D01*
X126095619Y-126634761D01*
X125809904Y-126634761D01*
X127333714Y-126634761D02*
X127333714Y-125301428D01*
X127333714Y-125491904D02*
X127428952Y-125396666D01*
X127619428Y-125301428D01*
X127905142Y-125301428D01*
X128095619Y-125396666D01*
X128190857Y-125587142D01*
X128190857Y-126634761D01*
X128190857Y-125587142D02*
X128286095Y-125396666D01*
X128476571Y-125301428D01*
X128762285Y-125301428D01*
X128952761Y-125396666D01*
X129048000Y-125587142D01*
X129048000Y-126634761D01*
X132476571Y-124634761D02*
X131524190Y-124634761D01*
X131428952Y-125587142D01*
X131524190Y-125491904D01*
X131714666Y-125396666D01*
X132190857Y-125396666D01*
X132381333Y-125491904D01*
X132476571Y-125587142D01*
X132571809Y-125777619D01*
X132571809Y-126253809D01*
X132476571Y-126444285D01*
X132381333Y-126539523D01*
X132190857Y-126634761D01*
X131714666Y-126634761D01*
X131524190Y-126539523D01*
X131428952Y-126444285D01*
X134381333Y-124634761D02*
X133428952Y-124634761D01*
X133333714Y-125587142D01*
X133428952Y-125491904D01*
X133619428Y-125396666D01*
X134095619Y-125396666D01*
X134286095Y-125491904D01*
X134381333Y-125587142D01*
X134476571Y-125777619D01*
X134476571Y-126253809D01*
X134381333Y-126444285D01*
X134286095Y-126539523D01*
X134095619Y-126634761D01*
X133619428Y-126634761D01*
X133428952Y-126539523D01*
X133333714Y-126444285D01*
X136286095Y-124634761D02*
X135333714Y-124634761D01*
X135238476Y-125587142D01*
X135333714Y-125491904D01*
X135524190Y-125396666D01*
X136000380Y-125396666D01*
X136190857Y-125491904D01*
X136286095Y-125587142D01*
X136381333Y-125777619D01*
X136381333Y-126253809D01*
X136286095Y-126444285D01*
X136190857Y-126539523D01*
X136000380Y-126634761D01*
X135524190Y-126634761D01*
X135333714Y-126539523D01*
X135238476Y-126444285D01*
X121968666Y-122190000D02*
X121778190Y-122094761D01*
X121492476Y-122094761D01*
X121206761Y-122190000D01*
X121016285Y-122380476D01*
X120921047Y-122570952D01*
X120825809Y-122951904D01*
X120825809Y-123237619D01*
X120921047Y-123618571D01*
X121016285Y-123809047D01*
X121206761Y-123999523D01*
X121492476Y-124094761D01*
X121682952Y-124094761D01*
X121968666Y-123999523D01*
X122063904Y-123904285D01*
X122063904Y-123237619D01*
X121682952Y-123237619D01*
X123682952Y-123999523D02*
X123492476Y-124094761D01*
X123111523Y-124094761D01*
X122921047Y-123999523D01*
X122825809Y-123809047D01*
X122825809Y-123047142D01*
X122921047Y-122856666D01*
X123111523Y-122761428D01*
X123492476Y-122761428D01*
X123682952Y-122856666D01*
X123778190Y-123047142D01*
X123778190Y-123237619D01*
X122825809Y-123428095D01*
X124635333Y-124094761D02*
X124635333Y-122761428D01*
X124635333Y-123142380D02*
X124730571Y-122951904D01*
X124825809Y-122856666D01*
X125016285Y-122761428D01*
X125206761Y-122761428D01*
X126730571Y-124094761D02*
X126730571Y-123047142D01*
X126635333Y-122856666D01*
X126444857Y-122761428D01*
X126063904Y-122761428D01*
X125873428Y-122856666D01*
X126730571Y-123999523D02*
X126540095Y-124094761D01*
X126063904Y-124094761D01*
X125873428Y-123999523D01*
X125778190Y-123809047D01*
X125778190Y-123618571D01*
X125873428Y-123428095D01*
X126063904Y-123332857D01*
X126540095Y-123332857D01*
X126730571Y-123237619D01*
X128540095Y-124094761D02*
X128540095Y-122094761D01*
X128540095Y-123999523D02*
X128349619Y-124094761D01*
X127968666Y-124094761D01*
X127778190Y-123999523D01*
X127682952Y-123904285D01*
X127587714Y-123713809D01*
X127587714Y-123142380D01*
X127682952Y-122951904D01*
X127778190Y-122856666D01*
X127968666Y-122761428D01*
X128349619Y-122761428D01*
X128540095Y-122856666D01*
X129778190Y-124094761D02*
X129587714Y-123999523D01*
X129492476Y-123904285D01*
X129397238Y-123713809D01*
X129397238Y-123142380D01*
X129492476Y-122951904D01*
X129587714Y-122856666D01*
X129778190Y-122761428D01*
X130063904Y-122761428D01*
X130254380Y-122856666D01*
X130349619Y-122951904D01*
X130444857Y-123142380D01*
X130444857Y-123713809D01*
X130349619Y-123904285D01*
X130254380Y-123999523D01*
X130063904Y-124094761D01*
X129778190Y-124094761D01*
X131302000Y-124094761D02*
X131302000Y-122761428D01*
X131302000Y-123142380D02*
X131397238Y-122951904D01*
X131492476Y-122856666D01*
X131682952Y-122761428D01*
X131873428Y-122761428D01*
X134063904Y-124094761D02*
X134063904Y-122094761D01*
X134825809Y-122094761D01*
X135016285Y-122190000D01*
X135111523Y-122285238D01*
X135206761Y-122475714D01*
X135206761Y-122761428D01*
X135111523Y-122951904D01*
X135016285Y-123047142D01*
X134825809Y-123142380D01*
X134063904Y-123142380D01*
X135873428Y-122094761D02*
X136349619Y-124094761D01*
X136730571Y-122666190D01*
X137111523Y-124094761D01*
X137587714Y-122094761D01*
X138349619Y-124094761D02*
X138349619Y-122094761D01*
X139016285Y-123523333D01*
X139682952Y-122094761D01*
X139682952Y-124094761D01*
X132778571Y-108565142D02*
X133921428Y-108565142D01*
X133350000Y-109136571D02*
X133350000Y-107993714D01*
X139390571Y-100016571D02*
X138676285Y-100016571D01*
X138604857Y-100730857D01*
X138676285Y-100659428D01*
X138819142Y-100588000D01*
X139176285Y-100588000D01*
X139319142Y-100659428D01*
X139390571Y-100730857D01*
X139462000Y-100873714D01*
X139462000Y-101230857D01*
X139390571Y-101373714D01*
X139319142Y-101445142D01*
X139176285Y-101516571D01*
X138819142Y-101516571D01*
X138676285Y-101445142D01*
X138604857Y-101373714D01*
X140819142Y-100016571D02*
X140104857Y-100016571D01*
X140033428Y-100730857D01*
X140104857Y-100659428D01*
X140247714Y-100588000D01*
X140604857Y-100588000D01*
X140747714Y-100659428D01*
X140819142Y-100730857D01*
X140890571Y-100873714D01*
X140890571Y-101230857D01*
X140819142Y-101373714D01*
X140747714Y-101445142D01*
X140604857Y-101516571D01*
X140247714Y-101516571D01*
X140104857Y-101445142D01*
X140033428Y-101373714D01*
X142247714Y-100016571D02*
X141533428Y-100016571D01*
X141462000Y-100730857D01*
X141533428Y-100659428D01*
X141676285Y-100588000D01*
X142033428Y-100588000D01*
X142176285Y-100659428D01*
X142247714Y-100730857D01*
X142319142Y-100873714D01*
X142319142Y-101230857D01*
X142247714Y-101373714D01*
X142176285Y-101445142D01*
X142033428Y-101516571D01*
X141676285Y-101516571D01*
X141533428Y-101445142D01*
X141462000Y-101373714D01*
X122527142Y-97297142D02*
X122598571Y-97082857D01*
X122598571Y-96725714D01*
X122527142Y-96582857D01*
X122455714Y-96511428D01*
X122312857Y-96440000D01*
X122170000Y-96440000D01*
X122027142Y-96511428D01*
X121955714Y-96582857D01*
X121884285Y-96725714D01*
X121812857Y-97011428D01*
X121741428Y-97154285D01*
X121670000Y-97225714D01*
X121527142Y-97297142D01*
X121384285Y-97297142D01*
X121241428Y-97225714D01*
X121170000Y-97154285D01*
X121098571Y-97011428D01*
X121098571Y-96654285D01*
X121170000Y-96440000D01*
X122598571Y-95154285D02*
X121812857Y-95154285D01*
X121670000Y-95225714D01*
X121598571Y-95368571D01*
X121598571Y-95654285D01*
X121670000Y-95797142D01*
X122527142Y-95154285D02*
X122598571Y-95297142D01*
X122598571Y-95654285D01*
X122527142Y-95797142D01*
X122384285Y-95868571D01*
X122241428Y-95868571D01*
X122098571Y-95797142D01*
X122027142Y-95654285D01*
X122027142Y-95297142D01*
X121955714Y-95154285D01*
X122598571Y-94440000D02*
X121598571Y-94440000D01*
X121027142Y-94297142D02*
X121241428Y-94511428D01*
X122598571Y-93082857D02*
X121098571Y-93082857D01*
X122527142Y-93082857D02*
X122598571Y-93225714D01*
X122598571Y-93511428D01*
X122527142Y-93654285D01*
X122455714Y-93725714D01*
X122312857Y-93797142D01*
X121884285Y-93797142D01*
X121741428Y-93725714D01*
X121670000Y-93654285D01*
X121598571Y-93511428D01*
X121598571Y-93225714D01*
X121670000Y-93082857D01*
X122598571Y-91725714D02*
X121812857Y-91725714D01*
X121670000Y-91797142D01*
X121598571Y-91940000D01*
X121598571Y-92225714D01*
X121670000Y-92368571D01*
X122527142Y-91725714D02*
X122598571Y-91868571D01*
X122598571Y-92225714D01*
X122527142Y-92368571D01*
X122384285Y-92440000D01*
X122241428Y-92440000D01*
X122098571Y-92368571D01*
X122027142Y-92225714D01*
X122027142Y-91868571D01*
X121955714Y-91725714D01*
X122598571Y-89868571D02*
X121098571Y-89868571D01*
X121098571Y-89297142D01*
X121170000Y-89154285D01*
X121241428Y-89082857D01*
X121384285Y-89011428D01*
X121598571Y-89011428D01*
X121741428Y-89082857D01*
X121812857Y-89154285D01*
X121884285Y-89297142D01*
X121884285Y-89868571D01*
X121098571Y-88511428D02*
X122598571Y-88154285D01*
X121527142Y-87868571D01*
X122598571Y-87582857D01*
X121098571Y-87225714D01*
X122598571Y-86654285D02*
X121098571Y-86654285D01*
X122170000Y-86154285D01*
X121098571Y-85654285D01*
X122598571Y-85654285D01*
X159524000Y-91566857D02*
X159452571Y-91709714D01*
X159452571Y-91924000D01*
X159524000Y-92138285D01*
X159666857Y-92281142D01*
X159809714Y-92352571D01*
X160095428Y-92424000D01*
X160309714Y-92424000D01*
X160595428Y-92352571D01*
X160738285Y-92281142D01*
X160881142Y-92138285D01*
X160952571Y-91924000D01*
X160952571Y-91781142D01*
X160881142Y-91566857D01*
X160809714Y-91495428D01*
X160309714Y-91495428D01*
X160309714Y-91781142D01*
X160952571Y-90852571D02*
X159452571Y-90852571D01*
X160952571Y-89995428D01*
X159452571Y-89995428D01*
X160952571Y-89281142D02*
X159452571Y-89281142D01*
X159452571Y-88924000D01*
X159524000Y-88709714D01*
X159666857Y-88566857D01*
X159809714Y-88495428D01*
X160095428Y-88424000D01*
X160309714Y-88424000D01*
X160595428Y-88495428D01*
X160738285Y-88566857D01*
X160881142Y-88709714D01*
X160952571Y-88924000D01*
X160952571Y-89281142D01*
X134886000Y-90804857D02*
X134814571Y-90947714D01*
X134814571Y-91162000D01*
X134886000Y-91376285D01*
X135028857Y-91519142D01*
X135171714Y-91590571D01*
X135457428Y-91662000D01*
X135671714Y-91662000D01*
X135957428Y-91590571D01*
X136100285Y-91519142D01*
X136243142Y-91376285D01*
X136314571Y-91162000D01*
X136314571Y-91019142D01*
X136243142Y-90804857D01*
X136171714Y-90733428D01*
X135671714Y-90733428D01*
X135671714Y-91019142D01*
X136314571Y-90090571D02*
X134814571Y-90090571D01*
X136314571Y-89233428D01*
X134814571Y-89233428D01*
X136314571Y-88519142D02*
X134814571Y-88519142D01*
X134814571Y-88162000D01*
X134886000Y-87947714D01*
X135028857Y-87804857D01*
X135171714Y-87733428D01*
X135457428Y-87662000D01*
X135671714Y-87662000D01*
X135957428Y-87733428D01*
X136100285Y-87804857D01*
X136243142Y-87947714D01*
X136314571Y-88162000D01*
X136314571Y-88519142D01*
X141883142Y-92055142D02*
X143026000Y-92055142D01*
X142454571Y-92626571D02*
X142454571Y-91483714D01*
X144526000Y-92626571D02*
X143668857Y-92626571D01*
X144097428Y-92626571D02*
X144097428Y-91126571D01*
X143954571Y-91340857D01*
X143811714Y-91483714D01*
X143668857Y-91555142D01*
X145097428Y-91269428D02*
X145168857Y-91198000D01*
X145311714Y-91126571D01*
X145668857Y-91126571D01*
X145811714Y-91198000D01*
X145883142Y-91269428D01*
X145954571Y-91412285D01*
X145954571Y-91555142D01*
X145883142Y-91769428D01*
X145026000Y-92626571D01*
X145954571Y-92626571D01*
X146383142Y-91126571D02*
X146883142Y-92626571D01*
X147383142Y-91126571D01*
X144538000Y-90340571D02*
X144538000Y-89554857D01*
X144466571Y-89412000D01*
X144323714Y-89340571D01*
X144038000Y-89340571D01*
X143895142Y-89412000D01*
X144538000Y-90269142D02*
X144395142Y-90340571D01*
X144038000Y-90340571D01*
X143895142Y-90269142D01*
X143823714Y-90126285D01*
X143823714Y-89983428D01*
X143895142Y-89840571D01*
X144038000Y-89769142D01*
X144395142Y-89769142D01*
X144538000Y-89697714D01*
X145038000Y-89340571D02*
X145609428Y-89340571D01*
X145252285Y-88840571D02*
X145252285Y-90126285D01*
X145323714Y-90269142D01*
X145466571Y-90340571D01*
X145609428Y-90340571D01*
X146680857Y-90269142D02*
X146538000Y-90340571D01*
X146252285Y-90340571D01*
X146109428Y-90269142D01*
X146038000Y-90126285D01*
X146038000Y-89554857D01*
X146109428Y-89412000D01*
X146252285Y-89340571D01*
X146538000Y-89340571D01*
X146680857Y-89412000D01*
X146752285Y-89554857D01*
X146752285Y-89697714D01*
X146038000Y-89840571D01*
X146538000Y-88769142D02*
X146323714Y-88983428D01*
X143105428Y-87483142D02*
X144248285Y-87483142D01*
X143676857Y-88054571D02*
X143676857Y-86911714D01*
X145034000Y-88054571D02*
X145319714Y-88054571D01*
X145462571Y-87983142D01*
X145534000Y-87911714D01*
X145676857Y-87697428D01*
X145748285Y-87411714D01*
X145748285Y-86840285D01*
X145676857Y-86697428D01*
X145605428Y-86626000D01*
X145462571Y-86554571D01*
X145176857Y-86554571D01*
X145034000Y-86626000D01*
X144962571Y-86697428D01*
X144891142Y-86840285D01*
X144891142Y-87197428D01*
X144962571Y-87340285D01*
X145034000Y-87411714D01*
X145176857Y-87483142D01*
X145462571Y-87483142D01*
X145605428Y-87411714D01*
X145676857Y-87340285D01*
X145748285Y-87197428D01*
X146176857Y-86554571D02*
X146676857Y-88054571D01*
X147176857Y-86554571D01*
X123988857Y-130448857D02*
X123488857Y-130448857D01*
X123488857Y-131234571D02*
X123488857Y-129734571D01*
X124203142Y-129734571D01*
X124774571Y-131234571D02*
X124774571Y-130234571D01*
X124774571Y-130520285D02*
X124846000Y-130377428D01*
X124917428Y-130306000D01*
X125060285Y-130234571D01*
X125203142Y-130234571D01*
X125703142Y-131234571D02*
X125703142Y-130234571D01*
X125703142Y-129734571D02*
X125631714Y-129806000D01*
X125703142Y-129877428D01*
X125774571Y-129806000D01*
X125703142Y-129734571D01*
X125703142Y-129877428D01*
X126203142Y-130234571D02*
X126774571Y-130234571D01*
X126417428Y-129734571D02*
X126417428Y-131020285D01*
X126488857Y-131163142D01*
X126631714Y-131234571D01*
X126774571Y-131234571D01*
X127131714Y-130234571D02*
X127917428Y-130234571D01*
X127131714Y-131234571D01*
X127917428Y-131234571D01*
X129060285Y-131163142D02*
X128917428Y-131234571D01*
X128631714Y-131234571D01*
X128488857Y-131163142D01*
X128417428Y-131020285D01*
X128417428Y-130448857D01*
X128488857Y-130306000D01*
X128631714Y-130234571D01*
X128917428Y-130234571D01*
X129060285Y-130306000D01*
X129131714Y-130448857D01*
X129131714Y-130591714D01*
X128417428Y-130734571D01*
X129774571Y-130234571D02*
X129774571Y-131234571D01*
X129774571Y-130377428D02*
X129846000Y-130306000D01*
X129988857Y-130234571D01*
X130203142Y-130234571D01*
X130346000Y-130306000D01*
X130417428Y-130448857D01*
X130417428Y-131234571D01*
X131846000Y-131234571D02*
X131131714Y-131234571D01*
X131131714Y-129734571D01*
X132988857Y-131234571D02*
X132988857Y-130448857D01*
X132917428Y-130306000D01*
X132774571Y-130234571D01*
X132488857Y-130234571D01*
X132346000Y-130306000D01*
X132988857Y-131163142D02*
X132846000Y-131234571D01*
X132488857Y-131234571D01*
X132346000Y-131163142D01*
X132274571Y-131020285D01*
X132274571Y-130877428D01*
X132346000Y-130734571D01*
X132488857Y-130663142D01*
X132846000Y-130663142D01*
X132988857Y-130591714D01*
X133703142Y-131234571D02*
X133703142Y-129734571D01*
X133703142Y-130306000D02*
X133846000Y-130234571D01*
X134131714Y-130234571D01*
X134274571Y-130306000D01*
X134346000Y-130377428D01*
X134417428Y-130520285D01*
X134417428Y-130948857D01*
X134346000Y-131091714D01*
X134274571Y-131163142D01*
X134131714Y-131234571D01*
X133846000Y-131234571D01*
X133703142Y-131163142D01*
X135060285Y-131091714D02*
X135131714Y-131163142D01*
X135060285Y-131234571D01*
X134988857Y-131163142D01*
X135060285Y-131091714D01*
X135060285Y-131234571D01*
X136417428Y-131163142D02*
X136274571Y-131234571D01*
X135988857Y-131234571D01*
X135846000Y-131163142D01*
X135774571Y-131091714D01*
X135703142Y-130948857D01*
X135703142Y-130520285D01*
X135774571Y-130377428D01*
X135846000Y-130306000D01*
X135988857Y-130234571D01*
X136274571Y-130234571D01*
X136417428Y-130306000D01*
X137274571Y-131234571D02*
X137131714Y-131163142D01*
X137060285Y-131091714D01*
X136988857Y-130948857D01*
X136988857Y-130520285D01*
X137060285Y-130377428D01*
X137131714Y-130306000D01*
X137274571Y-130234571D01*
X137488857Y-130234571D01*
X137631714Y-130306000D01*
X137703142Y-130377428D01*
X137774571Y-130520285D01*
X137774571Y-130948857D01*
X137703142Y-131091714D01*
X137631714Y-131163142D01*
X137488857Y-131234571D01*
X137274571Y-131234571D01*
X138417428Y-131234571D02*
X138417428Y-130234571D01*
X138417428Y-130377428D02*
X138488857Y-130306000D01*
X138631714Y-130234571D01*
X138846000Y-130234571D01*
X138988857Y-130306000D01*
X139060285Y-130448857D01*
X139060285Y-131234571D01*
X139060285Y-130448857D02*
X139131714Y-130306000D01*
X139274571Y-130234571D01*
X139488857Y-130234571D01*
X139631714Y-130306000D01*
X139703142Y-130448857D01*
X139703142Y-131234571D01*
X140417428Y-131091714D02*
X140488857Y-131163142D01*
X140417428Y-131234571D01*
X140346000Y-131163142D01*
X140417428Y-131091714D01*
X140417428Y-131234571D01*
X141131714Y-131234571D02*
X141131714Y-129734571D01*
X141131714Y-130306000D02*
X141274571Y-130234571D01*
X141560285Y-130234571D01*
X141703142Y-130306000D01*
X141774571Y-130377428D01*
X141846000Y-130520285D01*
X141846000Y-130948857D01*
X141774571Y-131091714D01*
X141703142Y-131163142D01*
X141560285Y-131234571D01*
X141274571Y-131234571D01*
X141131714Y-131163142D01*
X142488857Y-131234571D02*
X142488857Y-130234571D01*
X142488857Y-130520285D02*
X142560285Y-130377428D01*
X142631714Y-130306000D01*
X142774571Y-130234571D01*
X142917428Y-130234571D01*
D11*
G04 #@! TO.C,J2*
X147836000Y-85574000D02*
X149836000Y-85574000D01*
X147836000Y-86824000D02*
X147836000Y-85574000D01*
X157456000Y-92574000D02*
X156706000Y-92574000D01*
X157456000Y-88274000D02*
X157456000Y-92574000D01*
X156706000Y-88274000D02*
X157456000Y-88274000D01*
X156706000Y-87924000D02*
X156706000Y-88274000D01*
X157206000Y-87924000D02*
X156706000Y-87924000D01*
X157456000Y-86924000D02*
X157206000Y-87924000D01*
X154456000Y-86924000D02*
X157456000Y-86924000D01*
X154706000Y-87924000D02*
X154456000Y-86924000D01*
X155206000Y-87924000D02*
X154706000Y-87924000D01*
X155206000Y-88274000D02*
X155206000Y-87924000D01*
X154456000Y-88274000D02*
X155206000Y-88274000D01*
X154456000Y-92574000D02*
X154456000Y-88274000D01*
X155206000Y-92574000D02*
X154456000Y-92574000D01*
X152376000Y-92574000D02*
X151626000Y-92574000D01*
X152376000Y-88274000D02*
X152376000Y-92574000D01*
X151626000Y-88274000D02*
X152376000Y-88274000D01*
X151626000Y-87924000D02*
X151626000Y-88274000D01*
X152126000Y-87924000D02*
X151626000Y-87924000D01*
X152376000Y-86924000D02*
X152126000Y-87924000D01*
X149376000Y-86924000D02*
X152376000Y-86924000D01*
X149626000Y-87924000D02*
X149376000Y-86924000D01*
X150126000Y-87924000D02*
X149626000Y-87924000D01*
X150126000Y-88274000D02*
X150126000Y-87924000D01*
X149376000Y-88274000D02*
X150126000Y-88274000D01*
X149376000Y-92574000D02*
X149376000Y-88274000D01*
X150126000Y-92574000D02*
X149376000Y-92574000D01*
X158606000Y-85964000D02*
X148226000Y-85964000D01*
X158606000Y-93434000D02*
X158606000Y-85964000D01*
X148226000Y-93434000D02*
X158606000Y-93434000D01*
X148226000Y-85964000D02*
X148226000Y-93434000D01*
X156705647Y-92573845D02*
G75*
G03X155206000Y-92574000I-749647J-1700155D01*
G01*
X151625647Y-92573845D02*
G75*
G03X150126000Y-92574000I-749647J-1700155D01*
G01*
G04 #@! TO.C,J1*
X126733647Y-92573845D02*
G75*
G03X125234000Y-92574000I-749647J-1700155D01*
G01*
X131813647Y-92573845D02*
G75*
G03X130314000Y-92574000I-749647J-1700155D01*
G01*
X123334000Y-85964000D02*
X123334000Y-93434000D01*
X123334000Y-93434000D02*
X133714000Y-93434000D01*
X133714000Y-93434000D02*
X133714000Y-85964000D01*
X133714000Y-85964000D02*
X123334000Y-85964000D01*
X125234000Y-92574000D02*
X124484000Y-92574000D01*
X124484000Y-92574000D02*
X124484000Y-88274000D01*
X124484000Y-88274000D02*
X125234000Y-88274000D01*
X125234000Y-88274000D02*
X125234000Y-87924000D01*
X125234000Y-87924000D02*
X124734000Y-87924000D01*
X124734000Y-87924000D02*
X124484000Y-86924000D01*
X124484000Y-86924000D02*
X127484000Y-86924000D01*
X127484000Y-86924000D02*
X127234000Y-87924000D01*
X127234000Y-87924000D02*
X126734000Y-87924000D01*
X126734000Y-87924000D02*
X126734000Y-88274000D01*
X126734000Y-88274000D02*
X127484000Y-88274000D01*
X127484000Y-88274000D02*
X127484000Y-92574000D01*
X127484000Y-92574000D02*
X126734000Y-92574000D01*
X130314000Y-92574000D02*
X129564000Y-92574000D01*
X129564000Y-92574000D02*
X129564000Y-88274000D01*
X129564000Y-88274000D02*
X130314000Y-88274000D01*
X130314000Y-88274000D02*
X130314000Y-87924000D01*
X130314000Y-87924000D02*
X129814000Y-87924000D01*
X129814000Y-87924000D02*
X129564000Y-86924000D01*
X129564000Y-86924000D02*
X132564000Y-86924000D01*
X132564000Y-86924000D02*
X132314000Y-87924000D01*
X132314000Y-87924000D02*
X131814000Y-87924000D01*
X131814000Y-87924000D02*
X131814000Y-88274000D01*
X131814000Y-88274000D02*
X132564000Y-88274000D01*
X132564000Y-88274000D02*
X132564000Y-92574000D01*
X132564000Y-92574000D02*
X131814000Y-92574000D01*
X122944000Y-86824000D02*
X122944000Y-85574000D01*
X122944000Y-85574000D02*
X124944000Y-85574000D01*
G04 #@! TO.C,RV1*
X155964000Y-132350000D02*
X151724000Y-132350000D01*
X157464000Y-132350000D02*
X150224000Y-132350000D01*
X157464000Y-127350000D02*
X150224000Y-127350000D01*
X150224000Y-127350000D02*
X150224000Y-132350000D01*
X157464000Y-127350000D02*
X157464000Y-132350000D01*
X161964000Y-127350000D02*
X145724000Y-127350000D01*
X161964000Y-119610000D02*
X145724000Y-119610000D01*
X145724000Y-119610000D02*
X145724000Y-127350000D01*
X161964000Y-119610000D02*
X161964000Y-127350000D01*
G04 #@! TO.C,C2*
X139370000Y-115277000D02*
X139370000Y-115212000D01*
X139370000Y-117452000D02*
X139370000Y-117387000D01*
X142610000Y-115277000D02*
X142610000Y-115212000D01*
X142610000Y-117452000D02*
X142610000Y-117387000D01*
X142610000Y-115212000D02*
X139370000Y-115212000D01*
X142610000Y-117452000D02*
X139370000Y-117452000D01*
G04 #@! TO.C,C1*
X132230000Y-107050000D02*
X132230000Y-103810000D01*
X134470000Y-107050000D02*
X134470000Y-103810000D01*
X132230000Y-107050000D02*
X132295000Y-107050000D01*
X134405000Y-107050000D02*
X134470000Y-107050000D01*
X132230000Y-103810000D02*
X132295000Y-103810000D01*
X134405000Y-103810000D02*
X134470000Y-103810000D01*
G04 #@! TO.C,D2*
X154016000Y-105972000D02*
X154016000Y-108912000D01*
X154256000Y-105972000D02*
X154256000Y-108912000D01*
X154136000Y-105972000D02*
X154136000Y-108912000D01*
X159696000Y-107442000D02*
X158676000Y-107442000D01*
X152216000Y-107442000D02*
X153236000Y-107442000D01*
X158676000Y-105972000D02*
X153236000Y-105972000D01*
X158676000Y-108912000D02*
X158676000Y-105972000D01*
X153236000Y-108912000D02*
X158676000Y-108912000D01*
X153236000Y-105972000D02*
X153236000Y-108912000D01*
G04 #@! TO.C,D1*
X158676000Y-112468000D02*
X158676000Y-109528000D01*
X158676000Y-109528000D02*
X153236000Y-109528000D01*
X153236000Y-109528000D02*
X153236000Y-112468000D01*
X153236000Y-112468000D02*
X158676000Y-112468000D01*
X159696000Y-110998000D02*
X158676000Y-110998000D01*
X152216000Y-110998000D02*
X153236000Y-110998000D01*
X157776000Y-112468000D02*
X157776000Y-109528000D01*
X157656000Y-112468000D02*
X157656000Y-109528000D01*
X157896000Y-112468000D02*
X157896000Y-109528000D01*
G04 #@! TO.C,D3*
X129053000Y-106152000D02*
X125963000Y-106152000D01*
X130008000Y-108712000D02*
G75*
G03X130008000Y-108712000I-2500000J0D01*
G01*
X127507538Y-111702000D02*
G75*
G03X129052830Y-106152000I462J2990000D01*
G01*
X127508462Y-111702000D02*
G75*
G02X125963170Y-106152000I-462J2990000D01*
G01*
G04 #@! TO.C,U1*
X141970000Y-103572000D02*
G75*
G02X139970000Y-103572000I-1000000J0D01*
G01*
X139970000Y-103572000D02*
X138720000Y-103572000D01*
X138720000Y-103572000D02*
X138720000Y-113852000D01*
X138720000Y-113852000D02*
X143220000Y-113852000D01*
X143220000Y-113852000D02*
X143220000Y-103572000D01*
X143220000Y-103572000D02*
X141970000Y-103572000D01*
X135720000Y-103512000D02*
X135720000Y-113912000D01*
X135720000Y-113912000D02*
X146220000Y-113912000D01*
X146220000Y-113912000D02*
X146220000Y-103512000D01*
X146220000Y-103512000D02*
X135720000Y-103512000D01*
G04 #@! TO.C,R3*
X125508000Y-116740000D02*
X125508000Y-119480000D01*
X125508000Y-119480000D02*
X132048000Y-119480000D01*
X132048000Y-119480000D02*
X132048000Y-116740000D01*
X132048000Y-116740000D02*
X125508000Y-116740000D01*
X124738000Y-118110000D02*
X125508000Y-118110000D01*
X132818000Y-118110000D02*
X132048000Y-118110000D01*
G04 #@! TO.C,R2*
X132818000Y-114808000D02*
X132048000Y-114808000D01*
X124738000Y-114808000D02*
X125508000Y-114808000D01*
X132048000Y-113438000D02*
X125508000Y-113438000D01*
X132048000Y-116178000D02*
X132048000Y-113438000D01*
X125508000Y-116178000D02*
X132048000Y-116178000D01*
X125508000Y-113438000D02*
X125508000Y-116178000D01*
G04 #@! TO.C,R1*
X159226000Y-115924000D02*
X159226000Y-113184000D01*
X159226000Y-113184000D02*
X152686000Y-113184000D01*
X152686000Y-113184000D02*
X152686000Y-115924000D01*
X152686000Y-115924000D02*
X159226000Y-115924000D01*
X159996000Y-114554000D02*
X159226000Y-114554000D01*
X151916000Y-114554000D02*
X152686000Y-114554000D01*
G04 #@! TO.C,J2*
D12*
X146986666Y-94194380D02*
X146986666Y-94908666D01*
X146939047Y-95051523D01*
X146843809Y-95146761D01*
X146700952Y-95194380D01*
X146605714Y-95194380D01*
X147415238Y-94289619D02*
X147462857Y-94242000D01*
X147558095Y-94194380D01*
X147796190Y-94194380D01*
X147891428Y-94242000D01*
X147939047Y-94289619D01*
X147986666Y-94384857D01*
X147986666Y-94480095D01*
X147939047Y-94622952D01*
X147367619Y-95194380D01*
X147986666Y-95194380D01*
G04 #@! TO.C,J1*
X133016666Y-93940380D02*
X133016666Y-94654666D01*
X132969047Y-94797523D01*
X132873809Y-94892761D01*
X132730952Y-94940380D01*
X132635714Y-94940380D01*
X134016666Y-94940380D02*
X133445238Y-94940380D01*
X133730952Y-94940380D02*
X133730952Y-93940380D01*
X133635714Y-94083238D01*
X133540476Y-94178476D01*
X133445238Y-94226095D01*
G04 #@! TO.C,RV1*
X147232761Y-119324380D02*
X146899428Y-118848190D01*
X146661333Y-119324380D02*
X146661333Y-118324380D01*
X147042285Y-118324380D01*
X147137523Y-118372000D01*
X147185142Y-118419619D01*
X147232761Y-118514857D01*
X147232761Y-118657714D01*
X147185142Y-118752952D01*
X147137523Y-118800571D01*
X147042285Y-118848190D01*
X146661333Y-118848190D01*
X147518476Y-118324380D02*
X147851809Y-119324380D01*
X148185142Y-118324380D01*
X149042285Y-119324380D02*
X148470857Y-119324380D01*
X148756571Y-119324380D02*
X148756571Y-118324380D01*
X148661333Y-118467238D01*
X148566095Y-118562476D01*
X148470857Y-118610095D01*
G04 #@! TO.C,C2*
X140823333Y-118939142D02*
X140775714Y-118986761D01*
X140632857Y-119034380D01*
X140537619Y-119034380D01*
X140394761Y-118986761D01*
X140299523Y-118891523D01*
X140251904Y-118796285D01*
X140204285Y-118605809D01*
X140204285Y-118462952D01*
X140251904Y-118272476D01*
X140299523Y-118177238D01*
X140394761Y-118082000D01*
X140537619Y-118034380D01*
X140632857Y-118034380D01*
X140775714Y-118082000D01*
X140823333Y-118129619D01*
X141204285Y-118129619D02*
X141251904Y-118082000D01*
X141347142Y-118034380D01*
X141585238Y-118034380D01*
X141680476Y-118082000D01*
X141728095Y-118129619D01*
X141775714Y-118224857D01*
X141775714Y-118320095D01*
X141728095Y-118462952D01*
X141156666Y-119034380D01*
X141775714Y-119034380D01*
G04 #@! TO.C,C1*
X133183333Y-102719142D02*
X133135714Y-102766761D01*
X132992857Y-102814380D01*
X132897619Y-102814380D01*
X132754761Y-102766761D01*
X132659523Y-102671523D01*
X132611904Y-102576285D01*
X132564285Y-102385809D01*
X132564285Y-102242952D01*
X132611904Y-102052476D01*
X132659523Y-101957238D01*
X132754761Y-101862000D01*
X132897619Y-101814380D01*
X132992857Y-101814380D01*
X133135714Y-101862000D01*
X133183333Y-101909619D01*
X134135714Y-102814380D02*
X133564285Y-102814380D01*
X133850000Y-102814380D02*
X133850000Y-101814380D01*
X133754761Y-101957238D01*
X133659523Y-102052476D01*
X133564285Y-102100095D01*
G04 #@! TO.C,D2*
X155217904Y-105424380D02*
X155217904Y-104424380D01*
X155456000Y-104424380D01*
X155598857Y-104472000D01*
X155694095Y-104567238D01*
X155741714Y-104662476D01*
X155789333Y-104852952D01*
X155789333Y-104995809D01*
X155741714Y-105186285D01*
X155694095Y-105281523D01*
X155598857Y-105376761D01*
X155456000Y-105424380D01*
X155217904Y-105424380D01*
X156170285Y-104519619D02*
X156217904Y-104472000D01*
X156313142Y-104424380D01*
X156551238Y-104424380D01*
X156646476Y-104472000D01*
X156694095Y-104519619D01*
X156741714Y-104614857D01*
X156741714Y-104710095D01*
X156694095Y-104852952D01*
X156122666Y-105424380D01*
X156741714Y-105424380D01*
X150614095Y-105794380D02*
X150614095Y-104794380D01*
X151185523Y-105794380D02*
X150756952Y-105222952D01*
X151185523Y-104794380D02*
X150614095Y-105365809D01*
G04 #@! TO.C,D1*
X162583904Y-110688380D02*
X162583904Y-109688380D01*
X162822000Y-109688380D01*
X162964857Y-109736000D01*
X163060095Y-109831238D01*
X163107714Y-109926476D01*
X163155333Y-110116952D01*
X163155333Y-110259809D01*
X163107714Y-110450285D01*
X163060095Y-110545523D01*
X162964857Y-110640761D01*
X162822000Y-110688380D01*
X162583904Y-110688380D01*
X164107714Y-110688380D02*
X163536285Y-110688380D01*
X163822000Y-110688380D02*
X163822000Y-109688380D01*
X163726761Y-109831238D01*
X163631523Y-109926476D01*
X163536285Y-109974095D01*
X160774095Y-113550380D02*
X160774095Y-112550380D01*
X161345523Y-113550380D02*
X160916952Y-112978952D01*
X161345523Y-112550380D02*
X160774095Y-113121809D01*
G04 #@! TO.C,D3*
X125753904Y-105354380D02*
X125753904Y-104354380D01*
X125992000Y-104354380D01*
X126134857Y-104402000D01*
X126230095Y-104497238D01*
X126277714Y-104592476D01*
X126325333Y-104782952D01*
X126325333Y-104925809D01*
X126277714Y-105116285D01*
X126230095Y-105211523D01*
X126134857Y-105306761D01*
X125992000Y-105354380D01*
X125753904Y-105354380D01*
X126658666Y-104354380D02*
X127277714Y-104354380D01*
X126944380Y-104735333D01*
X127087238Y-104735333D01*
X127182476Y-104782952D01*
X127230095Y-104830571D01*
X127277714Y-104925809D01*
X127277714Y-105163904D01*
X127230095Y-105259142D01*
X127182476Y-105306761D01*
X127087238Y-105354380D01*
X126801523Y-105354380D01*
X126706285Y-105306761D01*
X126658666Y-105259142D01*
G04 #@! TO.C,U1*
X135890095Y-102068380D02*
X135890095Y-102877904D01*
X135937714Y-102973142D01*
X135985333Y-103020761D01*
X136080571Y-103068380D01*
X136271047Y-103068380D01*
X136366285Y-103020761D01*
X136413904Y-102973142D01*
X136461523Y-102877904D01*
X136461523Y-102068380D01*
X137461523Y-103068380D02*
X136890095Y-103068380D01*
X137175809Y-103068380D02*
X137175809Y-102068380D01*
X137080571Y-102211238D01*
X136985333Y-102306476D01*
X136890095Y-102354095D01*
G04 #@! TO.C,R3*
X121499333Y-118308380D02*
X121166000Y-117832190D01*
X120927904Y-118308380D02*
X120927904Y-117308380D01*
X121308857Y-117308380D01*
X121404095Y-117356000D01*
X121451714Y-117403619D01*
X121499333Y-117498857D01*
X121499333Y-117641714D01*
X121451714Y-117736952D01*
X121404095Y-117784571D01*
X121308857Y-117832190D01*
X120927904Y-117832190D01*
X121832666Y-117308380D02*
X122451714Y-117308380D01*
X122118380Y-117689333D01*
X122261238Y-117689333D01*
X122356476Y-117736952D01*
X122404095Y-117784571D01*
X122451714Y-117879809D01*
X122451714Y-118117904D01*
X122404095Y-118213142D01*
X122356476Y-118260761D01*
X122261238Y-118308380D01*
X121975523Y-118308380D01*
X121880285Y-118260761D01*
X121832666Y-118213142D01*
G04 #@! TO.C,R2*
X121499333Y-114752380D02*
X121166000Y-114276190D01*
X120927904Y-114752380D02*
X120927904Y-113752380D01*
X121308857Y-113752380D01*
X121404095Y-113800000D01*
X121451714Y-113847619D01*
X121499333Y-113942857D01*
X121499333Y-114085714D01*
X121451714Y-114180952D01*
X121404095Y-114228571D01*
X121308857Y-114276190D01*
X120927904Y-114276190D01*
X121880285Y-113847619D02*
X121927904Y-113800000D01*
X122023142Y-113752380D01*
X122261238Y-113752380D01*
X122356476Y-113800000D01*
X122404095Y-113847619D01*
X122451714Y-113942857D01*
X122451714Y-114038095D01*
X122404095Y-114180952D01*
X121832666Y-114752380D01*
X122451714Y-114752380D01*
G04 #@! TO.C,R1*
X155789333Y-117376380D02*
X155456000Y-116900190D01*
X155217904Y-117376380D02*
X155217904Y-116376380D01*
X155598857Y-116376380D01*
X155694095Y-116424000D01*
X155741714Y-116471619D01*
X155789333Y-116566857D01*
X155789333Y-116709714D01*
X155741714Y-116804952D01*
X155694095Y-116852571D01*
X155598857Y-116900190D01*
X155217904Y-116900190D01*
X156741714Y-117376380D02*
X156170285Y-117376380D01*
X156456000Y-117376380D02*
X156456000Y-116376380D01*
X156360761Y-116519238D01*
X156265523Y-116614476D01*
X156170285Y-116662095D01*
G04 #@! TD*
M02*
