G04 #@! TF.GenerationSoftware,KiCad,Pcbnew,5.0.2-bee76a0~70~ubuntu18.04.1*
G04 #@! TF.CreationDate,2019-02-10T19:25:21-02:00*
G04 #@! TF.ProjectId,555-gerador-PWM-r01,3535352d-6765-4726-9164-6f722d50574d,rev?*
G04 #@! TF.SameCoordinates,Original*
G04 #@! TF.FileFunction,Copper,L1,Top*
G04 #@! TF.FilePolarity,Positive*
%FSLAX46Y46*%
G04 Gerber Fmt 4.6, Leading zero omitted, Abs format (unit mm)*
G04 Created by KiCad (PCBNEW 5.0.2-bee76a0~70~ubuntu18.04.1) date dom 10 fev 2019 19:25:21 -02*
%MOMM*%
%LPD*%
G01*
G04 APERTURE LIST*
G04 #@! TA.AperFunction,ComponentPad*
%ADD10O,1.800000X3.600000*%
G04 #@! TD*
G04 #@! TA.AperFunction,Conductor*
%ADD11C,0.100000*%
G04 #@! TD*
G04 #@! TA.AperFunction,ComponentPad*
%ADD12C,1.800000*%
G04 #@! TD*
G04 #@! TA.AperFunction,ComponentPad*
%ADD13C,2.340000*%
G04 #@! TD*
G04 #@! TA.AperFunction,ComponentPad*
%ADD14C,1.600000*%
G04 #@! TD*
G04 #@! TA.AperFunction,ComponentPad*
%ADD15O,2.200000X2.200000*%
G04 #@! TD*
G04 #@! TA.AperFunction,ComponentPad*
%ADD16R,2.200000X2.200000*%
G04 #@! TD*
G04 #@! TA.AperFunction,ComponentPad*
%ADD17R,1.800000X1.800000*%
G04 #@! TD*
G04 #@! TA.AperFunction,ComponentPad*
%ADD18R,2.400000X1.600000*%
G04 #@! TD*
G04 #@! TA.AperFunction,ComponentPad*
%ADD19O,2.400000X1.600000*%
G04 #@! TD*
G04 #@! TA.AperFunction,ComponentPad*
%ADD20O,1.600000X1.600000*%
G04 #@! TD*
G04 #@! TA.AperFunction,ViaPad*
%ADD21C,3.500000*%
G04 #@! TD*
G04 APERTURE END LIST*
D10*
G04 #@! TO.P,J2,2*
G04 #@! TO.N,GND*
X155956000Y-90424000D03*
D11*
G04 #@! TD*
G04 #@! TO.N,VDC*
G04 #@! TO.C,J2*
G36*
X151550504Y-88625204D02*
X151574773Y-88628804D01*
X151598571Y-88634765D01*
X151621671Y-88643030D01*
X151643849Y-88653520D01*
X151664893Y-88666133D01*
X151684598Y-88680747D01*
X151702777Y-88697223D01*
X151719253Y-88715402D01*
X151733867Y-88735107D01*
X151746480Y-88756151D01*
X151756970Y-88778329D01*
X151765235Y-88801429D01*
X151771196Y-88825227D01*
X151774796Y-88849496D01*
X151776000Y-88874000D01*
X151776000Y-91974000D01*
X151774796Y-91998504D01*
X151771196Y-92022773D01*
X151765235Y-92046571D01*
X151756970Y-92069671D01*
X151746480Y-92091849D01*
X151733867Y-92112893D01*
X151719253Y-92132598D01*
X151702777Y-92150777D01*
X151684598Y-92167253D01*
X151664893Y-92181867D01*
X151643849Y-92194480D01*
X151621671Y-92204970D01*
X151598571Y-92213235D01*
X151574773Y-92219196D01*
X151550504Y-92222796D01*
X151526000Y-92224000D01*
X150226000Y-92224000D01*
X150201496Y-92222796D01*
X150177227Y-92219196D01*
X150153429Y-92213235D01*
X150130329Y-92204970D01*
X150108151Y-92194480D01*
X150087107Y-92181867D01*
X150067402Y-92167253D01*
X150049223Y-92150777D01*
X150032747Y-92132598D01*
X150018133Y-92112893D01*
X150005520Y-92091849D01*
X149995030Y-92069671D01*
X149986765Y-92046571D01*
X149980804Y-92022773D01*
X149977204Y-91998504D01*
X149976000Y-91974000D01*
X149976000Y-88874000D01*
X149977204Y-88849496D01*
X149980804Y-88825227D01*
X149986765Y-88801429D01*
X149995030Y-88778329D01*
X150005520Y-88756151D01*
X150018133Y-88735107D01*
X150032747Y-88715402D01*
X150049223Y-88697223D01*
X150067402Y-88680747D01*
X150087107Y-88666133D01*
X150108151Y-88653520D01*
X150130329Y-88643030D01*
X150153429Y-88634765D01*
X150177227Y-88628804D01*
X150201496Y-88625204D01*
X150226000Y-88624000D01*
X151526000Y-88624000D01*
X151550504Y-88625204D01*
X151550504Y-88625204D01*
G37*
D12*
G04 #@! TO.P,J2,1*
G04 #@! TO.N,VDC*
X150876000Y-90424000D03*
G04 #@! TD*
D11*
G04 #@! TO.N,Net-(J1-Pad1)*
G04 #@! TO.C,J1*
G36*
X126658504Y-88625204D02*
X126682773Y-88628804D01*
X126706571Y-88634765D01*
X126729671Y-88643030D01*
X126751849Y-88653520D01*
X126772893Y-88666133D01*
X126792598Y-88680747D01*
X126810777Y-88697223D01*
X126827253Y-88715402D01*
X126841867Y-88735107D01*
X126854480Y-88756151D01*
X126864970Y-88778329D01*
X126873235Y-88801429D01*
X126879196Y-88825227D01*
X126882796Y-88849496D01*
X126884000Y-88874000D01*
X126884000Y-91974000D01*
X126882796Y-91998504D01*
X126879196Y-92022773D01*
X126873235Y-92046571D01*
X126864970Y-92069671D01*
X126854480Y-92091849D01*
X126841867Y-92112893D01*
X126827253Y-92132598D01*
X126810777Y-92150777D01*
X126792598Y-92167253D01*
X126772893Y-92181867D01*
X126751849Y-92194480D01*
X126729671Y-92204970D01*
X126706571Y-92213235D01*
X126682773Y-92219196D01*
X126658504Y-92222796D01*
X126634000Y-92224000D01*
X125334000Y-92224000D01*
X125309496Y-92222796D01*
X125285227Y-92219196D01*
X125261429Y-92213235D01*
X125238329Y-92204970D01*
X125216151Y-92194480D01*
X125195107Y-92181867D01*
X125175402Y-92167253D01*
X125157223Y-92150777D01*
X125140747Y-92132598D01*
X125126133Y-92112893D01*
X125113520Y-92091849D01*
X125103030Y-92069671D01*
X125094765Y-92046571D01*
X125088804Y-92022773D01*
X125085204Y-91998504D01*
X125084000Y-91974000D01*
X125084000Y-88874000D01*
X125085204Y-88849496D01*
X125088804Y-88825227D01*
X125094765Y-88801429D01*
X125103030Y-88778329D01*
X125113520Y-88756151D01*
X125126133Y-88735107D01*
X125140747Y-88715402D01*
X125157223Y-88697223D01*
X125175402Y-88680747D01*
X125195107Y-88666133D01*
X125216151Y-88653520D01*
X125238329Y-88643030D01*
X125261429Y-88634765D01*
X125285227Y-88628804D01*
X125309496Y-88625204D01*
X125334000Y-88624000D01*
X126634000Y-88624000D01*
X126658504Y-88625204D01*
X126658504Y-88625204D01*
G37*
D12*
G04 #@! TD*
G04 #@! TO.P,J1,1*
G04 #@! TO.N,Net-(J1-Pad1)*
X125984000Y-90424000D03*
D10*
G04 #@! TO.P,J1,2*
G04 #@! TO.N,GND*
X131064000Y-90424000D03*
G04 #@! TD*
D13*
G04 #@! TO.P,RV1,1*
G04 #@! TO.N,Net-(D2-Pad2)*
X148844000Y-125730000D03*
G04 #@! TO.P,RV1,2*
G04 #@! TO.N,Net-(C1-Pad1)*
X153844000Y-125730000D03*
G04 #@! TO.P,RV1,3*
G04 #@! TO.N,Net-(D1-Pad1)*
X158844000Y-125730000D03*
G04 #@! TD*
D14*
G04 #@! TO.P,C2,2*
G04 #@! TO.N,GND*
X139740000Y-116332000D03*
G04 #@! TO.P,C2,1*
G04 #@! TO.N,Net-(C2-Pad1)*
X142240000Y-116332000D03*
G04 #@! TD*
G04 #@! TO.P,C1,1*
G04 #@! TO.N,Net-(C1-Pad1)*
X133350000Y-106680000D03*
G04 #@! TO.P,C1,2*
G04 #@! TO.N,GND*
X133350000Y-104180000D03*
G04 #@! TD*
D15*
G04 #@! TO.P,D2,2*
G04 #@! TO.N,Net-(D2-Pad2)*
X161036000Y-107442000D03*
D16*
G04 #@! TO.P,D2,1*
G04 #@! TO.N,Net-(D1-Pad2)*
X150876000Y-107442000D03*
G04 #@! TD*
G04 #@! TO.P,D1,1*
G04 #@! TO.N,Net-(D1-Pad1)*
X161036000Y-110998000D03*
D15*
G04 #@! TO.P,D1,2*
G04 #@! TO.N,Net-(D1-Pad2)*
X150876000Y-110998000D03*
G04 #@! TD*
D17*
G04 #@! TO.P,D3,1*
G04 #@! TO.N,GND*
X127508000Y-107442000D03*
D12*
G04 #@! TO.P,D3,2*
G04 #@! TO.N,Net-(D3-Pad2)*
X127508000Y-109982000D03*
G04 #@! TD*
D18*
G04 #@! TO.P,U1,1*
G04 #@! TO.N,GND*
X137160000Y-104902000D03*
D19*
G04 #@! TO.P,U1,5*
G04 #@! TO.N,Net-(C2-Pad1)*
X144780000Y-112522000D03*
G04 #@! TO.P,U1,2*
G04 #@! TO.N,Net-(C1-Pad1)*
X137160000Y-107442000D03*
G04 #@! TO.P,U1,6*
X144780000Y-109982000D03*
G04 #@! TO.P,U1,3*
G04 #@! TO.N,Net-(R2-Pad2)*
X137160000Y-109982000D03*
G04 #@! TO.P,U1,7*
G04 #@! TO.N,Net-(D1-Pad2)*
X144780000Y-107442000D03*
G04 #@! TO.P,U1,4*
G04 #@! TO.N,VDC*
X137160000Y-112522000D03*
G04 #@! TO.P,U1,8*
X144780000Y-104902000D03*
G04 #@! TD*
D14*
G04 #@! TO.P,R3,1*
G04 #@! TO.N,Net-(J1-Pad1)*
X123698000Y-118110000D03*
D20*
G04 #@! TO.P,R3,2*
G04 #@! TO.N,Net-(R2-Pad2)*
X133858000Y-118110000D03*
G04 #@! TD*
G04 #@! TO.P,R2,2*
G04 #@! TO.N,Net-(R2-Pad2)*
X133858000Y-114808000D03*
D14*
G04 #@! TO.P,R2,1*
G04 #@! TO.N,Net-(D3-Pad2)*
X123698000Y-114808000D03*
G04 #@! TD*
G04 #@! TO.P,R1,1*
G04 #@! TO.N,VDC*
X161036000Y-114554000D03*
D20*
G04 #@! TO.P,R1,2*
G04 #@! TO.N,Net-(D1-Pad2)*
X150876000Y-114554000D03*
G04 #@! TD*
D21*
G04 #@! TO.N,*
X118872000Y-130556000D03*
X162814000Y-130556000D03*
X162814000Y-86868000D03*
X118872000Y-86868000D03*
G04 #@! TD*
M02*
